<?xml version="1.0" standalone="no"?>
<!DOCTYPE svg PUBLIC "-//W3C//DTD SVG 1.1//EN" "http://www.w3.org/Graphics/SVG/1.1/DTD/svg11.dtd">
<svg xmlns="http://www.w3.org/2000/svg">
<defs >
<font id="Orbitron" horiz-adv-x="672" ><font-face
    font-family="Orbitron Medium"
    units-per-em="1000"
    panose-1="0 0 0 0 0 0 0 0 0 0"
    ascent="1011"
    descent="-243"
    alphabetic="0" />
<glyph unicode=" " horiz-adv-x="290" />
<glyph unicode="!" horiz-adv-x="220" d="M58 202V202V720H166V202H58ZM58 0V0V108H166V0H58Z" />
<glyph unicode="&quot;" horiz-adv-x="381" d="M215 553V553V715H323V553H215ZM51 553V553V715H158V553H51Z" />
<glyph unicode="#" horiz-adv-x="797" d="M72 0V0L124 166H32V274H157L214 453H63V560H249L302 719H411L356 560H572L625 719H734L679 560H765V453H646L588 274H733V166H554L503 0H395L447 166H230L181 0H72ZM266 274V274H480L537 453H323L266 274Z" />
<glyph unicode="$" horiz-adv-x="788" d="M340 -108V-108V0H164Q128 0 98 17T51 64T34 130V171H141V132Q141 122 148 115T166 107H340V305H164Q128 305 99 322T52 369T34 436V590Q34 626 51 655T98 702T164 720H340V829H448V720H622Q659 720 689 703T736 656T753
590V549H645V587Q645 597 638 605T621 613H448V413H622Q659 413 689 396T736 349T754 284V130Q754 94 737 65T690 18T624 0H448V-108H340ZM166 413H340V613H166Q156 613 149 606T141 588V437Q141 427 148 420T166 413ZM448 107V107L621 108Q631 108 638 115T645
133V281Q645 291 638 298T621 305H448V107Z" />
<glyph unicode="%" horiz-adv-x="966" d="M136 0V0V126L830 714L856 720V595L165 10L136 0ZM175 384Q139 384 111 401T65 446T48 511V590Q48 627 65 655T110 700T175 717H264Q301 717 329 701T374 656T391 590V511Q391 475 375 447T330 401T264 384H175V384ZM144
469V469H295Q300 469 303 472T307 481V620Q307 625 304 628T295 632H144Q139 632 136 629T132 620V481Q132 476 135 473T144 469ZM707 3Q671 3 643 19T598 65T581 129V209Q581 245 597 273T642 318T707 335H797Q833 335 861 319T907 274T924 209V129Q924 94 907
65T862 20T797 3H707V3ZM678 87V87H827Q832 87 835 90T839 99V239Q839 244 836 247T827 251H678Q672 251 669 248T665 239V99Q665 94 668 91T678 87Z" />
<glyph unicode="&amp;" horiz-adv-x="938" d="M183 0Q148 0 119 17T71 64T53 130V334Q53 356 74 378T132 406Q93 439 93 486V589Q93 625 110 654T157 701T223 719H612Q643 719 670 704T716 665T743 611V544H634V585Q634 595 627 602T609 609H225Q215 609 208 602T201
585V457L664 223V346H772V182L899 107V4L761 82Q743 45 711 23T643 0H183ZM186 108H599Q609 108 620 114T639 131L201 351L186 354Q176 354 169 344T161 312V133Q161 123 168 116T186 108Z" />
<glyph unicode="&apos;" horiz-adv-x="234" d="M59 552V552V715H167V552H59Z" />
<glyph unicode="(" horiz-adv-x="283" d="M182 0Q146 0 117 18T70 65T52 130V590Q52 626 69 655T116 702T182 720H224V611H185Q175 611 168 604T160 587V133Q160 123 167 116T185 108H224V0H182V0Z" />
<glyph unicode=")" horiz-adv-x="285" d="M56 0V0V108H95Q105 108 112 115T120 133V587Q120 597 113 604T95 611H56V720H98Q133 720 163 703T211 656T229 590V130Q229 94 211 65T163 18T98 0H56Z" />
<glyph unicode="*" horiz-adv-x="500" d="M163 295V295L75 358L157 472L25 515L57 619L191 574V714H299V575L431 619L465 515L332 472L415 359L328 295L244 407L163 295Z" />
<glyph unicode="+" horiz-adv-x="441" d="M161 95V95V242H17V350H161V495H269V350H417V242H269V95H161Z" />
<glyph unicode="," horiz-adv-x="211" d="M54 -132V-132V104H162V-4Q162 -35 148 -60T110 -105T54 -132Z" />
<glyph unicode="-" horiz-adv-x="517" d="M59 242V242V350H459V242H59Z" />
<glyph unicode="." horiz-adv-x="221" d="M54 0V0V108H162V0H54Z" />
<glyph unicode="/" horiz-adv-x="521" d="M6 0V0V124L491 715L516 720V598L31 6L6 0Z" />
<glyph unicode="0" horiz-adv-x="834" d="M187 0Q151 0 122 18T75 67T57 133V588Q57 624 74 654T121 702T187 720H647Q682 720 711 702T759 654T777 588V133Q777 98 759 68T712 19T647 0H187V0ZM201 112V112H644Q654 112 661 119T669 136V499L201 112ZM165 223V223L632
610H190Q180 610 173 603T165 585V223Z" />
<glyph unicode="1" horiz-adv-x="391" d="M226 0V0V577L143 477H1L205 720H334V0H226Z" />
<glyph unicode="2" horiz-adv-x="830" d="M57 0V0V273Q57 310 74 339T121 385T187 403H644Q654 403 661 410T669 428V587Q669 597 662 604T644 612H190Q180 612 173 605T165 587V548H57V590Q57 627 74 656T121 703T187 721H647Q682 721 711 703T759 656T777 590V425Q777
389 759 360T712 313T647 295H190Q180 295 173 288T165 270V133Q165 123 172 116T190 108H777V0H57Z" />
<glyph unicode="3" horiz-adv-x="826" d="M184 0Q147 0 118 18T71 65T53 130V160H162V133Q162 123 169 116T186 108H641Q651 108 658 115T665 133V287Q665 297 658 304T641 312H184V420H610Q621 420 628 427T635 445V587Q635 597 628 604T610 612H186Q176 612
169 605T162 587V550H53V590Q53 627 70 656T118 703T184 721H613Q650 721 679 703T726 656T743 590V442Q743 429 741 416T733 392Q755 370 764 343T773 290V130Q773 94 756 65T709 18T644 0H184V0Z" />
<glyph unicode="4" horiz-adv-x="730" d="M482 0V0V183H6V292L482 721H590V292H696V183H590V0H482ZM164 292V292H482V563L164 292Z" />
<glyph unicode="5" horiz-adv-x="830" d="M187 0Q151 0 122 18T75 65T57 130V169H165V133Q165 123 172 116T190 108H644Q654 108 661 115T669 133V290Q669 300 662 307T644 315H57V721H777V612H190Q180 612 173 605T165 587V448Q165 438 172 431T190 423H647Q682
423 711 406T759 359T777 293V130Q777 94 759 65T712 18T647 0H187V0Z" />
<glyph unicode="6" horiz-adv-x="820" d="M187 0Q151 0 122 18T75 65T57 130V590Q57 627 74 656T121 703T187 721H657V612H190Q180 612 173 605T165 587V450Q165 440 172 433T190 425H647Q682 425 711 408T759 361T777 295V130Q777 94 759 65T712 18T647 0H187V0ZM190
108H644Q654 108 661 115T669 133V292Q669 302 662 309T644 317H165V133Q165 123 172 116T190 108Z" />
<glyph unicode="7" horiz-adv-x="660" d="M495 0V0V588Q495 598 488 605T470 612H3V721H473Q509 721 538 704T585 657T603 591V0H495Z" />
<glyph unicode="8" horiz-adv-x="834" d="M187 0Q151 0 122 18T75 65T57 130V293Q57 312 64 331T82 369Q71 387 64 406T57 445V590Q57 627 74 656T121 703T187 721H647Q677 721 704 706T750 666T777 612V445Q777 407 751 369Q777 333 777 293V130Q777 94 759 65T712
18T647 0H187V0ZM190 108V108H644Q654 108 661 115T669 133V290Q669 300 662 307T644 315H190Q180 315 173 308T165 290V133Q165 123 172 116T190 108ZM190 412V412H644Q654 412 661 419T669 437V586Q669 596 662 603T644 611H190Q180 611 173 604T165 586V437Q165
427 172 420T190 412Z" />
<glyph unicode="9" horiz-adv-x="828" d="M183 0Q153 0 127 14T82 52T55 108H640Q650 108 657 115T665 133V271Q665 282 658 289T640 296H183Q146 296 117 314T70 361T52 426V590Q52 627 70 656T117 703T183 721H643Q678 721 707 703T754 656T772 590V130Q772
94 755 65T708 18T643 0H183V0ZM186 405V405H665V587Q665 597 658 604T640 612H186Q176 612 169 605T161 587V429Q161 419 168 412T186 405Z" />
<glyph unicode=":" horiz-adv-x="226" d="M54 477V477V585H162V477H54ZM54 0V0V108H162V0H54Z" />
<glyph unicode=";" horiz-adv-x="220" d="M51 -132V-132V104H159V-4Q159 -35 145 -60T107 -105T51 -132ZM51 477V477V585H159V477H51Z" />
<glyph unicode="&lt;" horiz-adv-x="473" d="M416 4V4L5 242V350L416 587V463L128 296L416 129V4Z" />
<glyph unicode="=" horiz-adv-x="638" d="M59 344V344V452H579V344H59ZM59 143V143V251H579V143H59Z" />
<glyph unicode="&gt;" horiz-adv-x="475" d="M59 2V2V127L347 294L59 460V585L470 348V240L59 2Z" />
<glyph unicode="?" horiz-adv-x="678" d="M144 198V198V254Q144 290 161 319T208 366T274 383H530Q541 383 548 390T555 408V586Q555 596 548 603T530 611H31V720L533 719Q569 719 598 702T645 655T663 589V405Q663 370 646 341T599 293T533 275H277Q267 275 260
268T252 250V198H144ZM144 0V0V108H252V0H144Z" />
<glyph unicode="@" horiz-adv-x="826" d="M184 0Q148 0 119 18T72 65T54 130V590Q54 626 71 655T118 702T184 720H644Q679 720 708 703T756 656T774 590V201H373Q336 201 309 216T266 260T250 324V397Q250 432 265 459T308 503T373 519H456Q491 519 518 503T562
460T578 397V282H666V587Q666 597 659 604T641 611H187Q177 611 170 604T162 587V133Q162 123 169 116T187 108H774V0H184V0ZM352 282H501V417Q501 427 494 434T476 442H352Q342 442 335 435T327 417V307Q327 297 334 290T352 282Z" />
<glyph unicode="A" horiz-adv-x="836" d="M58 0V590Q58 626 75 655T122 702T188 720H647Q683 720 713 703T760 656T778 590V0H669V252H166V0H58V0ZM166 360H669V587Q669 597 662 604T644 612H191Q181 612 174 605T166 587V360V360Z" />
<glyph unicode="B" horiz-adv-x="832" d="M59 0V720H619Q654 720 684 703T731 656T749 590V443Q749 430 747 417T738 393Q758 365 768 341T779 291V130Q779 94 762 65T714 18T648 0H59V0ZM192 108H645Q656 108 663 115T670 133V288Q670 298 663 305T645 313H192Q182
313 175 306T167 288V133Q167 123 174 116T192 108ZM192 421H616Q626 421 633 428T640 446V587Q640 597 633 604T616 612H192Q182 612 175 605T167 587V446Q167 436 174 429T192 421Z" />
<glyph unicode="C" horiz-adv-x="822" d="M186 0Q150 0 121 17T74 64T56 130V590Q56 626 73 655T120 702T186 720H774V612H201Q185 612 175 602T164 575V145Q164 129 174 119T201 108H774V0H186Z" />
<glyph unicode="D" horiz-adv-x="834" d="M58 0V720H647Q683 720 713 703T760 656T778 590V130Q778 94 761 65T713 18T647 0H58ZM190 108H644Q655 108 662 115T669 133V587Q669 597 662 604T644 612H190Q180 612 173 605T166 587V133Q166 123 173 116T190 108Z" />
<glyph unicode="E" horiz-adv-x="766" d="M58 0V720H718V612H167V415H610V305H167V108H718V0H58Z" />
<glyph unicode="F" horiz-adv-x="723" d="M58 0V720H718V612H167V415H610V305H167V0H58Z" />
<glyph unicode="G" horiz-adv-x="830" d="M186 0Q150 0 121 17T74 64T56 130V590Q56 626 73 655T120 702T186 720H645Q681 720 711 703T758 656T776 590V547H667V587Q667 597 660 604T642 612H189Q179 612 172 605T164 587V133Q164 123 171 116T189 108H642Q653
108 660 115T667 133V286H497V395H776V130Q776 94 759 65T711 18T645 0H186Z" />
<glyph unicode="H" horiz-adv-x="851" d="M57 0V720H165V415H685V720H794V0H685V305H165V0H57Z" />
<glyph unicode="I" horiz-adv-x="214" d="M53 0V720H161V0H53Z" />
<glyph unicode="J" horiz-adv-x="780" d="M134 0Q98 0 69 17T22 64T4 130V200H112V133Q112 123 119 116T137 108H590Q601 108 608 115T615 133V720H724V130Q724 94 707 65T659 18T594 0H134Z" />
<glyph unicode="K" horiz-adv-x="797" d="M57 0V720H166V415H365L621 720H746V700L461 360L747 20V0H621L365 305H166V0H57Z" />
<glyph unicode="L" horiz-adv-x="779" d="M57 0V721H165V108H777V0H57Z" />
<glyph unicode="M" horiz-adv-x="928" d="M56 0V720H185L464 388L742 720H872V0H763V575L464 219L164 575V0H56Z" />
<glyph unicode="N" horiz-adv-x="832" d="M56 0V720H185L667 146V720H776V0H647L164 575V0H56Z" />
<glyph unicode="O" horiz-adv-x="828" d="M184 0Q148 0 119 17T72 64T54 130V590Q54 626 71 655T118 702T184 720H644Q679 720 709 703T756 656T774 590V130Q774 94 757 65T709 18T644 0H184ZM187 108H640Q651 108 658 115T665 133V587Q665 597 658 604T640 612H187Q177
612 170 605T162 587V133Q162 123 169 116T187 108Z" />
<glyph unicode="P" horiz-adv-x="791" d="M56 0V719H645Q681 719 711 701T758 654T776 589V387Q776 351 759 322T711 275T645 257L164 256V0H56ZM189 366H642Q653 366 660 373T667 390V586Q667 596 660 603T642 611H189Q179 611 172 604T164 586V390Q164 380 171
373T189 366Z" />
<glyph unicode="Q" horiz-adv-x="884" d="M637 0V75L774 135V108H864V0H637ZM184 0Q148 0 119 17T72 64T54 130V590Q54 626 71 655T118 702T184 720H644Q679 720 709 703T756 656T774 590V130Q774 94 757 65T709 18T644 0H184ZM187 108H640Q651 108 658 115T665
133V587Q665 597 658 604T640 612H187Q177 612 170 605T162 587V133Q162 123 169 116T187 108Z" />
<glyph unicode="R" horiz-adv-x="825" d="M646 0L421 269H562L772 20V0H646ZM56 0V719H645Q681 719 711 701T758 654T776 589V387Q776 351 759 322T711 275T645 257L164 256V0H56ZM189 366H642Q653 366 660 373T667 390V586Q667 596 660 603T642 611H189Q179 611
172 604T164 586V390Q164 380 171 373T189 366Z" />
<glyph unicode="S" horiz-adv-x="824" d="M182 0Q147 0 117 17T70 64T52 130V172H160V133Q160 123 167 116T185 108H639Q649 108 656 115T663 133V281Q663 292 656 298T639 305H182Q147 305 117 323T70 370T52 436V590Q52 626 69 655T117 702T182 720H642Q677
720 707 703T754 656T772 590V548H663V587Q663 597 656 604T639 612H185Q175 612 168 605T160 587V439Q160 428 167 422T185 415H642Q677 415 707 397T754 350T772 284V130Q772 94 755 65T707 18T642 0H182Z" />
<glyph unicode="T" horiz-adv-x="759" d="M326 0V0V612H20V720H740V612H435V0H326Z" />
<glyph unicode="U" horiz-adv-x="828" d="M184 0Q148 0 119 17T72 64T54 130V720H162V133Q162 123 169 116T187 108H640Q651 108 658 115T665 133V720H774V130Q774 94 757 65T709 18T644 0H184V0Z" />
<glyph unicode="V" horiz-adv-x="1003" d="M452 0V0L35 720H161L506 122L849 720H975L559 0H452Z" />
<glyph unicode="W" horiz-adv-x="1179" d="M297 0V0L35 720H150L341 196L532 720H646L838 196L1028 720H1144L882 0H793L589 560L385 0H297Z" />
<glyph unicode="X" horiz-adv-x="812" d="M46 0V0V20L332 360L46 700V720H171L403 445L634 720H759V700L473 360L760 20V0H634L402 275L171 0H46Z" />
<glyph unicode="Y" horiz-adv-x="806" d="M349 0V0V270L17 720H144L403 393L661 720H789L457 270V0H349Z" />
<glyph unicode="Z" horiz-adv-x="821" d="M51 0V0V129L626 612H51V720H771V591L196 108H771V0H51Z" />
<glyph unicode="[" horiz-adv-x="275" d="M54 0V0V721H226V612H162V108H226V0H54Z" />
<glyph unicode="\" horiz-adv-x="520" d="M493 0V0L5 601V720H29L515 124V0H493Z" />
<glyph unicode="]" horiz-adv-x="276" d="M51 0V0V108H114V612H51V721H223V0H51Z" />
<glyph unicode="_" horiz-adv-x="828" d="M54 -109V-109V-1H774V-109H54Z" />
<glyph unicode="`" horiz-adv-x="299" d="M119 640V640L79 802H187L228 640H119Z" />
<glyph unicode="a" horiz-adv-x="694" d="M182 0Q146 0 117 18T70 65T52 130V344H533V447Q533 457 526 464T509 472H52V580H512Q548 580 577 563T624 515T642 450V0H182ZM185 108H533V243H160V133Q160 123 167 116T185 108Z" />
<glyph unicode="b" horiz-adv-x="667" d="M54 0V0V770H162V580H514Q550 580 579 562T626 515T644 450V130Q644 94 627 65T580 18T514 0H54ZM187 108H511Q521 108 528 115T536 133V447Q536 457 529 464T511 472H187Q177 472 170 465T162 447V133Q162 123 169 116T187 108Z" />
<glyph unicode="c" horiz-adv-x="695" d="M181 0Q145 0 116 18T69 65T51 130V450Q51 486 69 515T116 562T181 580H639V472H184Q174 472 167 465T159 447V133Q159 123 166 116T184 108H641V0H181V0Z" />
<glyph unicode="d" horiz-adv-x="667" d="M153 0Q117 0 88 17T41 65T23 130V450Q23 486 40 515T87 562T153 580H505V770H613V0H153V0ZM157 108H481Q491 108 498 115T505 133V447Q505 457 498 464T481 472H157Q147 472 140 465T132 447V133Q132 123 139 116T157 108Z" />
<glyph unicode="e" horiz-adv-x="692" d="M181 0Q145 0 116 18T69 65T51 130V450Q51 486 69 515T116 562T181 580H511Q547 580 576 563T623 515T641 450V236H159V133Q159 123 166 116T184 108H641V0H181V0ZM159 337H532V447Q532 457 525 464T508 472H184Q174 472
167 465T159 447V337Z" />
<glyph unicode="f" horiz-adv-x="419" d="M53 0V0V640Q53 676 70 705T117 752T183 770H399V662H186Q176 662 169 655T161 637V580H399V472H161V0H53Z" />
<glyph unicode="g" horiz-adv-x="683" d="M143 -229V-229V-120H498Q508 -120 515 -113T523 -95V0H171Q136 0 106 17T59 65T41 130V450Q41 486 59 515T106 562T171 580H501Q537 580 566 562T613 515T631 450V-99Q631 -135 614 -164T567 -211T501 -229H143ZM174
108H498Q508 108 515 115T523 133V447Q523 457 516 464T498 472H174Q164 472 157 465T149 447V133Q149 123 156 116T174 108Z" />
<glyph unicode="h" horiz-adv-x="668" d="M54 0V0V770H162V580H514Q549 580 578 562T626 515T644 450V0H536V447Q536 457 529 464T511 472H187Q177 472 170 465T162 447V0H54Z" />
<glyph unicode="i" horiz-adv-x="216" d="M52 0V0V580H160V0H52ZM52 662V662V770H160V662H52Z" />
<glyph unicode="j" horiz-adv-x="239" d="M-187 -230V-230V-121H58Q68 -121 75 -114T83 -97V580H191V-100Q191 -136 174 -165T127 -212T61 -230H-187ZM83 662V662V770H191V662H83Z" />
<glyph unicode="k" horiz-adv-x="646" d="M54 0V0V770H162V344H292L509 580H633V560L388 290L633 20V0H509L292 236H162V0H54Z" />
<glyph unicode="l" horiz-adv-x="315" d="M182 0Q146 0 117 18T70 65T52 130V770H160V133Q160 123 167 116T185 108H290V0H182V0Z" />
<glyph unicode="m" horiz-adv-x="978" d="M54 0V0V580H795Q832 580 861 562T907 515T925 450V0H818V447Q818 457 811 464T793 472H570Q559 472 552 465T545 447V0H436V447Q436 457 429 464T411 472H187Q177 472 170 465T163 447V0H54Z" />
<glyph unicode="n" horiz-adv-x="696" d="M54 0V0V580H514Q550 580 579 562T626 515T644 450V0H536V447Q536 457 529 464T511 472H187Q177 472 170 465T162 447V0H54Z" />
<glyph unicode="o" horiz-adv-x="692" d="M181 0Q145 0 116 18T69 65T51 130V450Q51 486 69 515T116 562T181 580H511Q547 580 576 563T623 515T641 450V130Q641 94 624 65T577 18T511 0H181V0ZM184 108H508Q518 108 525 115T532 133V447Q532 457 525 464T508
472H184Q174 472 167 465T159 447V133Q159 123 166 116T184 108Z" />
<glyph unicode="p" horiz-adv-x="664" d="M54 -230V-230V580H514Q550 580 579 562T626 515T644 450V130Q644 94 627 65T580 18T514 0H162V-230H54ZM187 108H511Q521 108 528 115T536 133V447Q536 457 529 464T511 472H187Q177 472 170 465T162 447V133Q162 123
169 116T187 108Z" />
<glyph unicode="q" horiz-adv-x="664" d="M502 -230V-230V0H150Q114 0 85 17T38 65T20 130V450Q20 486 37 515T84 562T150 580H610V-230H502ZM154 108H478Q488 108 495 115T502 133V447Q502 457 495 464T478 472H154Q144 472 137 465T129 447V133Q129 123 136
116T154 108Z" />
<glyph unicode="r" horiz-adv-x="517" d="M52 0V0V450Q52 486 70 515T117 562T182 580H506V472H185Q175 472 168 465T160 447V0H52Z" />
<glyph unicode="s" horiz-adv-x="686" d="M178 0Q142 0 113 18T66 65T48 130V145H156V133Q156 123 163 116T181 108H505Q515 108 522 115T529 133V211Q529 221 522 228T505 236H178Q142 236 113 253T66 300T48 366V450Q48 486 66 515T113 562T178 580H508Q544
580 573 562T620 515T638 450V435H529V447Q529 457 522 464T505 472H181Q171 472 164 465T156 447V369Q156 359 163 352T181 344H508Q544 344 573 327T620 280T638 214V130Q638 94 621 65T574 18T508 0H178V0Z" />
<glyph unicode="t" horiz-adv-x="425" d="M183 0Q147 0 118 18T71 65T53 130V763H161V580H399V472H161V133Q161 123 168 116T186 108H399V0H183V0Z" />
<glyph unicode="u" horiz-adv-x="695" d="M183 0Q147 0 118 18T71 65T53 130V580H161V133Q161 123 168 116T186 108H510Q520 108 527 115T535 133V580H643V130Q643 94 626 65T579 18T513 0H183V0Z" />
<glyph unicode="v" horiz-adv-x="790" d="M341 0V0L21 580H146L395 122L644 580H769L449 0H341Z" />
<glyph unicode="w" horiz-adv-x="1064" d="M263 0V0L35 580H150L307 196L474 580H597L774 195L921 580H1036L818 0H730L536 430L351 0H263Z" />
<glyph unicode="x" horiz-adv-x="692" d="M46 0V0V19L273 295L46 561V580H172L343 379L515 580H640V561L414 295L641 19V0H515L343 211L172 0H46Z" />
<glyph unicode="y" horiz-adv-x="685" d="M144 -222V-222V-113H499Q509 -113 516 -106T524 -88V0H172Q137 0 107 17T60 65T42 130V578H150V133Q150 123 157 116T175 108H499Q509 108 516 115T524 133V578H632V-92Q632 -128 615 -157T568 -204T502 -222H144Z" />
<glyph unicode="z" horiz-adv-x="698" d="M54 0V0V128L500 472H54V580H644V452L198 108H644V0H54Z" />
<glyph unicode="{" horiz-adv-x="289" d="M198 0Q162 0 133 17T85 65T67 130V283L23 309V418L67 442V590Q67 626 85 655T132 702T198 720H240V611H200Q190 611 183 604T175 587V419L106 363L175 306V133Q175 123 182 116T200 108H240V0H198V0Z" />
<glyph unicode="|" horiz-adv-x="214" d="M54 -109V-109V828H162V-109H54Z" />
<glyph unicode="}" horiz-adv-x="289" d="M51 0V0V108H91Q101 108 108 115T115 133V305L185 362L115 418V587Q115 597 108 604T91 611H51V720H93Q129 720 158 703T205 656T223 590V442L267 416V309L223 282V130Q223 94 206 65T159 18T93 0H51Z" />
<glyph unicode="~" horiz-adv-x="404" d="M298 232Q263 232 199 266Q135 300 96 300Q57 300 24 280V352Q60 366 98 366Q137 366 207 333Q276 298 301 298Q333 298 376 322V250Q332 232 298 232V232Z" />
<glyph unicode="&#xa0;" horiz-adv-x="290" />
<glyph unicode="&#xa1;" horiz-adv-x="210" d="M53 0V0V520H161V0H53ZM53 611V611V720H161V611H53Z" />
<glyph unicode="&#xa2;" horiz-adv-x="636" d="M288 -109V-109V0H163Q127 0 98 18T51 65T33 130V460Q33 496 50 525T97 573T163 591H288V718H397V591H621V481H397V108H621V0H397V-109H288ZM166 108H288V481H166Q156 481 149 474T141 457V133Q141 123 148 116T166 108Z" />
<glyph unicode="&#xa3;" horiz-adv-x="734" d="M39 0V0V108H139V306H39V414H139V590Q139 626 156 655T203 702T269 720H557Q592 720 621 703T669 656T687 590V560H578V590Q578 600 571 607T553 615H272Q262 615 255 608T247 590V414H581V306H247V108H687V0H39Z" />
<glyph unicode="&#xa8;" horiz-adv-x="503" d="M294 640V640V748H403V640H294ZM100 640V640V748H208V640H100Z" />
<glyph unicode="&#xaf;" horiz-adv-x="500" d="M87 638V638V720H411V638H87Z" />
<glyph unicode="&#xb0;" horiz-adv-x="439" d="M176 380Q139 380 110 397T63 444T45 510V590Q45 626 62 655T110 702T176 720H265Q301 720 330 703T377 656T395 590V510Q395 474 378 445T331 398T265 380H176V380ZM158 468H283Q293 468 300 475T307 493V607Q307
617 300 624T283 631H158Q148 631 141 624T133 607V493Q133 483 140 476T158 468Z" />
<glyph unicode="&#xb4;" horiz-adv-x="213" d="M48 640V640L89 802H197L157 640H48Z" />
<glyph unicode="&#xb6;" horiz-adv-x="833" d="M455 0V0V257H186Q150 257 121 274T74 321T56 387V584Q56 619 73 649T120 697T186 715H783V0H675V257H563V0H455ZM189 365H455V606H189Q179 606 172 599T164 581V390Q164 380 171 373T189 365ZM563 365V365H675V606H563V365Z"
/>
<glyph unicode="&#xb8;" horiz-adv-x="213" d="M31 -145L75 16H183L140 -145H31Z" />
<glyph unicode="&#xbf;" horiz-adv-x="675" d="M149 0Q113 0 84 18T37 65T19 130V314Q19 350 36 379T83 426T149 444H405Q415 444 422 451T430 469V527H538V466Q538 430 521 401T474 353T408 335H152Q142 335 135 328T127 311V133Q127 123 134 116T152 108H650L651
0H149V0ZM430 611V611V720H538V611H430Z" />
<glyph unicode="&#xc0;" horiz-adv-x="836" d="M58 0V590Q58 626 75 655T122 702T188 720H647Q683 720 713 703T760 656T778 590V0H669V252H166V0H58V0ZM166 360H669V587Q669 597 662 604T644 612H191Q181 612 174 605T166 587V360V360ZM371 780V780L331 942H439L480
780H371Z" />
<glyph unicode="&#xc1;" horiz-adv-x="836" d="M58 0V590Q58 626 75 655T122 702T188 720H647Q683 720 713 703T760 656T778 590V0H669V252H166V0H58V0ZM166 360H669V587Q669 597 662 604T644 612H191Q181 612 174 605T166 587V360V360ZM357 780V780L398 942H506L466
780H357Z" />
<glyph unicode="&#xc2;" horiz-adv-x="836" d="M58 0V590Q58 626 75 655T122 702T188 720H647Q683 720 713 703T760 656T778 590V0H669V252H166V0H58V0ZM166 360H669V587Q669 597 662 604T644 612H191Q181 612 174 605T166 587V360V360ZM283 799V799L375 953H462L553
799H465L418 882L371 799H283Z" />
<glyph unicode="&#xc3;" horiz-adv-x="836" d="M58 0V590Q58 626 75 655T122 702T188 720H647Q683 720 713 703T760 656T778 590V0H669V252H166V0H58V0ZM166 360H669V587Q669 597 662 604T644 612H191Q181 612 174 605T166 587V360V360ZM519 808Q465 808 401 852Q340
895 294 895H241V979H311Q357 979 418 935Q479 891 527 891H595V808H519V808Z" />
<glyph unicode="&#xc4;" horiz-adv-x="836" d="M58 0V590Q58 626 75 655T122 702T188 720H647Q683 720 713 703T760 656T778 590V0H669V252H166V0H58V0ZM166 360H669V587Q669 597 662 604T644 612H191Q181 612 174 605T166 587V360V360ZM461 780V780V888H570V780H461ZM267
780V780V888H375V780H267Z" />
<glyph unicode="&#xc5;" horiz-adv-x="836" d="M58 0V590Q58 626 75 655T122 702T188 720H647Q683 720 713 703T760 656T778 590V0H669V252H166V0H58V0ZM166 360H669V587Q669 597 662 604T644 612H191Q181 612 174 605T166 587V360V360ZM391 793Q366 793 348 811T329
855V907Q329 932 347 950T391 968H445Q471 968 489 950T507 907V855Q507 829 489 811T445 793H391ZM388 844H448Q451 844 452 846T454 850V908Q454 911 453 912T448 914H388Q385 914 384 913T382 908V850Q382 848 383 846T388 844Z" />
<glyph unicode="&#xc6;" horiz-adv-x="1375" d="M54 0V0V590Q54 626 71 655T119 702T184 720H1326V612H774V415H1217V305H774V108H1326V0H666V252H163V0H54ZM163 360V360H666V587Q666 597 659 604T641 612H188Q177 612 170 605T163 587V360Z" />
<glyph unicode="&#xc7;" horiz-adv-x="822" d="M186 0Q150 0 121 17T74 64T56 130V590Q56 626 73 655T120 702T186 720H774V612H201Q185 612 175 602T164 575V145Q164 129 174 119T201 108H774V0H186ZM352 -145L396 16H504L461 -145H352Z" />
<glyph unicode="&#xc8;" horiz-adv-x="766" d="M58 0V720H718V612H167V415H610V305H167V108H718V0H58ZM351 780V780L311 942H419L460 780H351Z" />
<glyph unicode="&#xc9;" horiz-adv-x="766" d="M58 0V720H718V612H167V415H610V305H167V108H718V0H58ZM337 780V780L378 942H486L446 780H337Z" />
<glyph unicode="&#xca;" horiz-adv-x="766" d="M58 0V720H718V612H167V415H610V305H167V108H718V0H58ZM263 799V799L355 953H442L533 799H445L398 882L351 799H263Z" />
<glyph unicode="&#xcb;" horiz-adv-x="766" d="M58 0V720H718V612H167V415H610V305H167V108H718V0H58ZM441 780V780V888H550V780H441ZM247 780V780V888H355V780H247Z" />
<glyph unicode="&#xcc;" horiz-adv-x="214" d="M53 0V720H161V0H53ZM62 780V780L22 942H130L171 780H62Z" />
<glyph unicode="&#xcd;" horiz-adv-x="214" d="M53 0V720H161V0H53ZM48 780V780L89 942H197L157 780H48Z" />
<glyph unicode="&#xce;" horiz-adv-x="214" d="M53 0V720H161V0H53ZM-26 799V799L66 953H153L244 799H156L109 882L62 799H-26Z" />
<glyph unicode="&#xcf;" horiz-adv-x="214" d="M53 0V720H161V0H53ZM152 780V780V888H261V780H152ZM-42 780V780V888H66V780H-42Z" />
<glyph unicode="&#xd1;" horiz-adv-x="832" d="M56 0V720H185L667 146V720H776V0H647L164 575V0H56ZM504 808Q450 808 386 852Q325 895 279 895H226V979H296Q342 979 403 935Q464 891 512 891H580V808H504V808Z" />
<glyph unicode="&#xd2;" horiz-adv-x="828" d="M184 0Q148 0 119 17T72 64T54 130V590Q54 626 71 655T118 702T184 720H644Q679 720 709 703T756 656T774 590V130Q774 94 757 65T709 18T644 0H184ZM187 108H640Q651 108 658 115T665 133V587Q665 597 658 604T640
612H187Q177 612 170 605T162 587V133Q162 123 169 116T187 108ZM367 780V780L327 942H435L476 780H367Z" />
<glyph unicode="&#xd3;" horiz-adv-x="828" d="M184 0Q148 0 119 17T72 64T54 130V590Q54 626 71 655T118 702T184 720H644Q679 720 709 703T756 656T774 590V130Q774 94 757 65T709 18T644 0H184ZM187 108H640Q651 108 658 115T665 133V587Q665 597 658 604T640
612H187Q177 612 170 605T162 587V133Q162 123 169 116T187 108ZM353 780V780L394 942H502L462 780H353Z" />
<glyph unicode="&#xd4;" horiz-adv-x="828" d="M184 0Q148 0 119 17T72 64T54 130V590Q54 626 71 655T118 702T184 720H644Q679 720 709 703T756 656T774 590V130Q774 94 757 65T709 18T644 0H184ZM187 108H640Q651 108 658 115T665 133V587Q665 597 658 604T640
612H187Q177 612 170 605T162 587V133Q162 123 169 116T187 108ZM279 799V799L371 953H458L549 799H461L414 882L367 799H279Z" />
<glyph unicode="&#xd5;" horiz-adv-x="828" d="M184 0Q148 0 119 17T72 64T54 130V590Q54 626 71 655T118 702T184 720H644Q679 720 709 703T756 656T774 590V130Q774 94 757 65T709 18T644 0H184ZM187 108H640Q651 108 658 115T665 133V587Q665 597 658 604T640
612H187Q177 612 170 605T162 587V133Q162 123 169 116T187 108ZM515 808Q461 808 397 852Q336 895 290 895H237V979H307Q353 979 414 935Q475 891 523 891H591V808H515V808Z" />
<glyph unicode="&#xd6;" horiz-adv-x="828" d="M184 0Q148 0 119 17T72 64T54 130V590Q54 626 71 655T118 702T184 720H644Q679 720 709 703T756 656T774 590V130Q774 94 757 65T709 18T644 0H184ZM187 108H640Q651 108 658 115T665 133V587Q665 597 658 604T640
612H187Q177 612 170 605T162 587V133Q162 123 169 116T187 108ZM457 780V780V888H566V780H457ZM263 780V780V888H371V780H263Z" />
<glyph unicode="&#xd7;" horiz-adv-x="546" d="M54 90V90L57 114L201 301L55 489L53 510H179L271 384L363 510H489L486 488L341 301L485 113L489 90H363L271 216L179 90H54Z" />
<glyph unicode="&#xd9;" horiz-adv-x="828" d="M184 0Q148 0 119 17T72 64T54 130V720H162V133Q162 123 169 116T187 108H640Q651 108 658 115T665 133V720H774V130Q774 94 757 65T709 18T644 0H184V0ZM367 780V780L327 942H435L476 780H367Z" />
<glyph unicode="&#xda;" horiz-adv-x="828" d="M184 0Q148 0 119 17T72 64T54 130V720H162V133Q162 123 169 116T187 108H640Q651 108 658 115T665 133V720H774V130Q774 94 757 65T709 18T644 0H184V0ZM353 780V780L394 942H502L462 780H353Z" />
<glyph unicode="&#xdb;" horiz-adv-x="828" d="M184 0Q148 0 119 17T72 64T54 130V720H162V133Q162 123 169 116T187 108H640Q651 108 658 115T665 133V720H774V130Q774 94 757 65T709 18T644 0H184V0ZM279 799V799L371 953H458L549 799H461L414 882L367 799H279Z" />
<glyph unicode="&#xdc;" horiz-adv-x="828" d="M184 0Q148 0 119 17T72 64T54 130V720H162V133Q162 123 169 116T187 108H640Q651 108 658 115T665 133V720H774V130Q774 94 757 65T709 18T644 0H184V0ZM457 780V780V888H566V780H457ZM263 780V780V888H371V780H263Z" />
<glyph unicode="&#xdd;" horiz-adv-x="806" d="M349 0V0V270L17 720H144L403 393L661 720H789L457 270V0H349ZM341 780V780L382 942H490L450 780H341Z" />
<glyph unicode="&#xdf;" horiz-adv-x="833" d="M57 0V0V590Q57 626 74 655T121 702T187 720H647Q677 720 704 705T751 666T777 612V446Q777 407 751 370Q777 334 777 294V130Q777 94 759 65T712 18T647 0H280V108H644Q654 108 661 115T669 133V291Q669 301 662
308T644 315H280V413H644Q654 413 661 420T669 438V586Q669 596 662 603T644 610H190Q180 610 173 603T165 586V0H57Z" />
<glyph unicode="&#xe0;" horiz-adv-x="694" d="M182 0Q146 0 117 18T70 65T52 130V344H533V447Q533 457 526 464T509 472H52V580H512Q548 580 577 563T624 515T642 450V0H182ZM185 108H533V243H160V133Q160 123 167 116T185 108ZM320 640V640L280 802H388L429 640H320Z" />
<glyph unicode="&#xe1;" horiz-adv-x="694" d="M182 0Q146 0 117 18T70 65T52 130V344H533V447Q533 457 526 464T509 472H52V580H512Q548 580 577 563T624 515T642 450V0H182ZM185 108H533V243H160V133Q160 123 167 116T185 108ZM306 640V640L347 802H455L415 640H306Z" />
<glyph unicode="&#xe2;" horiz-adv-x="694" d="M182 0Q146 0 117 18T70 65T52 130V344H533V447Q533 457 526 464T509 472H52V580H512Q548 580 577 563T624 515T642 450V0H182ZM185 108H533V243H160V133Q160 123 167 116T185 108ZM232 659V659L324 813H411L502
659H414L367 742L320 659H232Z" />
<glyph unicode="&#xe3;" horiz-adv-x="694" d="M182 0Q146 0 117 18T70 65T52 130V344H533V447Q533 457 526 464T509 472H52V580H512Q548 580 577 563T624 515T642 450V0H182ZM185 108H533V243H160V133Q160 123 167 116T185 108ZM468 668Q414 668 350 712Q289
755 243 755H190V839H260Q306 839 367 795Q428 751 476 751H544V668H468V668Z" />
<glyph unicode="&#xe4;" horiz-adv-x="694" d="M182 0Q146 0 117 18T70 65T52 130V344H533V447Q533 457 526 464T509 472H52V580H512Q548 580 577 563T624 515T642 450V0H182ZM185 108H533V243H160V133Q160 123 167 116T185 108ZM410 640V640V748H519V640H410ZM216
640V640V748H324V640H216Z" />
<glyph unicode="&#xe5;" horiz-adv-x="694" d="M182 0Q146 0 117 18T70 65T52 130V344H533V447Q533 457 526 464T509 472H52V580H512Q548 580 577 563T624 515T642 450V0H182ZM185 108H533V243H160V133Q160 123 167 116T185 108ZM340 653Q315 653 297 671T278
715V767Q278 792 296 810T340 828H394Q420 828 438 810T456 767V715Q456 689 438 671T394 653H340ZM337 704H397Q400 704 401 706T403 710V768Q403 771 402 772T397 774H337Q334 774 333 773T331 768V710Q331 708 332 706T337 704Z" />
<glyph unicode="&#xe6;" horiz-adv-x="1178" d="M182 0Q146 0 117 18T70 65T53 130V344H534V447Q534 457 527 464T509 472H53V580H994Q1031 580 1060 562T1106 515T1124 450V236H643V130Q643 121 650 115T667 108H1124V0H182ZM185 108H534V243H161V133Q161 123
168 116T185 108ZM643 337H1016V447Q1016 457 1009 464T991 472H667Q657 472 650 465T643 447V337Z" />
<glyph unicode="&#xe7;" horiz-adv-x="695" d="M181 0Q145 0 116 18T69 65T51 130V450Q51 486 69 515T116 562T181 580H639V472H184Q174 472 167 465T159 447V133Q159 123 166 116T184 108H641V0H181V0ZM531 -145L575 16H683L640 -145H531Z" />
<glyph unicode="&#xe8;" horiz-adv-x="692" d="M181 0Q145 0 116 18T69 65T51 130V450Q51 486 69 515T116 562T181 580H511Q547 580 576 563T623 515T641 450V236H159V133Q159 123 166 116T184 108H641V0H181V0ZM159 337H532V447Q532 457 525 464T508 472H184Q174
472 167 465T159 447V337ZM299 640V640L259 802H367L408 640H299Z" />
<glyph unicode="&#xe9;" horiz-adv-x="692" d="M181 0Q145 0 116 18T69 65T51 130V450Q51 486 69 515T116 562T181 580H511Q547 580 576 563T623 515T641 450V236H159V133Q159 123 166 116T184 108H641V0H181V0ZM159 337H532V447Q532 457 525 464T508 472H184Q174
472 167 465T159 447V337ZM285 640V640L326 802H434L394 640H285Z" />
<glyph unicode="&#xea;" horiz-adv-x="692" d="M181 0Q145 0 116 18T69 65T51 130V450Q51 486 69 515T116 562T181 580H511Q547 580 576 563T623 515T641 450V236H159V133Q159 123 166 116T184 108H641V0H181V0ZM159 337H532V447Q532 457 525 464T508 472H184Q174
472 167 465T159 447V337ZM212 659V659L304 813H391L482 659H394L347 742L300 659H212Z" />
<glyph unicode="&#xeb;" horiz-adv-x="692" d="M181 0Q145 0 116 18T69 65T51 130V450Q51 486 69 515T116 562T181 580H511Q547 580 576 563T623 515T641 450V236H159V133Q159 123 166 116T184 108H641V0H181V0ZM159 337H532V447Q532 457 525 464T508 472H184Q174
472 167 465T159 447V337ZM389 640V640V748H498V640H389ZM195 640V640V748H303V640H195Z" />
<glyph unicode="&#xec;" horiz-adv-x="214" d="M53 0V0V580H161V0H53ZM60 640V640L20 802H128L169 640H60Z" />
<glyph unicode="&#xed;" horiz-adv-x="214" d="M53 0V0V580H161V0H53ZM46 640V640L87 802H195L155 640H46Z" />
<glyph unicode="&#xee;" horiz-adv-x="214" d="M53 0V0V580H161V0H53ZM-28 659V659L64 813H151L242 659H154L107 742L60 659H-28Z" />
<glyph unicode="&#xef;" horiz-adv-x="214" d="M53 0V0V580H161V0H53ZM150 640V640V748H259V640H150ZM-44 640V640V748H64V640H-44Z" />
<glyph unicode="&#xf1;" horiz-adv-x="696" d="M54 0V0V580H514Q550 580 579 562T626 515T644 450V0H536V447Q536 457 529 464T511 472H187Q177 472 170 465T162 447V0H54ZM443 668Q389 668 325 712Q264 755 218 755H165V839H235Q281 839 342 795Q403 751 451
751H519V668H443V668Z" />
<glyph unicode="&#xf2;" horiz-adv-x="692" d="M181 0Q145 0 116 18T69 65T51 130V450Q51 486 69 515T116 562T181 580H511Q547 580 576 563T623 515T641 450V130Q641 94 624 65T577 18T511 0H181V0ZM184 108H508Q518 108 525 115T532 133V447Q532 457 525 464T508
472H184Q174 472 167 465T159 447V133Q159 123 166 116T184 108ZM298 638V638L258 800H366L407 638H298Z" />
<glyph unicode="&#xf3;" horiz-adv-x="692" d="M181 0Q145 0 116 18T69 65T51 130V450Q51 486 69 515T116 562T181 580H511Q547 580 576 563T623 515T641 450V130Q641 94 624 65T577 18T511 0H181V0ZM184 108H508Q518 108 525 115T532 133V447Q532 457 525 464T508
472H184Q174 472 167 465T159 447V133Q159 123 166 116T184 108ZM284 638V638L325 800H433L393 638H284Z" />
<glyph unicode="&#xf4;" horiz-adv-x="692" d="M181 0Q145 0 116 18T69 65T51 130V450Q51 486 69 515T116 562T181 580H511Q547 580 576 563T623 515T641 450V130Q641 94 624 65T577 18T511 0H181V0ZM184 108H508Q518 108 525 115T532 133V447Q532 457 525 464T508
472H184Q174 472 167 465T159 447V133Q159 123 166 116T184 108ZM210 657V657L302 811H389L480 657H392L345 740L298 657H210Z" />
<glyph unicode="&#xf5;" horiz-adv-x="692" d="M181 0Q145 0 116 18T69 65T51 130V450Q51 486 69 515T116 562T181 580H511Q547 580 576 563T623 515T641 450V130Q641 94 624 65T577 18T511 0H181V0ZM184 108H508Q518 108 525 115T532 133V447Q532 457 525 464T508
472H184Q174 472 167 465T159 447V133Q159 123 166 116T184 108ZM446 666Q392 666 328 710Q267 753 221 753H168V837H238Q284 837 345 793Q406 749 454 749H522V666H446V666Z" />
<glyph unicode="&#xf6;" horiz-adv-x="692" d="M181 0Q145 0 116 18T69 65T51 130V450Q51 486 69 515T116 562T181 580H511Q547 580 576 563T623 515T641 450V130Q641 94 624 65T577 18T511 0H181V0ZM184 108H508Q518 108 525 115T532 133V447Q532 457 525 464T508
472H184Q174 472 167 465T159 447V133Q159 123 166 116T184 108ZM388 638V638V746H497V638H388ZM194 638V638V746H302V638H194Z" />
<glyph unicode="&#xf7;" horiz-adv-x="512" d="M14 250V250V357H494V250H14ZM203 1V1V109H311V1H203ZM203 484V484V593H311V484H203Z" />
<glyph unicode="&#xf9;" horiz-adv-x="695" d="M183 0Q147 0 118 18T71 65T53 130V580H161V133Q161 123 168 116T186 108H510Q520 108 527 115T535 133V580H643V130Q643 94 626 65T579 18T513 0H183V0ZM301 640V640L261 802H369L410 640H301Z" />
<glyph unicode="&#xfa;" horiz-adv-x="695" d="M183 0Q147 0 118 18T71 65T53 130V580H161V133Q161 123 168 116T186 108H510Q520 108 527 115T535 133V580H643V130Q643 94 626 65T579 18T513 0H183V0ZM287 640V640L328 802H436L396 640H287Z" />
<glyph unicode="&#xfb;" horiz-adv-x="695" d="M183 0Q147 0 118 18T71 65T53 130V580H161V133Q161 123 168 116T186 108H510Q520 108 527 115T535 133V580H643V130Q643 94 626 65T579 18T513 0H183V0ZM214 659V659L306 813H393L484 659H396L349 742L302 659H214Z" />
<glyph unicode="&#xfc;" horiz-adv-x="695" d="M183 0Q147 0 118 18T71 65T53 130V580H161V133Q161 123 168 116T186 108H510Q520 108 527 115T535 133V580H643V130Q643 94 626 65T579 18T513 0H183V0ZM391 640V640V748H500V640H391ZM197 640V640V748H305V640H197Z" />
<glyph unicode="&#xfd;" horiz-adv-x="685" d="M144 -222V-222V-113H499Q509 -113 516 -106T524 -88V0H172Q137 0 107 17T60 65T42 130V578H150V133Q150 123 157 116T175 108H499Q509 108 516 115T524 133V578H632V-92Q632 -128 615 -157T568 -204T502 -222H144ZM276
640V640L317 802H425L385 640H276Z" />
<glyph unicode="&#xff;" horiz-adv-x="685" d="M144 -222V-222V-113H499Q509 -113 516 -106T524 -88V0H172Q137 0 107 17T60 65T42 130V578H150V133Q150 123 157 116T175 108H499Q509 108 516 115T524 133V578H632V-92Q632 -128 615 -157T568 -204T502 -222H144ZM380
640V640V748H489V640H380ZM186 640V640V748H294V640H186Z" />
<glyph unicode="&#x2013;" horiz-adv-x="708" d="M54 241V241V349H654V241H54Z" />
<glyph unicode="&#x2014;" horiz-adv-x="822" d="M54 241V241V349H768V241H54Z" />
<glyph unicode="&#x2018;" horiz-adv-x="194" d="M33 479V479V587Q33 618 47 644T86 689T142 715V479H33Z" />
<glyph unicode="&#x2019;" horiz-adv-x="192" d="M54 480V480V716H162V608Q162 577 148 551T110 506T54 480Z" />
<glyph unicode="&#x201c;" horiz-adv-x="401" d="M46 479V479V587Q46 618 60 644T99 688T155 714V479H46ZM240 478V478V586Q240 617 254 643T292 688T348 714V478H240Z" />
<glyph unicode="&#x201d;" horiz-adv-x="401" d="M54 480V480V716H163V608Q163 577 149 551T110 506T54 480ZM247 480V480V716H355V608Q355 577 341 551T303 506T247 480Z" />
<glyph unicode="&#x2022;" horiz-adv-x="371" d="M173 308Q131 308 131 350V370Q131 412 173 412H196Q239 412 239 370V350Q239 308 196 308H173V308Z" />
</font>
</defs>
</svg>
