<svg xmlns="http://www.w3.org/2000/svg" viewBox="0 0 595.28 297.64"><defs><style>.a{fill:#181716;opacity:0.31;}.b{fill:#20032a;}.c{fill:#d10369;}.d{fill:#494546;}.e{fill:#232322;}.f{fill:#3a3a39;}.g{fill:#2c053a;}.h{fill:#e10880;}.i{fill:#5e5a5c;}.j{fill:#737172;}.k{fill:#ee7400;}.l{fill:#3d7c2f;}.m{fill:#b26102;}.n{fill:#30ac5a;}.o{fill:#069951;}</style></defs><ellipse class="a" cx="90.51" cy="257.73" rx="73.99" ry="28.34"/><path class="b" d="M47.36,174.81c-1.21,8.91-2.8,21.15-4.42,35.76-3.89,35.09-2.93,38.31-1.68,40.76,13.45,26.24,91.41,23.49,102.85-2.64,2.1-4.81.76-7.69-2.4-35.48-1.77-15.52-2.91-28.32-3.61-37"/><path class="c" d="M45.38,163.24a17.64,17.64,0,0,0-.21,10.9,166.72,166.72,0,0,0,46.44,7.66,166.46,166.46,0,0,0,48.9-6.23c1.5-4.6,2.26-10,.05-14.84C129.81,137.13,54.52,139.47,45.38,163.24Z"/><path class="d" d="M92.17,145.18c19.77-.6,42.13,4.09,47.53,15.94.08.17.14.34.21.5.56-.29,1.14-.56,1.72-.81-.06-.16-.13-.32-.2-.47-2.64-5.79-9.14-10.44-18.8-13.45-8.56-2.67-19.4-3.95-30.51-3.61s-21.65,2.24-29.95,5.37c-8.71,3.28-14.62,7.79-17.18,13.1.57.28,1.12.57,1.71.82C52.08,151.36,73.18,145.75,92.17,145.18Z"/><path class="b" d="M44.69,115c-3.09,1-18,5.73-20.5,16.9C21.36,144.4,35.8,156.43,38,158.23c11.29,9.12,29.56,9.07,65.63,8.59,18.44-.25,32.11-1.33,46-9.35,4.63-2.67,13.73-8.05,13.3-14.39-.38-5.63-8.12-9.29-19.29-14.58a106.56,106.56,0,0,0-26.84-9.27c-12.75-2.59-14.08-.76-34-2.4C59,114.88,54.9,111.78,44.69,115Z"/><path class="e" d="M89.69,151.6c21.59,1.25,45-5.18,44.95-10.68s-24-10.2-41.34-10.95c-18.54-.8-43,2.26-43.47,7.84C49.41,143.09,70.47,150.48,89.69,151.6Z"/><path class="f" d="M95.3,152.71c-1.89,0-3.78-.06-5.67-.16-16.4-1-34.89-6.51-39.57-11.88a4,4,0,0,1-1.17-2.93c.25-3.13,5.55-5.54,15.74-7.18A151.3,151.3,0,0,1,93.34,129a155.85,155.85,0,0,1,27.34,3.7,52.34,52.34,0,0,1,10.34,3.4c3.06,1.49,4.55,3.06,4.57,4.79a4.18,4.18,0,0,1-1.53,3C129.33,148.39,112.52,152.71,95.3,152.71Zm-5.56-2.06c18.29,1.06,38.14-3.5,43-8.14a2.61,2.61,0,0,0,.93-1.58c0-1.53-3.55-4-13.45-6.36a153.64,153.64,0,0,0-27-3.65,148.81,148.81,0,0,0-28.32,1.51c-10.26,1.65-14,4-14.16,5.46a2.39,2.39,0,0,0,.72,1.53C55.39,143.9,72.58,149.65,89.74,150.65Z"/><path class="g" d="M54,176.66l16.82,3.66q-3.5,43-7,86.06A67.09,67.09,0,0,1,46.61,258Z"/><path class="g" d="M116.38,180.29q.81,32.19,1.63,64.37,1.8-32.26,3.61-64.54Z"/><path class="f" d="M90,270.65a96.44,96.44,0,0,1-28.87-4.08c-10.28-3.31-17.44-8.43-20.71-14.81-.71-1.38-1.29-3-1.2-8.58.1-6.16,1-16.56,2.78-32.71,1.32-11.94,2.81-24,4.42-35.79a1,1,0,0,1,1.89.26c-1.62,11.79-3.1,23.81-4.43,35.74-3.69,33.26-3,37.77-1.77,40.21,3,5.93,9.81,10.72,19.6,13.88,9,2.88,20.24,4.28,31.76,3.93s22.57-2.4,31.32-5.78c9.49-3.67,15.87-8.72,18.45-14.61,1.44-3.3,1.13-5.77-.37-17.66-.57-4.44-1.27-10-2.1-17.33-1.41-12.34-2.62-24.79-3.62-37a1,1,0,0,1,.87-1,.94.94,0,0,1,1,.87c1,12.19,2.21,24.62,3.61,36.94.84,7.35,1.54,12.87,2.1,17.31,1.56,12.32,1.88,14.88.23,18.66-2.79,6.36-9.54,11.77-19.51,15.62-8.94,3.45-20.28,5.55-31.94,5.91C92.35,270.63,91.17,270.65,90,270.65Z"/><path class="f" d="M63.66,121.59a39.29,39.29,0,0,0-8.11-.16,31.44,31.44,0,0,0-4,.58,34.75,34.75,0,0,0-3.89,1,46.61,46.61,0,0,0-7.45,3,20.91,20.91,0,0,0-3.3,2.13A9.89,9.89,0,0,0,34.47,131a5.85,5.85,0,0,0-.62,1.71,7.42,7.42,0,0,0-.12,1.83,10,10,0,0,0,.31,1.87l.13.46c0,.15.1.3.16.45l.16.46.19.44a18.67,18.67,0,0,0,2,3.4,29.73,29.73,0,0,0,2.56,3.05,36.39,36.39,0,0,0,3,2.73c1,.86,2.11,1.67,3.23,2.43s2.26,1.49,3.43,2.17,2.38,1.32,3.59,1.94c-1.28-.47-2.54-1-3.79-1.56s-2.45-1.23-3.63-1.92a36.15,36.15,0,0,1-6.62-4.95,25.69,25.69,0,0,1-2.8-3.09,19,19,0,0,1-2.21-3.61l-.22-.49-.19-.5c-.14-.33-.23-.68-.34-1a11.92,11.92,0,0,1-.39-2.16,9.3,9.3,0,0,1,.14-2.23,7.57,7.57,0,0,1,.76-2.12A11.23,11.23,0,0,1,36,127a20.65,20.65,0,0,1,3.58-2.25,36.76,36.76,0,0,1,3.84-1.62c1.3-.47,2.61-.87,3.93-1.24a32.15,32.15,0,0,1,16.33-.31Z"/><path class="f" d="M58.37,126.63A25,25,0,0,0,48,127.77a32.65,32.65,0,0,0-4.83,2A13.94,13.94,0,0,0,41,131.14a6.33,6.33,0,0,0-1.54,1.79,5.09,5.09,0,0,0,.14,4.51,14.71,14.71,0,0,0,2.89,4.18,24.77,24.77,0,0,0,1.89,1.8c.66.57,1.36,1.11,2.08,1.62s1.46,1,2.21,1.47,1.54.9,2.33,1.33c-.86-.28-1.69-.6-2.52-1s-1.63-.77-2.42-1.21a23.73,23.73,0,0,1-4.41-3.2,17.28,17.28,0,0,1-1.88-2,13,13,0,0,1-1.49-2.4,8.85,8.85,0,0,1-.51-1.36,7.83,7.83,0,0,1-.26-1.46,5.65,5.65,0,0,1,.09-1.53,5.3,5.3,0,0,1,.52-1.46A7.54,7.54,0,0,1,40.07,130a13.59,13.59,0,0,1,2.39-1.49,27.65,27.65,0,0,1,5.15-1.86,21.16,21.16,0,0,1,5.41-.72A20,20,0,0,1,58.37,126.63Z"/><path class="f" d="M129,128.66a60.37,60.37,0,0,1,7.76,2.16,43,43,0,0,1,7.4,3.33,19.57,19.57,0,0,1,3.36,2.42,10.78,10.78,0,0,1,1.44,1.57,7.25,7.25,0,0,1,1.07,1.93,5.41,5.41,0,0,1,.33,2.26,7,7,0,0,1-.56,2.19,11.71,11.71,0,0,1-2.53,3.45,27.46,27.46,0,0,1-6.82,4.6,49.81,49.81,0,0,1-7.55,3c-1.29.41-2.59.78-3.9,1.1-.65.15-1.31.32-2,.45l-1,.22-1,.19a77.06,77.06,0,0,1-8,1.09c2.63-.55,5.24-1.12,7.82-1.82l1-.25,1-.27,1.92-.57,1.9-.61c.63-.21,1.26-.42,1.88-.65l.94-.34.92-.36.92-.37c.31-.13.62-.25.92-.39,1.22-.52,2.41-1.08,3.58-1.69a34.51,34.51,0,0,0,3.38-2,21,21,0,0,0,3-2.41,10.13,10.13,0,0,0,2.22-3,5.47,5.47,0,0,0,.46-1.68,4.26,4.26,0,0,0-.21-1.69,7.8,7.8,0,0,0-2.07-3,17.74,17.74,0,0,0-1.47-1.26c-.51-.39-1-.77-1.6-1.12a38.68,38.68,0,0,0-3.44-2c-1.18-.61-2.39-1.16-3.61-1.69C134,130.45,131.53,129.52,129,128.66Z"/><path class="f" d="M130.65,134.38a35.05,35.05,0,0,1,4.85,1.2,26,26,0,0,1,4.64,2,12.82,12.82,0,0,1,2.13,1.5,5.78,5.78,0,0,1,1.64,2.26c0,.12.08.24.11.36l0,.19,0,.19c0,.13,0,.26,0,.39v.38a4.35,4.35,0,0,1-.36,1.45,7.49,7.49,0,0,1-1.62,2.22,17,17,0,0,1-4.29,2.88,30.49,30.49,0,0,1-4.72,1.83,42,42,0,0,1-9.85,1.66c1.61-.4,3.21-.8,4.79-1.26s3.15-1,4.68-1.54a36.75,36.75,0,0,0,4.44-2,19.31,19.31,0,0,0,2.06-1.23,12.47,12.47,0,0,0,1.83-1.46,6.13,6.13,0,0,0,1.31-1.74,3.09,3.09,0,0,0,.27-.95v-.23l0-.23v-.12l0-.11c0-.08,0-.16-.05-.24a4.94,4.94,0,0,0-1.2-1.76,14.06,14.06,0,0,0-1.84-1.46,30.4,30.4,0,0,0-4.29-2.31C133.74,135.58,132.21,135,130.65,134.38Z"/><path class="f" d="M54.09,150.16c4.42,1.89,8.89,3.58,13.44,5,2.28.68,4.57,1.37,6.89,1.91s4.63,1.06,7,1.5c1.17.21,2.34.43,3.52.59.59.09,1.18.19,1.77.26l1.77.23c2.36.28,4.74.5,7.12.66,4.76.29,9.54.33,14.34.16a78.69,78.69,0,0,1-14.39,1l-1.81,0-1.81-.09-.9-.05-.9-.07c-.61-.05-1.21-.09-1.81-.16q-3.6-.36-7.17-1c-.6-.11-1.19-.24-1.78-.36l-.89-.18-.88-.19c-1.17-.29-2.35-.55-3.51-.89L72.31,158l-1.73-.53c-1.15-.35-2.29-.76-3.43-1.17A78.09,78.09,0,0,1,54.09,150.16Z"/><path class="f" d="M62.25,126.25a90.3,90.3,0,0,1,11.86-2.41,110.91,110.91,0,0,1,12.08-1,106.36,106.36,0,0,1,12.11.37,87.77,87.77,0,0,1,12,1.81c-4-.27-8-.51-12-.63-2,0-4-.09-6-.1h-3l-1.5,0-1.5,0q-6,.15-12,.64C70.24,125.34,66.26,125.78,62.25,126.25Z"/><path class="h" d="M53.93,177.62l16.91,2.7,1.29-13.44-17-1.81Z"/><path class="f" d="M84.43,167.94c-23.31,0-37.57-1.35-47-9a53.1,53.1,0,0,1-9-9.32c-4.7-6.37-6.44-12.4-5.18-17.92,1.71-7.55,9.22-13.8,21.13-17.6h0c6.83-2.18,11.1-1.58,19.61-.4,4.69.66,10.53,1.47,18.87,2.16,8.58.7,13.68.76,17.78.81A73,73,0,0,1,117,118.3a107.43,107.43,0,0,1,27.07,9.35c11.69,5.53,19.41,9.18,19.83,15.37.48,7-9.51,12.81-13.78,15.27-14.57,8.4-29.06,9.24-46.49,9.48C96.65,167.86,90.25,167.94,84.43,167.94ZM44.69,115l.29.9c-11.25,3.59-18.3,9.35-19.86,16.21-2.64,11.6,10.79,23.15,13.51,25.35,10.79,8.72,27.73,8.86,65,8.37,17.15-.23,31.39-1.05,45.57-9.22,3.95-2.29,13.23-7.63,12.83-13.5-.35-5.08-8.07-8.73-18.75-13.79a105.78,105.78,0,0,0-26.63-9.2,70.74,70.74,0,0,0-16-1.56c-4.13,0-9.27-.11-17.91-.82-8.4-.69-14.27-1.51-19-2.17-8.48-1.18-12.36-1.72-18.77.33Z"/><path class="f" d="M139.91,161.62c1.48,3.64,1.44,8.06-.15,13.18a165.84,165.84,0,0,1-48.13,6.06A165.47,165.47,0,0,1,46,173.39a16.35,16.35,0,0,1,.3-9.81c.14-.34.28-.68.44-1-.59-.25-1.14-.54-1.71-.82-.18.38-.35.76-.5,1.15a18.43,18.43,0,0,0-.24,11.48,1,1,0,0,0,.64.66,167.17,167.17,0,0,0,46.7,7.71c1.22,0,2.43,0,3.65,0a167.45,167.45,0,0,0,45.53-6.31.91.91,0,0,0,.64-.61c1.89-5.81,2-10.87.22-15.06C141.05,161.06,140.47,161.33,139.91,161.62Z"/><ellipse class="g" cx="91.09" cy="227.91" rx="24.86" ry="18.15" transform="translate(-154.29 233.56) rotate(-69.53)"/><path class="c" d="M318.74,254.81c-2.27-1.79-5.86-1.91-8.6-2.15s-5.74-.48-8.73-.48h-3.58c0-.24-.12-.48-.12-.83a18.16,18.16,0,0,1-.24-2.75,15,15,0,0,1,1.08-6,2,2,0,0,0-3.95-1.07,20.48,20.48,0,0,0-1.19,7,12.25,12.25,0,0,0,.48,3.58v.12c-3.23.24-6.58.6-9.8,1a2.09,2.09,0,0,0-2,2c0,1.07.95,2.27,2,2a113.92,113.92,0,0,1,17-.72c2.75.12,5.5.24,8.25.48,1.43.12,2.87.36,4.3.48a10.34,10.34,0,0,0,4.3-.12A1.55,1.55,0,0,0,318.74,254.81Z"/><path class="c" d="M310.85,261a13.73,13.73,0,0,0-5.37-.71c-1.92,0-3.71.12-5.62.24-3.7.12-7.29.35-11,.47-3.11.12-3.11,4.9,0,4.78,3.7-.12,7.29-.35,11-.47,1.79-.12,3.58-.12,5.38-.24a14.6,14.6,0,0,0,5.61-1.08C311.93,263.41,312.05,261.5,310.85,261Z"/><path class="c" d="M306.19,270.94c-.59-1.07-1.91-1.31-3-1.55a11.62,11.62,0,0,0-2.75-.36,31.78,31.78,0,0,0-4.78.12,3,3,0,0,0-1.68.72,2.69,2.69,0,0,0-.71,1.67,2.18,2.18,0,0,0,.71,1.67,3,3,0,0,0,1.68.72,19.16,19.16,0,0,1,4.54-.12c.72,0,1.43.12,2.15.12.95.12,2.15.36,3-.24A2.06,2.06,0,0,0,306.19,270.94Z"/><path class="c" d="M369.64,164.84c-3.11.95-6.57-.6-9.56-1.44-3.46-.83-7.41-1.31-10.51.84a11.66,11.66,0,0,0-4.3,6.09,82.87,82.87,0,0,1,2.27-27.12c1.07-4.3-5.5-6.1-6.7-1.79-2.5,9.2-5.13,18.4-7.64,27.6-1.44,5.25-2.63,10.75-4.66,16-2.27-13.14-1.2-26.65-.24-39.91.36-3.94-5.74-4.54-6.81-1-3.11,11.59-6.34,23.07-9.44,34.66-1.68-7.41-2-15.06-2.27-22.59-.12-3.22-4.78-5-6.46-1.79a55.46,55.46,0,0,0-4.89,14.22c-7.53,0-14.94.12-22.47.12-4.42,0-4.42,6.93,0,6.93,8.49,0,16.85-.12,25.33-.12a3.53,3.53,0,0,0,2.87-1.55A63.2,63.2,0,0,0,309.42,192c1.31,2.75,5.61,1.91,6.33-.84l4.54-16.85A83,83,0,0,0,324,195.78a3.52,3.52,0,0,0,6.33.84c4.42-6.57,6.33-14.58,8.36-22.23q.54,4.49,1.44,9c.48,2.27,3.22,3,5,2,3-1.44,4.54-4.54,5.25-7.53.6-2.27.6-5.86,2.51-7.65s5.38-.24,7.53.36c3.59,1,7.41,1.91,11,.84C375.74,170.21,373.94,163.52,369.64,164.84Z"/><path class="c" d="M393.78,187.18c3.22.12,6.45.12,9.68.24,2.86.12,6,.48,8.48-1.44a8.55,8.55,0,0,0,2.63-4.18,140.21,140.21,0,0,1,1.91,20.08c.12,4.06,6.1,5,7.17,1,2.51-10,5.14-20.07,7.65-30.11.6,2.87,1.19,5.86,1.55,8.72a130.79,130.79,0,0,1,1.2,18.17,3.66,3.66,0,0,0,6.21,2.51c4.18-4,2.87-9.09,4.06-14.1a4.43,4.43,0,0,1,7.29-2.15c3.35,3.34,8.37-1.8,5.14-5.14-4.3-4.42-11.95-4.3-16.37-.12l-.24.24c-.24-1.68-.48-3.23-.72-4.9-.95-5.62-1.79-16.13-9.44-16.13a3.58,3.58,0,0,0-3.46,2.63L422,180.37a129,129,0,0,0-3-13.5c-1-3.59-5.85-3.35-6.93,0-.72,2.39-1.55,4.66-2.27,7l-1.2,3.7c-.11.48-.59,1.91-.71,2.27-.12,0-.36.12-.48.12H406c-1.32,0-2.63-.12-4-.12-2.63-.12-5.25-.12-7.88-.24C389.12,179.77,389.12,187.06,393.78,187.18Z"/><path class="c" d="M574.8,109.15a7.11,7.11,0,0,0-5.85,6.22c-2.63-.12-5.14-.12-7.77-.12-3.34,0-6.69,0-10.15.12-2.39,0-2.39,3.82,0,3.7,3.46-.12,6.81-.12,10.27-.24,2.63-.12,5.38-.24,8-.48a7.78,7.78,0,0,0,2,2.87,6.39,6.39,0,0,0,4.3,1.56,5.24,5.24,0,0,0,5.14.23c3.23-1.79,3.34-6.21,2-9.2a8,8,0,0,0-3.35-3.82A5.82,5.82,0,0,0,574.8,109.15Zm3.23,4.3a.12.12,0,0,1,.12.12c-.12-.12.12.12.24.12l.36.36a.42.42,0,0,1,.12.24h0a2.62,2.62,0,0,0,.36.6c.11.12.11.24.23.36h0v.12c.12.24.12.47.24.71s.12.24.12.48h0v1.2a1.25,1.25,0,0,1-.24.71.12.12,0,0,1-.12.12c-.12.12-.12.24-.23.36h0l-.36.36h0c-.12,0-.12,0-.12.12s-.12,0-.24.12h-.24c-.12,0-.24-.12-.36-.12s-.12-.12-.24-.12h0v-.12h0a1.88,1.88,0,0,0-1.91-1.91,2.45,2.45,0,0,0-1.31.48h0l-.12-.12-.36-.72h0c0-.12-.12-.24-.12-.36a.44.44,0,0,0-.12-.36v-.71c0-.12.12-.24.12-.36V115a.12.12,0,0,1,.12-.12c.12-.12.12-.24.24-.36l.12-.12h0c.12-.12.12-.24.24-.24l.23-.24a.26.26,0,0,0,.24-.24c.12-.12.24-.12.48-.24h0a.11.11,0,0,0,.12-.11c.24-.12.48-.12.72-.24h.71c.24,0,.36.12.6.12h0C577.67,113.34,577.79,113.45,578,113.45Z"/><path class="c" d="M577.43,119.31Z"/><path class="c" d="M377.89,74.38a6.08,6.08,0,0,0-4.54-1.91,6.36,6.36,0,0,0-4.19,1.79c-2.63,2.51-2.51,6.93-.35,9.68a.7.7,0,0,0,.71.36,5.94,5.94,0,0,0,2.39,2.15v.24c0,.72-.12,1.55-.12,2.39-.12,1.55-.12,3.23-.12,4.78a2.36,2.36,0,0,0,2.27,2.27,2.27,2.27,0,0,0,2.27-2.27c0-1.55,0-3.23-.12-4.78,0-.84-.12-1.55-.12-2.39h0a6.62,6.62,0,0,0,4.19-4.18C381.35,79.76,380,76.41,377.89,74.38Zm-1.56,7.05h0c-.12.12-.12.24-.24.36A.42.42,0,0,0,376,82l-.12.12a1.62,1.62,0,0,1-.47.48h0c-.12,0-.12.12-.24.12a.44.44,0,0,1-.36.12h-.24c-.12,0-.24,0-.24.12h-.48a.41.41,0,0,1-.35-.12,1.21,1.21,0,0,1-.36-.12H373l-.12-.12-.12-.12-.24-.24h0c0-.12-.12-.24-.24-.36a.12.12,0,0,0-.12-.12v-.6h0a1.94,1.94,0,0,0-1.31-2.39h-.24c0-.12,0-.24.12-.24h0c.12-.12.12-.23.24-.35s.12-.24.23-.36h0l.48-.48h0a.12.12,0,0,0,.12-.12c.12,0,.24-.12.36-.24h.12c.12,0,.24-.12.36-.12h.72c.12,0,.23.12.35.12h.12c.12,0,.24.12.36.24a.62.62,0,0,0,.48.24s.36.36.48.36.36.36.24.36c.12.23.24.35.36.59a.47.47,0,0,1,.11.36c.12.24.12.48.24.6a.44.44,0,0,0,.12.36v.71h0v.24C376.45,81.19,376.45,81.31,376.33,81.43Z"/><path class="d" d="M120.1,144a1.33,1.33,0,1,0-1.91,1.85,13.7,13.7,0,0,0,6.19,3.7,11.92,11.92,0,0,0,1-2.5A11,11,0,0,1,120.1,144Z"/><path class="i" d="M121.54,78.12c2.92-3,8.13-9.24,9.15-18.13,1.47-13-7-22.77-13.49-30.28-4.89-5.66-13.85-16-19.35-13.77C89,19.56,94.92,53.36,95.54,56.78A122.84,122.84,0,0,0,100,74.22"/><path class="j" d="M136.65,136.74c-1.9-3.36-7.84-4.86-13.23-1.68a34,34,0,0,0-4.17-2.8A33.14,33.14,0,0,0,134.7,108c1.06-10-2.51-22.66-13.16-29.45-9.1-5.81-18.8-4.4-21.51-3.91a132.15,132.15,0,0,0-9.48-30.23C84.48,30.93,77.87,16.28,70,16.54c-8.8.3-17.84,19.33-16.22,36.1,1.84,18.92,16.79,30.08,19.87,32.28a40.33,40.33,0,0,0-4,11.16c-.59,3-3,15,3.22,25.57a30.51,30.51,0,0,0,7.85,8.72h0a36.44,36.44,0,0,0-7,13.06,35.74,35.74,0,0,0-1.16,5.67,85.48,85.48,0,0,0,12.6,2.52c11.14,1.36,13.16-.64,21.93,1.09,8,1.57,10.43,4.08,13.7,2.22a9.68,9.68,0,0,0,4.32-6.17,9.84,9.84,0,0,0,7.76-1.2C136.34,145.24,138.55,140.11,136.65,136.74Z"/><path class="i" d="M75.68,35.42C73,34.78,63,47.88,66.17,61,69,72.83,81.33,79.56,82.74,78.38c.78-.65-2.17-3.34-3.58-9.84-1.12-5.21.24-6-.2-17.85a54.5,54.5,0,0,0-1.24-9.45C76.89,37.48,76.47,35.6,75.68,35.42Z"/><path class="d" d="M82.24,79.84a5,5,0,0,1-1.56-.3,24.4,24.4,0,0,1-8.53-5.77,26.81,26.81,0,0,1-7.27-12.46c-2.57-10.61,3-21.09,7-25.2,1.57-1.58,2.94-2.25,4.07-2h0c1.61.37,2,2.13,3,6.83a54.14,54.14,0,0,1,1.27,9.68,97.13,97.13,0,0,1-.13,11.21,19.84,19.84,0,0,0,.31,6.41,26.72,26.72,0,0,0,2.83,7.42c.75,1.41,1.46,2.75.3,3.71A2,2,0,0,1,82.24,79.84Zm-7-43a11.89,11.89,0,0,0-3.47,3.67c-3.28,4.79-6.12,12.6-4.29,20.19,2.2,9.07,10,14.62,13.4,16.1a29.82,29.82,0,0,1-3-8,22.16,22.16,0,0,1-.36-7.13,97.44,97.44,0,0,0,.13-10.95,52.56,52.56,0,0,0-1.21-9.21A37.81,37.81,0,0,0,75.22,36.83Zm.28-.11"/><path class="d" d="M86.76,84a1.34,1.34,0,0,1-1-.5,37.45,37.45,0,0,1-6.51-11.88C77.36,66,77.47,61.56,77.59,56.87c0-1.58.08-3.22,0-4.92A62.61,62.61,0,0,0,72.17,28.4a1.33,1.33,0,1,1,2.43-1.06,65.31,65.31,0,0,1,5.69,24.55c0,1.76,0,3.43,0,5-.12,4.45-.22,8.65,1.49,13.88a35,35,0,0,0,6.05,11.05,1.32,1.32,0,0,1-.2,1.86A1.3,1.3,0,0,1,86.76,84Z"/><path class="d" d="M128.86,104.25a1,1,0,0,0-1.34-.13L125.18,106l-1.8-2.13a1,1,0,1,0-1.45,1.23l2.19,2.58.1,3.83a1,1,0,0,0,1,.92h0a1,1,0,0,0,.92-1l-.1-3.69,2.71-2.22A1,1,0,0,0,128.86,104.25Z"/><path class="j" d="M124.71,134l-6.19-1.68"/><path class="k" d="M81.93,249.1a18.24,18.24,0,0,0,5.75-2.24,25.85,25.85,0,0,0,3.21-2.46,25.23,25.23,0,0,0,2.53-2.62c.3-.38.61-.8.91-1.25s.53-.83.77-1.23l-2-.85a.31.31,0,0,1-.16-.4.3.3,0,0,1,.39-.16l2.09.89c.54-1,1-1.86,1.34-2.65a39.51,39.51,0,0,0,1.61-3.76L97,231.8a.29.29,0,0,1-.16-.39.3.3,0,0,1,.39-.16l1.3.55a24.17,24.17,0,0,0,1.16-5.37l-4.36-1.84a.31.31,0,0,1-.16-.4.3.3,0,0,1,.4-.15l4.18,1.76c0-.29,0-.59,0-.9a25.58,25.58,0,0,0-.17-3.81,2.44,2.44,0,0,1-1.19-.14,1.41,1.41,0,0,1-.51-.35,1.34,1.34,0,0,1-.35-.77,2,2,0,0,0-.18-.58,1.87,1.87,0,0,0-.39-.59,1.5,1.5,0,0,1-.44-.92,1.28,1.28,0,0,1,0-.34,1.71,1.71,0,0,1-.64,0,1.13,1.13,0,0,1-.34-.1,1.8,1.8,0,0,1-.38-.23,1.28,1.28,0,0,0-.32-.19l-.09,0a1.56,1.56,0,0,0-.62-.11,1.73,1.73,0,0,1-.69-.12l-.23-.12a1.56,1.56,0,0,1-.19-.14,1.6,1.6,0,0,1-.51.72,1.23,1.23,0,0,1-.78.27,4.23,4.23,0,0,0-.64.11,2.85,2.85,0,0,0-.67.27,2.67,2.67,0,0,1-.7.25,2.77,2.77,0,0,1-1.62-.22l-.08,0A43.81,43.81,0,0,0,85,221.66l-.9,1.3,1.76.75a.29.29,0,0,1,.16.39.3.3,0,0,1-.39.16l-1.87-.79a33.21,33.21,0,0,0-2.78,5.08l2.18.92a.3.3,0,0,1,.16.4.3.3,0,0,1-.39.16l-2.19-.93a31.2,31.2,0,0,0-1.22,3.65c-.16.59-.35,1.34-.52,2.21l3.28,1.39a.3.3,0,0,1,.16.39.31.31,0,0,1-.39.16l-3.15-1.33a17.83,17.83,0,0,0-.16,4.82,16.8,16.8,0,0,0,.58,3.19,26.08,26.08,0,0,0,1.79,5,1.76,1.76,0,0,1,.14.9A1.52,1.52,0,0,1,81.93,249.1Zm2.19-10.81a4.76,4.76,0,0,1,.35-3,4.66,4.66,0,0,1,2-2.25,2.36,2.36,0,0,1,2.06-.22l0,0a2.31,2.31,0,0,1,1.25,1.69,4.69,4.69,0,0,1-.34,3,4.76,4.76,0,0,1-2,2.25,2.73,2.73,0,0,1-1.24.36,1.87,1.87,0,0,1-.82-.15h0A2.34,2.34,0,0,1,84.12,238.29Z"/><path class="l" d="M99.29,219.33a.6.6,0,0,1-.2-.14s0-.05-.08-.22a3.6,3.6,0,0,0-.7-1.37l0-.06a1,1,0,0,1,.27-.23h0a11.63,11.63,0,0,0,2.14-2.1,17.08,17.08,0,0,1,6.43-5.08.63.63,0,0,0,0,.33.69.69,0,0,0,.37.38,2,2,0,0,0,1.11,0,10,10,0,0,1,1.33-.17,5.87,5.87,0,0,1,1.66.18,16.9,16.9,0,0,1-1.18,1.8c-.79,1-1.1,1.2-1.36,1.25a1.84,1.84,0,0,1-.66,0,.75.75,0,0,0-.88.41c-.16.46.06.75,1.12,1.28h-.15a12.25,12.25,0,0,1-1.89,0l-.35,0a.64.64,0,0,0-.73.53.63.63,0,0,0,.4.67l.38.11a8.53,8.53,0,0,1,1.33.43l.09,0c.26.11.53.25.66.32-.3.24-.61.47-.92.68a15.38,15.38,0,0,1-1.66,1,6.44,6.44,0,0,1-1,.34,6.33,6.33,0,0,1-1.06.17,12.73,12.73,0,0,1-2.54-.16c-.5-.06-1-.13-1.53-.21h0a1.83,1.83,0,0,1-.4-.09m-.23.55a2,2,0,0,0,.57.13c.63.1,1.16.17,1.55.22a13.58,13.58,0,0,0,2.65.16,7.6,7.6,0,0,0,1.17-.19,6.71,6.71,0,0,0,1.06-.38,14.22,14.22,0,0,0,3.35-2.29q-.3-.19-.66-.39s-.39-.22-.78-.39l-.1,0a15.93,15.93,0,0,0-1.71-.55s0,0,0,0,1.1.12,2.43,0a10.06,10.06,0,0,0,2-.38c-2-.89-2.54-1.21-2.5-1.31s.51.11,1.11,0,.9-.41,1.7-1.48a16.49,16.49,0,0,0,1.57-2.51,6.38,6.38,0,0,0-2.56-.42c-1,0-2,.33-2.18.24l0,0c0-.09.26-.21.55-.62a2.34,2.34,0,0,0,.34-.71,16.27,16.27,0,0,0-1.64.61c-5.2,2.25-6.78,6-8.74,7.27-.14.09-.56.35-.58.73s.25.4.55,1,.19.8.46,1.1a1.13,1.13,0,0,0,.41.28Z"/><path class="l" d="M89.3,216.43h0a8.77,8.77,0,0,1-1.85-1.55l-.16-.16-1.5-1.44c-1.51-1.44-1.86-1.78-2.27-2.61a8.48,8.48,0,0,1-.66-1.89,8.39,8.39,0,0,1-.16-1.12,5.13,5.13,0,0,1,.66.46,2,2,0,0,0,.39.27.68.68,0,0,0,.65-.06c.45-.31.26-.82.12-1.19A6.65,6.65,0,0,1,84.2,206a2.74,2.74,0,0,1,0-.28l.09.05.13.12a.9.9,0,0,0,.25.17.62.62,0,0,0,.48,0c.54-.22.42-.76.29-1.39,0-.16-.07-.34-.1-.52s-.08-.58-.15-1.27c0-.49-.08-1-.11-1.49a7,7,0,0,1,1.13.88q.3.3.57.6a3.3,3.3,0,0,0,1,.9,1,1,0,0,0,.68,0,1.06,1.06,0,0,0,.58-.51,2,2,0,0,1,.16-.24c.47,2.7,1,5,1.46,6.8a15.59,15.59,0,0,1,.37,1.9c.11.66.22,1.34.4,2,0,.08,0,.16.07.24a8.89,8.89,0,0,1,.26,1.13.93.93,0,0,1,0,.44l-.15,0a4.09,4.09,0,0,0-1,.24,3.94,3.94,0,0,0-.85.47.7.7,0,0,1-.19.12.34.34,0,0,1-.26,0m-.24.56a.93.93,0,0,0,.67,0c.33-.1.44-.34,1.09-.6s1.06-.13,1.32-.37c.46-.43.12-1.46-.14-2.42-.35-1.28-.42-2.63-.77-3.91a75.44,75.44,0,0,1-1.63-7.82,3.58,3.58,0,0,0-.73.63c-.39.44-.39.67-.6.73a.37.37,0,0,1-.27,0,8.58,8.58,0,0,1-1.42-1.38,7.83,7.83,0,0,0-2.2-1.48c0,.81.08,1.68.17,2.58.07.71.1,1.06.15,1.32.11.63.28,1.2.18,1.24h0a3,3,0,0,0-.25-.22,2.67,2.67,0,0,0-.39-.22l-.16-.08a2.66,2.66,0,0,0-.51-.16,5,5,0,0,0,.07,1.27c.17,1,.59,1.62.45,1.71H84a9,9,0,0,0-1.16-.79l-.25-.11a3.22,3.22,0,0,0-.49-.17,8.71,8.71,0,0,0,.18,2.13,9.88,9.88,0,0,0,.71,2c.58,1.18,1.07,1.48,3.89,4.22A9.73,9.73,0,0,0,89.06,217Z"/><path class="l" d="M93.92,214.85l-.07,0a.81.81,0,0,1-.2-.55v-.07c0-.09-1.84-8.47-2.39-12.64a12.18,12.18,0,0,1-.09-2.87,11.66,11.66,0,0,1,.33-2c.07.17.14.33.2.5s.18.53.25.73c.17.52.28.86.64,1h0a.69.69,0,0,0,.24,0c.61.05.84-.53,1.1-1.2a10.37,10.37,0,0,1,1-2,5.39,5.39,0,0,1,.33-.5l.06.15a3.63,3.63,0,0,1,.16.63.88.88,0,0,0,.47.75l.14.05c.57.09.79-.42,1-.92a9.13,9.13,0,0,1,.65-1.29c.09-.14.19-.27.29-.41a.83.83,0,0,1,0,.27.79.79,0,0,0,.38.79h0c.52.23.87-.19,1.36-.77.21-.26.45-.54.72-.82s.43-.39.65-.57c0,.32.06.64.11,1,.28,1.92.65,2.32,1,2.48a1.31,1.31,0,0,0,.27.06.93.93,0,0,0,.66-.29.94.94,0,0,1,.1-.1c0,.11,0,.23,0,.35s-.06.42-.1.65c-.1.51-.21.9-.29,1.19-.13.45-.27,1,.2,1.22l0,0h0c.44.19.74-.13.94-.34a4.1,4.1,0,0,1,.59-.54,2.29,2.29,0,0,1,.29-.18s0,.07,0,.11a2.55,2.55,0,0,1-.06.51.83.83,0,0,0,.29,1,.2.2,0,0,0,.08,0,.82.82,0,0,0,.81-.17l0,0-.14.23a.85.85,0,0,0-.11,1,.68.68,0,0,0,.29.24,1,1,0,0,0,.57,0l.14,0a1.68,1.68,0,0,1-.21.18.83.83,0,0,0-.4.86.69.69,0,0,0,.41.47,1.83,1.83,0,0,0,.39.09,1.78,1.78,0,0,1,.43.1.85.85,0,0,1,.22.13c-.24.27-.49.53-.74.77l-.08.07c-.24.23-.61.56-.39,1a.71.71,0,0,0,.34.32,1.13,1.13,0,0,0,.68,0,3.87,3.87,0,0,1-.27.43,8.09,8.09,0,0,1-2.7,2.45,37.47,37.47,0,0,0-3.11,2.26,17.65,17.65,0,0,0-3.24,3.18L97,215.49l0,0v0c-.14.22-.25.3-.3.31a1,1,0,0,1-.2-.15,3.34,3.34,0,0,0-.89-.57h0a2.92,2.92,0,0,0-1.21-.22,1.49,1.49,0,0,1-.36,0h0m-.23.55c.4.17.87,0,1.58.26h0c.57.25.8.61,1.1.73a.54.54,0,0,0,.29,0,1.15,1.15,0,0,0,.74-.6l1.24-1.67a17.41,17.41,0,0,1,3.14-3.06c3.25-2.66,4.55-2.76,5.93-4.85a9.25,9.25,0,0,0,.91-1.73,4.83,4.83,0,0,1-1.59.4l0,0c0-.07.13-.2.34-.39a10.6,10.6,0,0,0,1.12-1.23,1.8,1.8,0,0,0-.78-.66h0a5.59,5.59,0,0,0-.81-.19.12.12,0,0,1-.07-.07c0-.13.25-.24.55-.56a2.19,2.19,0,0,0,.46-.75l-.09,0a1.83,1.83,0,0,0-.65-.15c-.37,0-.61.1-.72,0l0,0c-.09-.13.21-.38.41-.86a2.42,2.42,0,0,0,.16-.91,1.91,1.91,0,0,0-.79.17c-.36.16-.53.39-.63.35h0c-.12-.07.08-.44.07-1a2.3,2.3,0,0,0-.25-.92,4.39,4.39,0,0,0-1,.52c-.59.43-.84.87-.94.82h0c-.11-.07.17-.63.38-1.78.05-.24.08-.42.12-.68.07-.52.13-1,.17-1.49l-.34.14a3.54,3.54,0,0,0-.39.2c-.51.29-.56.52-.72.51h-.06c-.39-.17-.61-1.7-.66-2a13.21,13.21,0,0,1-.13-2,7.76,7.76,0,0,0-1.64,1.24c-.72.73-1.24,1.54-1.43,1.46h0c-.12-.06,0-.37-.12-.81a1.54,1.54,0,0,0-.49-.68,6.58,6.58,0,0,0-.84,1.06c-.67,1-.85,2-1,1.93h0c-.12,0-.08-.44-.3-1a3.71,3.71,0,0,0-.54-1,9,9,0,0,0-.92,1.22c-1,1.63-1.18,3-1.53,2.95h0c-.18-.07-.25-.54-.57-1.4a11.29,11.29,0,0,0-.89-1.88,13.43,13.43,0,0,0-.8,3.56,13.88,13.88,0,0,0,.09,3c.56,4.17,2.33,12.35,2.4,12.69a1.39,1.39,0,0,0,.4.95.79.79,0,0,0,.24.15Z"/><path class="m" d="M83.23,241l.56,1.94-1.45,3.42a.3.3,0,1,0,.56.24l1.45-3.43,1.79-.94a.31.31,0,0,0,.12-.41.34.34,0,0,0-.15-.14.3.3,0,0,0-.26,0l-1.55.82-.5-1.69a.27.27,0,0,0-.17-.19.27.27,0,0,0-.2,0A.3.3,0,0,0,83.23,241Z"/><path class="m" d="M87.55,231.12a.31.31,0,0,0,.43,0l1.75-1.43L90,232a.3.3,0,1,0,.6-.06l-.3-2.73L92.43,224a.3.3,0,0,0-.17-.39.3.3,0,0,0-.39.17L89.72,229,87.6,230.7A.3.3,0,0,0,87.55,231.12Z"/><path class="n" d="M99.29,219.33a.6.6,0,0,1-.2-.14s0-.05-.08-.22a3.6,3.6,0,0,0-.7-1.37l0-.06a1,1,0,0,1,.27-.23h0a11.63,11.63,0,0,0,2.14-2.1,17.08,17.08,0,0,1,6.43-5.08.63.63,0,0,0,0,.33.69.69,0,0,0,.37.38,2,2,0,0,0,1.11,0,10,10,0,0,1,1.33-.17,5.87,5.87,0,0,1,1.66.18,16.9,16.9,0,0,1-1.18,1.8c-.79,1-1.1,1.2-1.36,1.25a1.84,1.84,0,0,1-.66,0,.75.75,0,0,0-.88.41c-.16.46.06.75,1.12,1.28h-.15a12.25,12.25,0,0,1-1.89,0l-.35,0a.64.64,0,0,0-.73.53.63.63,0,0,0,.4.67l.38.11a8.53,8.53,0,0,1,1.33.43l.09,0c.26.11.53.25.66.32-.3.24-.61.47-.92.68a15.38,15.38,0,0,1-1.66,1,6.44,6.44,0,0,1-1,.34,6.33,6.33,0,0,1-1.06.17,12.73,12.73,0,0,1-2.54-.16c-.5-.06-1-.13-1.53-.21h0a1.83,1.83,0,0,1-.4-.09"/><path class="o" d="M93.92,214.85l-.07,0a.81.81,0,0,1-.2-.55v-.07c0-.09-1.84-8.47-2.39-12.64a12.18,12.18,0,0,1-.09-2.87,11.66,11.66,0,0,1,.33-2c.07.17.14.33.2.5s.18.53.25.73c.17.52.28.86.64,1h0a.69.69,0,0,0,.24,0c.61.05.84-.53,1.1-1.2a10.37,10.37,0,0,1,1-2,5.39,5.39,0,0,1,.33-.5l.06.15a3.63,3.63,0,0,1,.16.63.88.88,0,0,0,.47.75l.14.05c.57.09.79-.42,1-.92a9.13,9.13,0,0,1,.65-1.29c.09-.14.19-.27.29-.41a.83.83,0,0,1,0,.27.79.79,0,0,0,.38.79h0c.52.23.87-.19,1.36-.77.21-.26.45-.54.72-.82s.43-.39.65-.57c0,.32.06.64.11,1,.28,1.92.65,2.32,1,2.48a1.31,1.31,0,0,0,.27.06.93.93,0,0,0,.66-.29.94.94,0,0,1,.1-.1c0,.11,0,.23,0,.35s-.06.42-.1.65c-.1.51-.21.9-.29,1.19-.13.45-.27,1,.2,1.22l0,0h0c.44.19.74-.13.94-.34a4.1,4.1,0,0,1,.59-.54,2.29,2.29,0,0,1,.29-.18s0,.07,0,.11a2.55,2.55,0,0,1-.06.51.83.83,0,0,0,.29,1,.2.2,0,0,0,.08,0,.82.82,0,0,0,.81-.17l0,0-.14.23a.85.85,0,0,0-.11,1,.68.68,0,0,0,.29.24,1,1,0,0,0,.57,0l.14,0a1.68,1.68,0,0,1-.21.18.83.83,0,0,0-.4.86.69.69,0,0,0,.41.47,1.83,1.83,0,0,0,.39.09,1.78,1.78,0,0,1,.43.1.85.85,0,0,1,.22.13c-.24.27-.49.53-.74.77l-.08.07c-.24.23-.61.56-.39,1a.71.71,0,0,0,.34.32,1.13,1.13,0,0,0,.68,0,3.87,3.87,0,0,1-.27.43,8.09,8.09,0,0,1-2.7,2.45,37.47,37.47,0,0,0-3.11,2.26,17.65,17.65,0,0,0-3.24,3.18L97,215.49l0,0v0c-.14.22-.25.3-.3.31a1,1,0,0,1-.2-.15,3.34,3.34,0,0,0-.89-.57h0a2.92,2.92,0,0,0-1.21-.22,1.49,1.49,0,0,1-.36,0h0"/><path class="m" d="M90,237.76a5.16,5.16,0,0,0,.37-3.25,2.9,2.9,0,0,0-1.6-2.09l0,0a2.9,2.9,0,0,0-2.57.24A5.13,5.13,0,0,0,84,235.09a5.19,5.19,0,0,0-.37,3.26,3,3,0,0,0,1.59,2.09h0a2.5,2.5,0,0,0,1.08.2,3.33,3.33,0,0,0,1.5-.43A5.15,5.15,0,0,0,90,237.76Zm-2.49,2a2.73,2.73,0,0,1-1.24.36,1.87,1.87,0,0,1-.82-.15h0a2.34,2.34,0,0,1-1.26-1.69,4.76,4.76,0,0,1,.35-3,4.66,4.66,0,0,1,2-2.25,2.36,2.36,0,0,1,2.06-.22l0,0a2.31,2.31,0,0,1,1.25,1.69,4.69,4.69,0,0,1-.34,3A4.76,4.76,0,0,1,87.47,239.78Z"/><path class="n" d="M89.3,216.43h0a8.77,8.77,0,0,1-1.85-1.55l-.16-.16-1.5-1.44c-1.51-1.44-1.86-1.78-2.27-2.61a8.48,8.48,0,0,1-.66-1.89,8.39,8.39,0,0,1-.16-1.12,5.13,5.13,0,0,1,.66.46,2,2,0,0,0,.39.27.68.68,0,0,0,.65-.06c.45-.31.26-.82.12-1.19A6.65,6.65,0,0,1,84.2,206a2.74,2.74,0,0,1,0-.28l.09.05.13.12a.9.9,0,0,0,.25.17.62.62,0,0,0,.48,0c.54-.22.42-.76.29-1.39,0-.16-.07-.34-.1-.52s-.08-.58-.15-1.27c0-.49-.08-1-.11-1.49a7,7,0,0,1,1.13.88q.3.3.57.6a3.3,3.3,0,0,0,1,.9,1,1,0,0,0,.68,0,1.06,1.06,0,0,0,.58-.51,2,2,0,0,1,.16-.24c.47,2.7,1,5,1.46,6.8a15.59,15.59,0,0,1,.37,1.9c.11.66.22,1.34.4,2,0,.08,0,.16.07.24a8.89,8.89,0,0,1,.26,1.13.93.93,0,0,1,0,.44l-.15,0a4.09,4.09,0,0,0-1,.24,3.94,3.94,0,0,0-.85.47.7.7,0,0,1-.19.12.34.34,0,0,1-.26,0"/><path class="m" d="M88.42,234.57a.27.27,0,0,1,.44.06A3.5,3.5,0,0,1,89,237a3.55,3.55,0,0,1-1.52,2,.26.26,0,1,1-.27-.45,3,3,0,0,0,1.29-1.65,3.07,3.07,0,0,0-.13-2A.27.27,0,0,1,88.42,234.57Z"/><path class="m" d="M82,249.69a19.4,19.4,0,0,0,4.09-1.33,18.77,18.77,0,0,0,2-1.07,24.4,24.4,0,0,0,5.81-5.17,38,38,0,0,0,3.35-5.74,27.82,27.82,0,0,0,3.14-11.46,25.29,25.29,0,0,0-.26-4.51,2.56,2.56,0,0,1-1.47,0,.88.88,0,0,1-.3-.21c-.27-.28-.11-.53-.42-1.2s-.74-.8-.78-1.3.52-1.06.38-1.21l0,0c-.19-.08-.76.48-1.48.36l-.21-.06c-.22-.09-.3-.25-.69-.42l-.13-.05c-.65-.24-.91-.06-1.28-.21L93.6,216c-.51-.32-.59-.88-.75-.95h0c-.26.05,0,1.12-.6,1.58-.28.22-.43.07-1.21.28s-.85.41-1.32.5a2.09,2.09,0,0,1-1.27-.18A2.82,2.82,0,0,1,88,217a43.19,43.19,0,0,0-3.48,4.33,33.53,33.53,0,0,0-5.58,11.28,21,21,0,0,0-.8,7.85,17,17,0,0,0,.61,3.3,26.29,26.29,0,0,0,1.82,5.07c.25.51-.06,1.76-.65,3.69C80.59,251.36,81.29,249.79,82,249.69Zm-1-1.13a26.08,26.08,0,0,1-1.79-5,16.8,16.8,0,0,1-.58-3.19,17.83,17.83,0,0,1,.16-4.82L82,236.9a.31.31,0,0,0,.39-.16.3.3,0,0,0-.16-.39L79,235c.17-.87.36-1.62.52-2.21a31.2,31.2,0,0,1,1.22-3.65l2.19.93a.3.3,0,0,0,.39-.16.3.3,0,0,0-.16-.4l-2.18-.92a33.21,33.21,0,0,1,2.78-5.08l1.87.79a.3.3,0,0,0,.39-.16.29.29,0,0,0-.16-.39L84.05,223l.9-1.3a43.81,43.81,0,0,1,3.14-3.92l.08,0a2.77,2.77,0,0,0,1.62.22,2.67,2.67,0,0,0,.7-.25,2.85,2.85,0,0,1,.67-.27,4.23,4.23,0,0,1,.64-.11,1.23,1.23,0,0,0,.78-.27,1.6,1.6,0,0,0,.51-.72,1.56,1.56,0,0,0,.19.14l.23.12a1.73,1.73,0,0,0,.69.12,1.56,1.56,0,0,1,.62.11l.09,0a1.28,1.28,0,0,1,.32.19,1.8,1.8,0,0,0,.38.23,1.13,1.13,0,0,0,.34.1,1.71,1.71,0,0,0,.64,0,1.28,1.28,0,0,0,0,.34,1.5,1.5,0,0,0,.44.92,1.87,1.87,0,0,1,.39.59,2,2,0,0,1,.18.58,1.34,1.34,0,0,0,.35.77,1.41,1.41,0,0,0,.51.35,2.44,2.44,0,0,0,1.19.14,25.58,25.58,0,0,1,.17,3.81c0,.31,0,.61,0,.9L95.58,224a.3.3,0,0,0-.4.15.31.31,0,0,0,.16.4l4.36,1.84a24.17,24.17,0,0,1-1.16,5.37l-2.74-1.22a.3.3,0,0,0-.39.16.29.29,0,0,0,.16.39l2.77,1.24a39.51,39.51,0,0,1-1.61,3.76c-.38.79-.8,1.69-1.34,2.65L92,237.37a.29.29,0,0,0-.39.16.29.29,0,0,0,.15.39l3.33,1.38a21.44,21.44,0,0,1-1.35,2.06,25.55,25.55,0,0,1-2.94,3.11,24.84,24.84,0,0,1-3.58,2.66,14.1,14.1,0,0,1-1.35.68,18.82,18.82,0,0,1-3.95,1.29,1.52,1.52,0,0,0-.73.36A1.76,1.76,0,0,0,81.06,248.56Z"/><path class="n" d="M217.68,67.78h1.38a18.68,18.68,0,0,0,3.87.27c2.76,0,5.53-.27,8-.27,5,0,10.23-.28,15.48-.28,8.57,0,17.14.55,24.88,2.76,16.3,4.7,30.4,25.71,30.4,43.4v1.1c-.28,6.36-3.87,12.16-6.91,17.41-2.21,3.6-3.59,7.19-6.36,10.23-2.76,3.59-13.26,6.91-13.26,11.61a19,19,0,0,0,2.21,5.52c2.21,4.7,5.25,9.13,8,13.82,1.94,3.32,4.42,10.23,6.63,13.55,3.6,5.52,7.74,10.5,10.51,16.58,2.49,4.42,3.59,9.12,5.8,13.82.83,2.21,2.21,4.14,2.77,6.36a16.05,16.05,0,0,1,.27,3.59c0,7.46-4.14,14.92-11.61,17.13a12.74,12.74,0,0,1-4.42.56c-6.36,0-11.33-4.15-14.65-9.95-3.59-6.64-5.8-11.06-9.39-17.69-7.74-14.93-14.38-30.13-23.77-44-3.6-5.25-4.15-8-9.68-8.84-1.38,0-2.48-.55-3.59-.55a4.87,4.87,0,0,0-4.14,2.21c-1.11,1.93-1.11,5-1.39,7.18a48,48,0,0,0-.27,6.36c0,6.91.83,14.93.83,21v2.21c0,6.91,1.1,13.82,1.1,20.73a67,67,0,0,1-.55,7.46c-1.38,10.5-11.33,16.58-21.28,16.58-2.77,0-5.25,0-7.46-1.66-5.26-3.87-5.53-11.33-5.81-17.69-.28-4.42-.28-8.56-.28-13v-5.52c0-2.49.28-5.25.28-7.74,0-10.5-.83-21.84-.83-32.34,0-3.87,0-7.74.28-11.61.55-6.63.83-16.3,1.38-22.66,0-.83.28-1.66.28-2.49,0-2.21-.56-4.42-.56-6.91.28-4.42.28-9.12.28-13.82V94.86c-.28-2.76-.55-5.8-.55-8.57,0-6.63,1.93-12.71,10.78-15.47C209.94,69.71,213.81,67.78,217.68,67.78Zm13.26,37.58a13.42,13.42,0,0,0,.28,3.87,26.6,26.6,0,0,1,.28,5c0,3.59-.28,8-.28,11.33v4.7c0,1.93.28,4.42,1.38,5.25a4.16,4.16,0,0,0,2.77.83c1.66,0,3.59-.55,4.7-.55,7.46,0,9.12-1.11,15.47-5.53,1.94-.83,5.25-3.87,6.91-6.08a24.82,24.82,0,0,0,3-5.53c.56-.55.56-1.66.56-2.76v-1.94c0-2.49-2.77-10-4.43-11.88-3.87-3-7.74-5.81-14.65-5.81-2.21,0-5.8-.55-9.12-.55a13.43,13.43,0,0,0-5,.83C231.5,97.63,230.94,102.05,230.94,105.36Z"/><path class="k" d="M378.81,89.89a44.46,44.46,0,0,1,21.28,5.52c11.88,6.36,17.13,20.73,17.13,35.1a54.17,54.17,0,0,1-.83,9.68c-.55,3.32-.83,6.91-2.21,10.22-3.31,7.74-5.8,16.31-11.05,22.94-7.47,9.12-17.42,16.31-24.88,26.26-1.1,1.38-4.14,4.15-4.14,6.63a1.7,1.7,0,0,0,.27,1.11c.56,1.38,2.49,1.66,3.87,1.66,4.15,0,9.12-1.11,13.55-1.66a36.55,36.55,0,0,1,5.25-.28c3.87,0,6.63.56,12.16.56h1.66c7.46,0,14.92.27,20.17,6.63a11.36,11.36,0,0,1,2.77,7.46c0,6.36-5,12.71-11.89,14.37a22.35,22.35,0,0,1-6.08.56c-3,0-6.36-.28-9.4-.28h-1.93a238.45,238.45,0,0,0-23.77,1.93,109.51,109.51,0,0,1-13.54.56c-4.7,0-9.12,0-13.82.27-4.42.28-9.12,1.11-13.54,1.11a26.49,26.49,0,0,1-4.7-.28c-3.87-.55-5.81-2.49-8-5.53-1.38-1.93-2.76-3.59-3.31-5.52a10.66,10.66,0,0,1-.56-4.15c0-4.42,1.94-8.57,4.15-12.44,7.74-12.43,22.38-19.07,32.06-31.5,2.21-2.77,6.36-6.36,8.57-9.12,4.69-5.81,6.91-8,11.05-13.82,4.42-5.81,8.29-14.93,8.29-23.22a23.33,23.33,0,0,0-.83-6.36c-2.21-7.18-10-9.39-15.75-9.39-3.87,0-8.29,0-11.88,1.38a62.06,62.06,0,0,0-7.47,3.59c-3.59,2.21-9.39,4.7-14.09,4.7a9.29,9.29,0,0,1-4.15-.83,31.83,31.83,0,0,1-6.08-6.08,11.16,11.16,0,0,1-1.93-6.08c0-6.08,6.63-10,12.16-14.92,3.59-3,12.43-7.19,16.86-8a201.08,201.08,0,0,1,22.11-2.76Z"/><path class="n" d="M474.71,67.78h1.38a18.68,18.68,0,0,0,3.87.27c2.76,0,5.53-.27,8-.27,5,0,10.23-.28,15.48-.28,8.57,0,17.14.55,24.88,2.76,16.3,4.7,30.4,25.71,30.4,43.4v1.1c-.28,6.36-3.87,12.16-6.91,17.41-2.21,3.6-3.59,7.19-6.36,10.23C542.7,146,532.2,149.31,532.2,154a19,19,0,0,0,2.21,5.52c2.21,4.7,5.25,9.13,8,13.82,1.94,3.32,4.42,10.23,6.63,13.55,3.6,5.52,7.74,10.5,10.51,16.58,2.48,4.42,3.59,9.12,5.8,13.82.83,2.21,2.21,4.14,2.76,6.36a15.49,15.49,0,0,1,.28,3.59c0,7.46-4.14,14.92-11.61,17.13a12.77,12.77,0,0,1-4.42.56c-6.36,0-11.33-4.15-14.65-9.95-3.59-6.64-5.8-11.06-9.39-17.69-7.74-14.93-14.38-30.13-23.77-44-3.6-5.25-4.15-8-9.68-8.84-1.38,0-2.48-.55-3.59-.55a4.9,4.9,0,0,0-4.15,2.21c-1.1,1.93-1.1,5-1.38,7.18a48,48,0,0,0-.27,6.36c0,6.91.83,14.93.83,21v2.21c0,6.91,1.1,13.82,1.1,20.73a69.51,69.51,0,0,1-.55,7.46c-1.38,10.5-11.33,16.58-21.28,16.58-2.77,0-5.25,0-7.47-1.66-5.25-3.87-5.52-11.33-5.8-17.69-.28-4.42-.28-8.56-.28-13v-5.52c0-2.49.28-5.25.28-7.74,0-10.5-.83-21.84-.83-32.34,0-3.87,0-7.74.28-11.61.55-6.63.83-16.3,1.38-22.66,0-.83.28-1.66.28-2.49,0-2.21-.56-4.42-.56-6.91.28-4.42.28-9.12.28-13.82V94.86c-.28-2.76-.55-5.8-.55-8.57,0-6.63,1.93-12.71,10.78-15.47C467,69.71,470.84,67.78,474.71,67.78ZM488,105.36a13.42,13.42,0,0,0,.28,3.87,26.6,26.6,0,0,1,.28,5c0,3.59-.28,8-.28,11.33v4.7c0,1.93.28,4.42,1.38,5.25a4.15,4.15,0,0,0,2.77.83c1.65,0,3.59-.55,4.69-.55,7.47,0,9.13-1.11,15.48-5.53,1.94-.83,5.25-3.87,6.91-6.08a24.82,24.82,0,0,0,3-5.53c.55-.55.55-1.66.55-2.76v-1.94c0-2.49-2.76-10-4.42-11.88-3.87-3-7.74-5.81-14.65-5.81-2.21,0-5.8-.55-9.12-.55a13.43,13.43,0,0,0-5,.83C488.53,97.63,488,102.05,488,105.36Z"/><path class="i" d="M110.4,146.15a7.74,7.74,0,0,1,4-5.09,7.6,7.6,0,0,1,8.67,1.26,7.81,7.81,0,0,1,1.41,8.48c-.14.33-1.9,4.36-5.87,4.75a7.41,7.41,0,0,1-5.81-2.38C112.28,152.68,109.63,149.92,110.4,146.15Z"/><path class="i" d="M123.39,134.91c1.4-1.55,3.31-1.65,5.91-1.8,2.29-.12,4-.22,5.58.92,2.57,1.92,2.36,5.7,2.32,6.35a9.25,9.25,0,0,1-5.09,7.71c-2.18,1-5.5,1.45-6.54,0-.81-1.1.4-2.45-.58-4.32-.71-1.35-1.6-1.14-2.37-2.37A5.82,5.82,0,0,1,123.39,134.91Z"/><path class="d" d="M130.69,105.19a.67.67,0,0,1-.45-1.15,10.33,10.33,0,0,1,3.64-2.21,10.21,10.21,0,0,1,4.75-.48.66.66,0,0,1,.57.75.67.67,0,0,1-.74.57,8.86,8.86,0,0,0-7.31,2.34A.67.67,0,0,1,130.69,105.19Z"/><path class="d" d="M130.69,107.73a.66.66,0,0,1-.3-1.25,15.17,15.17,0,0,1,7.21-1.68,14.6,14.6,0,0,1,2.94.37.66.66,0,0,1,.5.79.65.65,0,0,1-.79.5,13.45,13.45,0,0,0-2.68-.33,13.9,13.9,0,0,0-6.58,1.53A.63.63,0,0,1,130.69,107.73Z"/><path class="d" d="M138.2,110.67a.66.66,0,0,1-.27-.06,9.92,9.92,0,0,0-2.6-.75,10.11,10.11,0,0,0-4.65.42.66.66,0,0,1-.84-.42.68.68,0,0,1,.42-.84,11.52,11.52,0,0,1,5.26-.48,11.23,11.23,0,0,1,2.95.86.66.66,0,0,1,.34.87A.67.67,0,0,1,138.2,110.67Z"/><path class="d" d="M119.85,105.49a.67.67,0,0,1-.46-.18,8.82,8.82,0,0,0-3.17-1.92,9,9,0,0,0-4.13-.42.67.67,0,0,1-.18-1.32,10.35,10.35,0,0,1,4.75.48,10.48,10.48,0,0,1,3.64,2.21.67.67,0,0,1-.45,1.15Z"/><path class="d" d="M119.85,108a.78.78,0,0,1-.3-.07,13.91,13.91,0,0,0-6.58-1.54,13.37,13.37,0,0,0-2.67.34.67.67,0,0,1-.3-1.3,14.68,14.68,0,0,1,2.94-.36,15,15,0,0,1,7.21,1.67.66.66,0,0,1,.29.89A.67.67,0,0,1,119.85,108Z"/><path class="d" d="M112.34,111a.66.66,0,0,1-.61-.39.68.68,0,0,1,.34-.88,11,11,0,0,1,3-.85,11.38,11.38,0,0,1,5.26.48.66.66,0,1,1-.42,1.26,10.11,10.11,0,0,0-4.65-.43,9.92,9.92,0,0,0-2.6.75A.66.66,0,0,1,112.34,111Z"/><path class="i" d="M66.29,21.94c.74-.77,1.46-1.56,2.22-2.31,2-1.94,2.91-2.57,2.76-2.91-.23-.5-2.78.06-4.21.59-6.33,2.33-9,10.79-10.76,16.57a44.74,44.74,0,0,0-2.18,20.21,44.34,44.34,0,0,0,4.65,14.39c.54,1,.17.23,8.29,11,2.12,2.82,4.9,2.12,5.81,4.21,1.29,3-1.16,6.07-2.68,9.35-5.44,11.74,1.06,25.32,1.68,26.56C76.52,129,85.5,133.73,86.21,133c.87-.86-11.17-9-12.92-23a41.11,41.11,0,0,1,1.42-17.57c1.64-4.48,3.43-6.1,2.78-9-.94-4.28-5.56-4.81-10.58-9.84-4.3-4.31-5.91-9-7.27-12.64-4.28-11.36-1.61-22-.72-25A37.12,37.12,0,0,1,66.29,21.94Z"/><path class="i" d="M80.24,130.31a1.82,1.82,0,0,1,1.55.87c1,1.65-1.69,4-4,8.67C75.25,145,75.16,149,74.37,149c-.59-.06-.91-2.37-.92-4.07,0-2.84.9-3.43,4.12-10.9C78.4,132.07,79.09,130.38,80.24,130.31Z"/><path class="i" d="M101.36,105.48c-1.59.11-1.77,1.94-4.89,3.35-1.81.83-3.47,1-3.44,1.2a11.86,11.86,0,0,0,3.15-.14c1.59-.19,2.09-.36,2.22-.14.28.48-2.05,1.58-3.11,4.07-.91,2.15-.53,4.5-.17,4.56.17,0,.31-.49,1.07-1.75.52-.85,1.4-2.17,1.6-2.07s-.84,1.68-.5,3.41a4.63,4.63,0,0,0,1.8,2.67c.36-1.5.56-1.77.68-1.76s.07,1.63.6,3.34a8.21,8.21,0,0,0,2.1,3.37c-.64-2.34-.63-2.91-.48-3,.4-.16,1.35,3.62,4.17,4.66,1.58.58,3.78.46,4.59-.7s-.4-2.69-1.73-6.8c-1.63-5.06-.74-5.91-2.39-9.11C106.06,109.56,103.86,105.3,101.36,105.48Z"/><path class="d" d="M137.8,135.7a8.4,8.4,0,0,0-5.42-3.78,12.64,12.64,0,0,0-7.76.68l-2.89-.78a35.59,35.59,0,0,0,5.88-5.32A33.53,33.53,0,0,0,136,107.72c1-9.11-1.78-22.16-12.45-29.82A32.17,32.17,0,0,0,132,60.14c1.54-13.56-7.33-23.81-13.8-31.3-5.42-6.26-14.48-16.74-20.87-14.13-4.34,1.78-6.15,8.9-5.52,21.79.14,3,.41,5.94.71,8.67l-.77-1.73c-6.41-14.21-13-28.9-21.77-28.61-2.75.09-5.59,1.72-8.21,4.7-6.5,7.41-10.41,21.23-9.28,32.85a43.26,43.26,0,0,0,9.76,23.11A54.4,54.4,0,0,0,72,84.93a41.13,41.13,0,0,0-3.63,10.5c-2.58,12.83.41,21.5,3.37,26.52a31.86,31.86,0,0,0,7.13,8.23,37.12,37.12,0,0,0-6.44,12.48,36.51,36.51,0,0,0-1.21,5.88,1.32,1.32,0,0,0,1,1.44A86.32,86.32,0,0,0,85,152.54a65.45,65.45,0,0,0,11.75.43,37.46,37.46,0,0,1,10.08.65,53.9,53.9,0,0,1,6.78,1.82,16.13,16.13,0,0,0,4.79,1.08,6,6,0,0,0,3-.82,11,11,0,0,0,4.63-5.8,12.12,12.12,0,0,0,1.59.1,10.74,10.74,0,0,0,6-1.73C137.48,145.69,140.18,139.89,137.8,135.7ZM98.35,17.17c1.85-.76,4.81.52,8.54,3.7a93.42,93.42,0,0,1,9.31,9.71c6.49,7.51,14.58,16.86,13.17,29.26a29.67,29.67,0,0,1-8.06,16.59A32.06,32.06,0,0,0,101.1,72.7a133.6,133.6,0,0,0-4.27-16.23,175.33,175.33,0,0,1-2.36-20.1C93.74,21.34,96.59,17.89,98.35,17.17Zm33.76,128.89a8.25,8.25,0,0,1-5.52,1.21,7.27,7.27,0,0,0-.87-4.19,8.42,8.42,0,0,0-5.42-3.78,13.2,13.2,0,0,0-10.19,1.94,1.33,1.33,0,0,0,1.45,2.23,10.48,10.48,0,0,1,8.11-1.59,5.79,5.79,0,0,1,3.74,2.51c1.57,2.77-.53,7.42-3.31,9-1.47.84-2.61.53-5.7-.46a56.41,56.41,0,0,0-7.08-1.91,40.71,40.71,0,0,0-10.71-.69,63.07,63.07,0,0,1-11.32-.41A84.14,84.14,0,0,1,74,147.73a33.29,33.29,0,0,1,1-4.32,34.61,34.61,0,0,1,6-11.62,34.48,34.48,0,0,0,4.29,2.6A1.33,1.33,0,1,0,86.47,132,30.7,30.7,0,0,1,74,120.59C71.29,116,68.55,108,71,96a38.86,38.86,0,0,1,3.9-10.8,1.32,1.32,0,0,0-.4-1.71C69.2,79.69,56.8,69.11,55.15,52.13,54,39.84,58.7,27.07,63.78,21.28c2.12-2.41,4.3-3.73,6.3-3.79,3-.1,6.19,2.57,9.76,8.16,3.34,5.23,6.47,12.17,9.5,18.89a130.53,130.53,0,0,1,4.91,12.58,125.48,125.48,0,0,0,4.52,17.52l0,0,0,.08a.17.17,0,0,0,0,0l0,.06,0,0,0,.06,0,0,0,0,0,.05,0,0,0,0,0,0,0,0,.06,0,0,0,.06,0,0,0,.06,0,.06,0,.06,0h.06l.07,0h.49c3.45-.62,12.36-1.51,20.56,3.72a26.18,26.18,0,0,1,9.28,10.3,5.75,5.75,0,0,0-2,4.52c0,3,1.85,5.32,4.22,5.32a3.74,3.74,0,0,0,.81-.1,32.75,32.75,0,0,1,.2,8.16c-1.36,12.78-11.22,24-24,27.26a30.34,30.34,0,0,1-3.8.73,1.33,1.33,0,0,0,.17,2.65h.17a36.07,36.07,0,0,0,4.12-.79,34.72,34.72,0,0,0,8.67-3.53l2.94.8a1.37,1.37,0,0,0,.14,1.16,1.34,1.34,0,0,0,1.84.39,10.54,10.54,0,0,1,8.11-1.6,5.8,5.8,0,0,1,3.74,2.51C137.07,139.8,135,144.16,132.11,146.06Z"/><path class="d" d="M110.1,99.57c2.36,0,4.21-2.34,4.21-5.32s-1.85-5.33-4.21-5.33-4.22,2.34-4.22,5.33S107.73,99.57,110.1,99.57Z"/><path class="d" d="M107.52,128.17a4.89,4.89,0,0,1-1.58-.26,6.16,6.16,0,0,1-2.81-2.3.62.62,0,0,1-.32.55.67.67,0,0,1-.81-.1,8.69,8.69,0,0,1-2.26-3.64,10.34,10.34,0,0,1-.29-1.23.53.53,0,0,1-.15.08.68.68,0,0,1-.63-.11,5.22,5.22,0,0,1-2-3.06,3.59,3.59,0,0,1-.08-.79c-.2.35-.35.63-.46.84-.27.51-.52,1-1.1.89a.89.89,0,0,1-.61-.49,6.94,6.94,0,0,1,.29-5A9.19,9.19,0,0,1,97,110.45l-.74.1c-.26,0-1.18.13-2,.19-1,.06-1.73.11-1.86-.58-.06-.28,0-.66.67-.89l.71-.22a22.3,22.3,0,0,0,2.46-.83,14.27,14.27,0,0,0,4.66-3.21.67.67,0,0,1,.94,0,.66.66,0,0,1,0,.94A15.91,15.91,0,0,1,97.66,109c.64-.08,1.06,0,1.31.39.39.66-.2,1.21-.83,1.79a8.56,8.56,0,0,0-2.24,2.88,6.9,6.9,0,0,0-.51,2.61l.23-.4c.32-.52.67-1.06,1-1.45s.87-1.19,1.5-.88.38,1,.22,1.39a4.81,4.81,0,0,0-.36,2.49,3.25,3.25,0,0,0,.8,1.56c.25-.8.54-1.24,1.1-1.18s.71.72.78,1.47A10.54,10.54,0,0,0,101,122c.07.23.15.45.24.67a.74.74,0,0,1,.5-.69c.68-.27,1,.36,1.45,1.16.59,1.09,1.57,2.92,3.19,3.49a5.11,5.11,0,0,0,4.06-.66.66.66,0,0,1,.61,1.18A7.68,7.68,0,0,1,107.52,128.17Z"/></svg>