<?xml version="1.0" encoding="utf-8"?>
<!-- Generator: Adobe Illustrator 15.0.0, SVG Export Plug-In . SVG Version: 6.00 Build 0)  -->
<!DOCTYPE svg PUBLIC "-//W3C//DTD SVG 1.1//EN" "http://www.w3.org/Graphics/SVG/1.1/DTD/svg11.dtd">
<svg version="1.1"
	 id="svg8" inkscape:version="1.0.1 (3bc2e813f5, 2020-09-07)" sodipodi:docname="rc3-haecksenlogo-v2.svg" xmlns:dc="http://purl.org/dc/elements/1.1/" xmlns:cc="http://creativecommons.org/ns#" xmlns:rdf="http://www.w3.org/1999/02/22-rdf-syntax-ns#" xmlns:svg="http://www.w3.org/2000/svg" xmlns:sodipodi="http://sodipodi.sourceforge.net/DTD/sodipodi-0.dtd" xmlns:inkscape="http://www.inkscape.org/namespaces/inkscape"
	 xmlns="http://www.w3.org/2000/svg" xmlns:xlink="http://www.w3.org/1999/xlink" x="0px" y="0px" width="700px" height="700px"
	 viewBox="0 0 700 700" enable-background="new 0 0 700 700" xml:space="preserve">
<title  id="title4967">rC3 Hacksenlogo</title>
<sodipodi:namedview  units="px" id="base" inkscape:window-maximized="1" inkscape:document-rotation="0" fit-margin-bottom="0" fit-margin-right="0" inkscape:guide-bbox="true" inkscape:window-y="26" inkscape:window-x="1920" inkscape:window-height="1385" inkscape:window-width="2556" inkscape:current-layer="layer3" inkscape:document-units="mm" inkscape:pageshadow="2" inkscape:pageopacity="0.0" inkscape:zoom="2" fit-margin-left="0" borderopacity="1.0" showgrid="true" fit-margin-top="0" bordercolor="#666666" pagecolor="#ffffff" showguides="true" inkscape:cy="576.62456" inkscape:cx="439.92915">
	
		<inkscape:grid  type="xygrid" originy="-52.916668" originx="-13.229166" id="grid4506" spacingy="13.229167" spacingx="13.229167">
		</inkscape:grid>
</sodipodi:namedview>
<rect x="396.163" y="547.503" fill="#008F8F" width="50.306" height="150.997"/>
<rect x="345.858" y="648.114" fill="#008F8F" width="50.305" height="50.386"/>
<rect x="295.552" y="597.809" fill="#00967D" width="50.306" height="100.691"/>
<rect x="345.858" y="497.197" fill="#00967D" width="50.306" height="150.917"/>
<rect x="396.164" y="446.893" fill="#00967D" width="50.306" height="100.61"/>
<rect x="245.248" y="597.809" fill="#43AD77" width="50.306" height="100.691"/>
<rect x="194.941" y="648.114" fill="#43AD77" width="50.306" height="50.386"/>
<rect x="194.942" y="547.503" fill="#48AA51" width="50.306" height="100.611"/>
<rect x="144.637" y="648.114" fill="#B1D5AD" width="50.306" height="50.386"/>
<rect x="144.637" y="597.808" fill="#48AA51" width="50.306" height="50.307"/>
<rect x="144.637" y="547.503" fill="#B1D5AD" width="50.306" height="50.306"/>
<rect x="94.332" y="597.808" fill="#B1D5AD" width="50.306" height="50.307"/>
<rect x="245.248" y="547.503" fill="#48AA51" width="50.306" height="50.306"/>
<rect x="345.858" y="346.282" fill="#48AA51" width="50.306" height="100.61"/>
<rect x="295.553" y="497.197" fill="#43AD77" width="50.306" height="100.61"/>
<rect x="345.858" y="446.893" fill="#43AD77" width="50.306" height="50.306"/>
<rect x="295.553" y="446.893" fill="#48AA51" width="50.306" height="50.306"/>
<rect x="396.164" y="295.977" fill="#48AA51" width="50.306" height="150.916"/>
<rect x="396.164" y="245.671" fill="#5BAE51" width="50.306" height="50.306"/>
<rect x="345.858" y="295.977" fill="#B1D5AD" width="50.306" height="50.306"/>
<rect x="295.553" y="396.587" fill="#B1D5AD" width="50.306" height="50.306"/>
<rect x="245.248" y="497.197" fill="#B1D5AD" width="50.306" height="50.306"/>
<rect x="647.69" y="648.114" fill="#B9E2F5" width="50.598" height="50.386"/>
<rect x="597.385" y="547.503" fill="#03ABEB" width="50.306" height="150.997"/>
<rect x="647.69" y="597.808" fill="#03ABEB" width="50.598" height="50.307"/>
<rect x="647.69" y="295.977" fill="#B9E2F5" width="50.598" height="50.306"/>
<rect x="547.08" y="597.809" fill="#03ABEB" width="50.305" height="100.691"/>
<rect x="547.079" y="547.503" fill="#0078A6" width="50.306" height="50.306"/>
<rect x="496.774" y="597.809" fill="#0078A6" width="50.306" height="100.691"/>
<rect x="446.47" y="648.114" fill="#0078A6" width="50.305" height="50.386"/>
<rect x="496.774" y="497.197" fill="#008F8F" width="50.306" height="100.61"/>
<rect x="446.469" y="497.197" fill="#008F8F" width="50.306" height="150.917"/>
<rect x="446.469" y="396.587" fill="#00967D" width="50.306" height="100.61"/>
<rect x="496.774" y="446.893" fill="#00967D" width="50.306" height="50.306"/>
<rect x="647.69" y="547.503" fill="#B9E2F5" width="50.598" height="50.306"/>
<rect x="496.774" y="396.587" fill="#43AD77" width="50.306" height="50.306"/>
<rect x="446.469" y="346.282" fill="#48AA51" width="50.306" height="50.306"/>
<rect x="496.774" y="295.977" fill="#5BAE51" width="50.306" height="100.61"/>
<rect x="446.469" y="245.671" fill="#5BAE51" width="50.306" height="100.611"/>
<rect x="547.079" y="245.671" fill="#43AD77" width="50.306" height="50.306"/>
<rect x="597.385" y="295.977" fill="#00967D" width="50.306" height="50.306"/>
<rect x="597.385" y="245.671" fill="#B9E2F5" width="50.306" height="50.306"/>
<rect x="446.469" y="195.365" fill="#B1D5AD" width="100.61" height="50.306"/>
<rect x="496.774" y="245.671" fill="#43AD77" width="50.306" height="50.306"/>
<rect x="547.079" y="295.977" fill="#B1D5AD" width="50.306" height="50.306"/>
<rect x="647.69" y="346.282" fill="#FFFFFF" width="50.598" height="201.221"/>
<rect x="647.69" y="195.366" fill="#FFFFFF" width="50.598" height="100.611"/>
<g>
	<defs>
		<rect id="SVGID_1_" x="43.161" y="30.5" width="655.127" height="668"/>
	</defs>
	<clipPath id="SVGID_2_">
		<use xlink:href="#SVGID_1_"  overflow="visible"/>
	</clipPath>
	<path clip-path="url(#SVGID_2_)" fill="#FFFFFF" d="M602.276,522.351c11.159-0.073,20.188-9.102,20.261-20.262v-20.818
		c0.011-2.361-0.416-4.708-1.257-6.917c-0.792-2.104-1.924-4.063-3.354-5.799c0.3-1.026,0.512-2.079,0.633-3.143
		c0.135-1.089,0.204-2.187,0.209-3.284v-20.126c-0.009-11.186-9.075-20.251-20.263-20.26h-54.359
		c-5.41-0.075-10.611,2.07-14.394,5.938c-3.91,3.729-6.088,8.92-6.009,14.321v8.946h21.379v-7.824h52.262v17.886h-57.152v21.379
		h60.926v18.581h-56.035v-6.706h-21.375v7.824c0.136,11.187,9.213,20.201,20.4,20.262h58.123L602.276,522.351z M515.222,522.351
		v-21.8h-78.674V443.54h78.671v-21.798h-79.646c-11.405,0.037-20.642,9.275-20.681,20.68v59.248
		c0.039,11.405,9.275,20.642,20.681,20.681H515.222z M326.72,443.54h57.011v23.896H326.72V443.54z M326.72,522.351v-32.982
		l28.784-0.14l27.809,33.118h22.358v-7.41l-21.803-25.702h0.979c11.404-0.096,20.646-9.276,20.819-20.681v-25.991
		c-0.171-11.403-9.415-20.587-20.819-20.681h-79.791v100.469h21.658H326.72z"/>
	<path clip-path="url(#SVGID_2_)" fill="none" stroke="#1A171B" stroke-width="1.0553" stroke-miterlimit="10" d="M602.276,522.351
		c11.159-0.073,20.188-9.102,20.261-20.262v-20.818c0.011-2.361-0.416-4.708-1.257-6.917c-0.792-2.104-1.924-4.063-3.354-5.799
		c0.3-1.026,0.512-2.079,0.633-3.143c0.135-1.089,0.204-2.187,0.209-3.284v-20.126c-0.009-11.186-9.075-20.251-20.263-20.26h-54.359
		c-5.41-0.075-10.611,2.07-14.394,5.938c-3.91,3.729-6.088,8.92-6.009,14.321v8.946h21.379v-7.824h52.262v17.886h-57.152v21.379
		h60.926v18.581h-56.035v-6.706h-21.375v7.824c0.136,11.187,9.213,20.201,20.4,20.262h58.123L602.276,522.351z M515.222,522.351
		v-21.8h-78.674V443.54h78.671v-21.798h-79.646c-11.405,0.037-20.642,9.275-20.681,20.68v59.248
		c0.039,11.405,9.275,20.642,20.681,20.681H515.222z M326.72,443.54h57.011v23.896H326.72V443.54z M326.72,522.351v-32.982
		l28.784-0.14l27.809,33.118h22.358v-7.41l-21.803-25.702h0.979c11.404-0.096,20.646-9.276,20.819-20.681v-25.991
		c-0.171-11.403-9.415-20.587-20.819-20.681h-79.791v100.469h21.658H326.72z"/>
	
		<rect x="44.026" y="44.45" clip-path="url(#SVGID_2_)" fill="none" stroke="#FFFFFF" stroke-width="4.2213" width="603.664" height="603.664"/>
</g>
<polygon fill="#FFFFFF" points="195.644,622.962 195.644,572.655 206.473,572.655 206.473,592.358 236.168,592.358 236.168,572.655 
	246.997,572.655 246.997,622.962 236.168,622.962 236.168,603.259 206.473,603.259 206.473,622.962 "/>
<polygon fill="none" stroke="#1A171B" stroke-width="1.0553" stroke-miterlimit="10" points="195.644,622.962 195.644,572.655 
	206.473,572.655 206.473,592.358 236.168,592.358 236.168,572.655 246.997,572.655 246.997,622.962 236.168,622.962 
	236.168,603.259 206.473,603.259 206.473,622.962 "/>
<path fill="#1A171B" d="M195.714,572.733h10.688v19.696h29.836v-19.696h10.687v50.151h-10.687v-19.696h-29.836v19.696h-10.688
	V572.733z M195.57,572.58v50.457h0.072h10.903v-19.705h29.548v19.705h10.975V572.58h-10.975v19.706h-29.548V572.58H195.57z"/>
<g>
	<defs>
		<rect id="SVGID_3_" x="43.161" y="30.5" width="655.127" height="668"/>
	</defs>
	<clipPath id="SVGID_4_">
		<use xlink:href="#SVGID_3_"  overflow="visible"/>
	</clipPath>
	<path clip-path="url(#SVGID_4_)" fill="#FFFFFF" d="M263.256,595.852h28.506v-9.991v-2.306h-2.306h-23.896h-2.305v2.306V595.852z
		 M252.427,622.962v-39.966c0-2.841,1.001-5.264,3.004-7.266c2.049-2.05,4.495-3.075,7.335-3.075h29.555
		c2.841,0,5.287,1.025,7.335,3.075c2.051,2.002,3.076,4.425,3.076,7.266v39.966h-10.97v-16.211h-28.506v16.211H252.427z"/>
	<path clip-path="url(#SVGID_4_)" fill="none" stroke="#1A171B" stroke-width="1.0553" stroke-miterlimit="10" d="M263.256,595.852
		h28.506v-9.991v-2.306h-2.306h-23.896h-2.305v2.306V595.852z M252.427,622.962v-39.966c0-2.841,1.001-5.264,3.004-7.266
		c2.049-2.05,4.495-3.075,7.335-3.075h29.555c2.841,0,5.287,1.025,7.335,3.075c2.051,2.002,3.076,4.425,3.076,7.266v39.966h-10.97
		v-16.211h-28.506v16.211H252.427z"/>
	<path clip-path="url(#SVGID_4_)" fill="#1A171B" d="M263.333,583.627h2.228h23.899h2.228v2.236v9.914h-28.354v-9.914V583.627z
		 M263.181,583.484v2.379v10.06h0.072h28.588v-10.06v-2.379h-2.381h-23.899H263.181z M262.768,572.733h29.558
		c2.824,0,5.247,1.008,7.284,3.045v0.009c2.037,1.99,3.054,4.389,3.054,7.213v39.885h-10.822v-16.202h-28.66v16.202h-10.678V583
		c0-2.824,0.991-5.231,2.981-7.222C257.522,573.741,259.945,572.733,262.768,572.733 M262.768,572.58
		c-2.858,0-5.329,1.037-7.391,3.099c-2.016,2.016-3.027,4.461-3.027,7.321v40.037h0.082h10.902v-16.211h28.354v16.211h11.119V583
		c0-2.86-1.037-5.306-3.099-7.321c-2.061-2.062-4.524-3.099-7.383-3.099H262.768z"/>
</g>
<polygon fill="#FFFFFF" points="308.091,622.962 308.091,572.655 354.553,572.655 354.553,583.555 319.06,583.555 319.06,592.358 
	347.636,592.358 347.636,603.259 319.06,603.259 319.06,612.062 354.553,612.062 354.553,622.962 "/>
<polygon fill="none" stroke="#1A171B" stroke-width="1.0553" stroke-miterlimit="10" points="308.091,622.962 308.091,572.655 
	354.553,572.655 354.553,583.555 319.06,583.555 319.06,592.358 347.636,592.358 347.636,603.259 319.06,603.259 319.06,612.062 
	354.553,612.062 354.553,622.962 "/>
<path fill="#1A171B" d="M308.168,572.733h46.317v10.751h-35.494v8.945h28.568v10.759h-28.568v8.944h35.494v10.752h-46.317V572.733z
	 M308.016,572.58v50.457h0.072h46.541V611.99h-35.494v-8.658h28.58v-11.046h-28.58v-8.659h35.494V572.58H308.016z"/>
<g>
	<defs>
		<rect id="SVGID_5_" x="43.161" y="30.5" width="655.127" height="668"/>
	</defs>
	<clipPath id="SVGID_6_">
		<use xlink:href="#SVGID_5_"  overflow="visible"/>
	</clipPath>
	<path clip-path="url(#SVGID_6_)" fill="#FFFFFF" d="M369.066,622.962c-2.842,0-5.288-1.002-7.337-3.006
		c-2.001-2.049-3.005-4.495-3.005-7.334v-29.626c0-2.841,1.004-5.264,3.005-7.266c2.049-2.05,4.495-3.075,7.337-3.075h39.825v10.899
		H371.86h-2.306v2.306v23.896v2.306h2.306h37.031v10.9H369.066z"/>
	<path clip-path="url(#SVGID_6_)" fill="none" stroke="#1A171B" stroke-width="1.0553" stroke-miterlimit="10" d="M369.066,622.962
		c-2.842,0-5.288-1.002-7.337-3.006c-2.001-2.049-3.005-4.495-3.005-7.334v-29.626c0-2.841,1.004-5.264,3.005-7.266
		c2.049-2.05,4.495-3.075,7.337-3.075h39.825v10.899H371.86h-2.306v2.306v23.896v2.306h2.306h37.031v10.9H369.066z"/>
	<path clip-path="url(#SVGID_6_)" fill="#1A171B" d="M369.069,572.733h39.752v10.751h-36.958h-2.38v2.379v23.891v2.379h2.38h36.958
		v10.752h-39.752c-2.819,0-5.247-0.996-7.283-2.982c-1.991-2.037-2.99-4.459-2.99-7.284V583c0-2.824,1.001-5.231,2.99-7.222
		C363.824,573.741,366.246,572.733,369.069,572.733 M369.069,572.58c-2.858,0-5.33,1.037-7.391,3.099
		c-2.017,2.016-3.028,4.461-3.026,7.321v29.618c0,2.859,1.01,5.33,3.026,7.392c2.061,2.015,4.534,3.027,7.391,3.027h39.896V611.99
		h-37.102h-2.235v-2.236v-23.891v-2.236h2.235h37.102V572.58H369.069z"/>
</g>
<polygon fill="#FFFFFF" points="413.481,622.962 413.481,572.655 424.382,572.655 424.382,592.358 434.233,592.358 450.723,572.655 
	462.041,572.655 462.041,576.43 444.085,597.809 462.041,619.188 462.041,622.962 450.723,622.962 434.233,603.259 424.382,603.259 
	424.382,622.962 "/>
<polygon fill="none" stroke="#1A171B" stroke-width="1.0553" stroke-miterlimit="10" points="413.481,622.962 413.481,572.655 
	424.382,572.655 424.382,592.358 434.233,592.358 450.723,572.655 462.041,572.655 462.041,576.43 444.085,597.809 462.041,619.188 
	462.041,622.962 450.723,622.962 434.233,603.259 424.382,603.259 424.382,622.962 "/>
<path fill="#1A171B" d="M413.554,572.733h10.751v19.696h9.96l16.489-19.696h11.21v3.664l-17.972,21.411l17.972,21.402v3.674h-11.21
	l-16.489-19.696h-9.96v19.696h-10.751V572.733z M413.411,572.58v50.457h0.071h10.975v-19.705h9.744l16.49,19.705h11.425v-3.881
	l-17.936-21.348l17.936-21.357v-3.871h-11.425l-16.49,19.706h-9.744V572.58H413.411z"/>
<g>
	<defs>
		<rect id="SVGID_7_" x="43.161" y="30.5" width="655.127" height="668"/>
	</defs>
	<clipPath id="SVGID_8_">
		<use xlink:href="#SVGID_7_"  overflow="visible"/>
	</clipPath>
	<path clip-path="url(#SVGID_8_)" fill="#FFFFFF" d="M476.553,622.962c-2.842,0-5.286-1.002-7.335-3.006
		c-2.004-2.049-3.005-4.495-3.005-7.334v-4.683h10.83v1.816v2.306h2.305h23.896h2.305v-2.306v-4.192v-2.305h-2.305h-26.69
		c-2.842,0-5.286-1.003-7.335-3.005c-2.004-2.049-3.005-4.495-3.005-7.336v-9.922c0-2.841,1.001-5.264,3.005-7.266
		c2.049-2.05,4.493-3.075,7.335-3.075h29.623c2.797,0,5.219,1.025,7.269,3.075c2.049,2.002,3.074,4.425,3.074,7.266v4.682h-10.971
		v-1.817v-2.306h-2.305h-23.896h-2.305v2.306v4.192v2.306h2.305h26.828c2.797,0,5.219,1.024,7.269,3.075
		c2.049,2.002,3.074,4.424,3.074,7.266v9.921c0,2.841-1.025,5.287-3.074,7.336c-2.05,2.004-4.472,3.006-7.269,3.006H476.553z"/>
	<path clip-path="url(#SVGID_8_)" fill="none" stroke="#1A171B" stroke-width="1.0553" stroke-miterlimit="10" d="M476.553,622.962
		c-2.842,0-5.286-1.002-7.335-3.006c-2.004-2.049-3.005-4.495-3.005-7.334v-4.683h10.83v1.816v2.306h2.305h23.896h2.305v-2.306
		v-4.192v-2.305h-2.305h-26.69c-2.842,0-5.286-1.003-7.335-3.005c-2.004-2.049-3.005-4.495-3.005-7.336v-9.922
		c0-2.841,1.001-5.264,3.005-7.266c2.049-2.05,4.493-3.075,7.335-3.075h29.623c2.797,0,5.219,1.025,7.269,3.075
		c2.049,2.002,3.074,4.425,3.074,7.266v4.682h-10.971v-1.817v-2.306h-2.305h-23.896h-2.305v2.306v4.192v2.306h2.305h26.828
		c2.797,0,5.219,1.024,7.269,3.075c2.049,2.002,3.074,4.424,3.074,7.266v9.921c0,2.841-1.025,5.287-3.074,7.336
		c-2.05,2.004-4.472,3.006-7.269,3.006H476.553z"/>
	<path clip-path="url(#SVGID_8_)" fill="#1A171B" d="M476.549,572.733h29.63c2.776,0,5.173,1.008,7.212,3.045v0.009
		c2.036,1.99,3.053,4.389,3.053,7.213v4.606h-10.822v-1.743v-2.379h-2.38h-23.891h-2.381v2.379v4.186v2.381h2.381h26.828
		c2.776,0,5.173,1.015,7.212,3.054c2.036,1.989,3.053,4.397,3.053,7.22v9.915c0,2.825-1.016,5.247-3.053,7.284
		c-2.039,1.991-4.436,2.982-7.212,2.982h-29.63c-2.82,0-5.238-0.996-7.273-2.982c-1.993-2.037-2.991-4.459-2.991-7.284v-4.606
		h10.686v1.742v2.379h2.381h23.891h2.38v-2.379v-4.193v-2.372h-2.38h-26.692c-2.819,0-5.239-0.997-7.273-2.981l-0.012-0.009
		c-1.983-2.036-2.979-4.465-2.979-7.284V583c0-2.824,0.989-5.231,2.979-7.222C471.302,573.741,473.726,572.733,476.549,572.733
		 M476.549,572.58c-2.858,0-5.32,1.037-7.383,3.099c-2.015,2.016-3.026,4.461-3.026,7.321v9.914c0,2.858,1.012,5.329,3.026,7.391
		c2.063,2.016,4.524,3.027,7.383,3.027h26.692h2.236v2.229v4.193v2.236h-2.236h-23.891h-2.235v-2.236v-1.887H466.14v4.751
		c0,2.859,1.012,5.33,3.026,7.392c2.063,2.015,4.524,3.027,7.383,3.027h29.63c2.813,0,5.258-1.013,7.319-3.027
		c2.061-2.06,3.088-4.531,3.088-7.392v-9.915c0-2.858-1.027-5.305-3.088-7.32c-2.062-2.06-4.507-3.097-7.319-3.097h-26.828h-2.235
		v-2.237v-4.186v-2.236h2.235h23.891h2.236v2.236v1.887h11.108V583c0-2.86-1.027-5.306-3.088-7.321
		c-2.062-2.062-4.507-3.099-7.319-3.099H476.549z"/>
</g>
<polygon fill="#FFFFFF" points="521.598,622.962 521.598,572.655 568.061,572.655 568.061,583.555 532.567,583.555 532.567,592.358 
	561.144,592.358 561.144,603.259 532.567,603.259 532.567,612.062 568.061,612.062 568.061,622.962 "/>
<polygon fill="none" stroke="#1A171B" stroke-width="1.0553" stroke-miterlimit="10" points="521.598,622.962 521.598,572.655 
	568.061,572.655 568.061,583.555 532.567,583.555 532.567,592.358 561.144,592.358 561.144,603.259 532.567,603.259 
	532.567,612.062 568.061,612.062 568.061,622.962 "/>
<path fill="#1A171B" d="M521.67,572.733h46.317v10.751h-35.494v8.945h28.577v10.759h-28.577v8.944h35.494v10.752H521.67V572.733z
	 M521.526,572.58v50.457h0.072h46.532V611.99h-35.494v-8.658h28.579v-11.046h-28.579v-8.659h35.494V572.58H521.526z"/>
<polygon fill="#FFFFFF" points="572.232,622.962 572.232,572.655 583.411,572.655 611.568,606.191 611.568,572.655 622.537,572.655 
	622.537,622.962 611.358,622.962 583.062,589.284 583.062,622.962 "/>
<polygon fill="none" stroke="#1A171B" stroke-width="1.0553" stroke-miterlimit="10" points="572.232,622.962 572.232,572.655 
	583.411,572.655 611.568,606.191 611.568,572.655 622.537,572.655 622.537,622.962 611.358,622.962 583.062,589.284 
	583.062,622.962 "/>
<path fill="#FFFFFF" d="M572.307,572.733h11.074l28.264,33.661v-33.661h10.822v50.151h-11.074l-28.408-33.806v33.806h-10.678
	V572.733z M572.163,572.58v50.457h0.072h10.903v-33.545l28.182,33.545h11.29V572.58h-11.119v33.401l-28.047-33.401H572.163z"/>
<path fill="none" stroke="#1A171B" stroke-width="1.0553" stroke-miterlimit="10" d="M572.307,572.733h11.074l28.264,33.661v-33.661
	h10.822v50.151h-11.074l-28.408-33.806v33.806h-10.678V572.733z M572.163,572.58v50.457h0.072h10.903v-33.545l28.182,33.545h11.29
	V572.58h-11.119v33.401l-28.047-33.401H572.163z"/>
</svg>
