<?xml version="1.0" encoding="UTF-8" standalone="no"?>
<!DOCTYPE svg PUBLIC "-//W3C//DTD SVG 1.1//EN" "http://www.w3.org/Graphics/SVG/1.1/DTD/svg11.dtd">
<svg width="100%" height="100%" viewBox="0 0 8334 8334" version="1.1" xmlns="http://www.w3.org/2000/svg" xmlns:xlink="http://www.w3.org/1999/xlink" xml:space="preserve" xmlns:serif="http://www.serif.com/" style="fill-rule:evenodd;clip-rule:evenodd;stroke-linejoin:round;stroke-miterlimit:2;">
    <g id="hintergrund" transform="matrix(1.0976,0,0,4.54004,1754.53,-34663.7)">
        <rect x="-1713.49" y="7612.82" width="7766.65" height="1875" style="fill:rgb(42,75,74);"/>
    </g>
    <path id="orange" d="M1591.25,5109.44L1525.01,5103.95C1536.17,5127.24 1544.28,5149.09 1544.28,5149.09L1590.86,5149.07C1590.66,5142.87 1590.59,5136.64 1590.64,5130.37C1590.69,5123.35 1590.89,5116.36 1591.25,5109.44ZM3238.46,5052.56L2543.53,5110.21C2543.97,5119.23 2544.16,5128.33 2544.09,5137.49C2544.07,5141.25 2543.99,5145 2543.88,5148.72L3230.94,5148.47C3236.07,5122.14 3239.34,5096.04 3239.51,5071.23C3239.55,5064.54 3239.18,5058.34 3238.46,5052.56ZM3755.98,5009.63L3477.91,5032.7C3485.56,5067.86 3492.52,5107.48 3497.57,5148.37L3723.36,5148.28C3735.76,5102.38 3746.98,5055.87 3755.98,5009.63ZM4432.59,4953.5C4441.57,5017.2 4448.92,5082.68 4453.89,5148.02L4673.54,5147.93C4693.39,5085.38 4722.69,5003.64 4730.4,4928.79L4432.59,4953.5ZM5725.69,4846.23C5733.23,4949.15 5735.42,5051.59 5730,5147.54L6121.32,5147.4L6121.32,4813.41L5725.69,4846.23ZM3744.72,4670.3C3765.38,4704.53 3778.38,4750.09 3777.97,4811.32C3777.72,4849.04 3774.67,4887.92 3769.49,4927.36L3460.11,4962.66C3452.36,4936.85 3444.82,4917.42 3438.56,4907.25C3375.78,4805.3 3253.23,4875.26 3156.12,4938.84C3088.48,4983.12 3156,4961.53 3202.87,4992.01L2539.54,5067.69C2537.21,5051.02 2534.03,5034.61 2530.03,5018.55L3744.72,4670.3ZM1605.32,5016.13L1466.25,4976.28C1477.81,5003.08 1489.75,5029.66 1502.08,5056.03L1595.35,5066.66C1597.77,5049.51 1601.11,5032.64 1605.32,5016.13ZM3679.64,4605.36C3559.63,4531.25 3392.66,4583.95 3564.09,4471.72C3813.18,4308.63 4127.55,4129.16 4288.58,4390.69C4291.52,4395.46 4294.57,4401.02 4297.71,4407.34L4855.54,4228.62C4722.69,4152.7 4547.14,4206.93 4734.43,4084.31C5011.73,3902.75 5361.71,3702.96 5540.98,3994.1C5543.3,3997.87 5545.68,4002.08 5548.12,4006.72L6678.37,3644.6C6587.09,3370.29 6522.44,3106.71 6477.06,2881.65L2498.88,4931.14C2505.98,4946.2 2512.32,4961.7 2517.84,4977.59L3679.64,4605.36ZM1637.58,4927.48L1398.57,4804.5C1412.32,4842.96 1426.87,4881.07 1442.18,4918.79L1617.8,4975.01C1623.55,4958.74 1630.17,4942.88 1637.58,4927.48ZM5605.44,2340.64L2451.26,4851.35C2461.2,4864.82 2470.44,4878.83 2478.93,4893.32L6441.93,2694.33C6390.48,2397.71 6376.72,2203.9 6376.72,2203.9C6041.93,2678.3 5515.74,3192.29 5515.74,3192.29C5501.87,2875.19 5544.5,2584.26 5605.44,2340.64ZM1686.68,4847.03L1322.56,4557.77C1337.85,4616.64 1354.95,4674.81 1373.78,4732.2L1657.95,4889.67C1666.77,4874.92 1676.37,4860.69 1686.68,4847.03ZM4946.41,4325.79C4962.99,4361.12 4972.92,4405.72 4972.55,4462.38C4971.95,4551.24 4957.4,4645.87 4936.01,4740.23C4934.4,4736.82 4932.84,4733.89 4931.36,4731.48C4868.59,4629.53 4746.03,4699.5 4648.93,4763.07C4578.08,4809.46 4655.5,4783.58 4702.18,4820.94L4416.93,4853.49C4392.97,4714.11 4362.51,4589.24 4334.06,4501.34L4946.41,4325.79ZM4419.21,2381.13L2389,4782.15C2401.41,4793.51 2413.21,4805.5 2424.35,4818.08L5693.88,2046.48C5790.72,1771.71 5890.34,1606.08 5890.34,1606.08C5466.49,1815.99 4868.52,2136.7 4419.21,2381.13ZM1750.53,4777.83L1252.01,4190C1263.65,4282.58 1279.63,4373.81 1299.74,4463.48L1714.07,4813.96C1725.56,4801.28 1737.74,4789.22 1750.53,4777.83ZM4296.52,1143.53L2314.41,4726.2C2328.86,4734.97 2342.79,4744.49 2356.16,4754.69L4103.86,2553.43C3913.33,2657.97 3791.9,2725.4 3791.9,2725.4C4413.53,1336.54 4962.19,1181.21 4962.19,1181.21C4740.35,1192.72 4515.35,1176.82 4296.52,1143.53ZM1783.82,4750.75C1797.53,4740.59 1811.8,4731.14 1826.57,4722.47L1354.38,3872.81C1236.63,3846.94 1229.14,3682.57 1229.14,3823.28C1229.14,3905.33 1232.53,3986.6 1239.19,4066.92L1783.82,4750.75ZM5598.43,4138.86L6737.18,3812.39C6755.44,3861.88 6774.57,3911.46 6794.62,3961.03C6794.62,3961.03 6828.22,3892.08 6877.55,3772.14L7060.66,3719.65C7061.86,3754 7062.47,3788.57 7062.47,3823.28C7062.47,3938.93 7055.72,4053.01 7042.6,4165.18C6971.81,4078.02 6810.39,3996.88 6710.36,3970.9C6711.49,3910.84 6694.33,3907.59 6678.29,3964.2C6540.94,3944.4 6204.1,4027.41 6254.66,4168.75C6300.98,4155.43 6364.76,4131.91 6437.87,4171.85C6451.31,4179.19 6507.65,4148.02 6523.72,4147.75C6577.99,4146.84 6591.53,4176.47 6639.29,4191.55C6620.91,4314.39 6598.66,4470.5 6579.59,4606.25L6435.57,4606.25C6435.58,4555.05 6435.58,4497.71 6435.55,4471.94C6435.51,4444.21 6398.62,4435.19 6399.03,4384.49C6399.11,4374.69 6372.37,4379.14 6372.1,4383.44C6368.59,4438.48 6337.84,4454.92 6337.75,4471.94C6337.61,4497.98 6337.6,4555.18 6337.64,4606.25L6308.17,4606.25C6308.18,4560.17 6308.17,4512.73 6308.14,4489.95C6308.11,4462.23 6271.22,4453.21 6271.63,4402.51C6271.7,4392.71 6244.97,4397.15 6244.7,4401.45C6241.18,4456.49 6210.44,4472.93 6210.35,4489.95C6210.22,4512.97 6210.2,4560.31 6210.23,4606.25L6121.32,4606.25L6121.32,4659.02L5712.27,4705.69C5686.64,4486.25 5641.13,4277.33 5598.43,4138.86ZM3554.26,966.947C3504.12,977.329 3454.49,989 3405.38,1001.92L2230.2,4685.76C2246.16,4691.57 2261.73,4698.21 2276.85,4705.62L4121.93,1113.18C4089.44,1106.85 4057.12,1100.18 4025.02,1093.2C3997.43,1117.33 3971.17,1139 3950.34,1150.13C3847.27,1205.23 3699.44,1214.5 3658.39,1129.98C3638.51,1089.07 3651.01,1038.34 3663.43,1000.33C3626.46,989.43 3590.06,978.284 3554.26,966.947ZM1911.92,4683.15L1357.67,2959.25C1348.51,2985.6 1342.24,3003.66 1342.24,3003.66C1342.24,3003.66 1308.7,3185.07 1280.63,3279.59C1242.88,3406.68 1638.8,3779.92 1434.57,3869.37L1864.52,4702.44C1879.9,4695.19 1895.72,4688.74 1911.92,4683.15ZM2189.3,4672.95L3221.06,1057.05L3220.68,1057.18C3177.63,1071.67 3134.91,1087.13 3092.59,1103.62C3012.26,1134.9 2933.35,1169.78 2856.14,1208.11C2776.64,1247.57 2698.97,1290.68 2623.41,1337.24C2584.45,1361.25 2546.08,1386.18 2508.28,1411.97L2506.14,1413.44L2139.53,4662.63C2156.43,4665.2 2173.03,4668.66 2189.3,4672.95ZM2003.24,4661.47L1720.25,2207.79C1597.17,2391.61 1494.21,2589.99 1414.43,2799.71L1953.07,4671C1969.46,4666.96 1986.21,4663.77 2003.24,4661.47ZM2096.9,4658.09L2352.8,1525.82L2351.12,1527.14C2318.43,1552.83 2286.27,1579.17 2254.69,1606.2C2191.56,1660.24 2130.72,1716.94 2072.37,1776.1C2014,1835.29 1958.13,1896.94 1904.94,1960.82C1878.32,1992.8 1852.4,2025.35 1827.13,2058.41L1827.1,2058.45L2045.96,4657.66C2054.24,4657.29 2062.56,4657.14 2070.92,4657.2L2070.92,4657.2C2079.63,4657.27 2088.29,4657.57 2096.9,4658.09ZM6682.8,4199.4C6665.9,4318.86 6643.58,4469.23 6623.65,4601.71L6706.17,4592.29L6706.17,4535.64L6974.7,4535.64C6995.89,4451.36 7013.4,4365.63 7027.06,4278.65C6994.07,4256.29 6951.72,4234.5 6893.53,4248.52C6880.45,4251.68 6812.69,4198.35 6799.15,4193.25C6740.95,4171.32 6739.41,4202.6 6682.8,4199.4ZM7026.74,3365.84C7004.85,3433.01 6983.02,3495.89 6962,3553.73L7047.51,3526.33C7042.04,3472.38 7035.1,3418.86 7026.74,3365.84Z" style="fill:rgb(253,148,0);"/>
    <path id="orange-gradient" serif:id="orange gradient" d="M1591.25,5109.44L1525.01,5103.95C1536.17,5127.24 1544.28,5149.09 1544.28,5149.09L1590.86,5149.07C1590.66,5142.87 1590.59,5136.64 1590.64,5130.37C1590.69,5123.35 1590.89,5116.36 1591.25,5109.44ZM3238.46,5052.56L2543.53,5110.21C2543.97,5119.23 2544.16,5128.33 2544.09,5137.49C2544.07,5141.25 2543.99,5145 2543.88,5148.72L3230.94,5148.47C3236.07,5122.14 3239.34,5096.04 3239.51,5071.23C3239.55,5064.54 3239.18,5058.34 3238.46,5052.56ZM3755.98,5009.63L3477.91,5032.7C3485.56,5067.86 3492.52,5107.48 3497.57,5148.37L3723.36,5148.28C3735.76,5102.38 3746.98,5055.87 3755.98,5009.63ZM4432.59,4953.5C4441.57,5017.2 4448.92,5082.68 4453.89,5148.02L4673.54,5147.93C4693.39,5085.38 4722.69,5003.64 4730.4,4928.79L4432.59,4953.5ZM5725.69,4846.23C5733.23,4949.15 5735.42,5051.59 5730,5147.54L6121.32,5147.4L6121.32,4813.41L5725.69,4846.23ZM3744.72,4670.3C3765.38,4704.53 3778.38,4750.09 3777.97,4811.32C3777.72,4849.04 3774.67,4887.92 3769.49,4927.36L3460.11,4962.66C3452.36,4936.85 3444.82,4917.42 3438.56,4907.25C3375.78,4805.3 3253.23,4875.26 3156.12,4938.84C3088.48,4983.12 3156,4961.53 3202.87,4992.01L2539.54,5067.69C2537.21,5051.02 2534.03,5034.61 2530.03,5018.55L3744.72,4670.3ZM1605.32,5016.13L1466.25,4976.28C1477.81,5003.08 1489.75,5029.66 1502.08,5056.03L1595.35,5066.66C1597.77,5049.51 1601.11,5032.64 1605.32,5016.13ZM3679.64,4605.36C3559.63,4531.25 3392.66,4583.95 3564.09,4471.72C3813.18,4308.63 4127.55,4129.16 4288.58,4390.69C4291.52,4395.46 4294.57,4401.02 4297.71,4407.34L4855.54,4228.62C4722.69,4152.7 4547.14,4206.93 4734.43,4084.31C5011.73,3902.75 5361.71,3702.96 5540.98,3994.1C5543.3,3997.87 5545.68,4002.08 5548.12,4006.72L6678.37,3644.6C6587.09,3370.29 6522.44,3106.71 6477.06,2881.65L2498.88,4931.14C2505.98,4946.2 2512.32,4961.7 2517.84,4977.59L3679.64,4605.36ZM1637.58,4927.48L1398.57,4804.5C1412.32,4842.96 1426.87,4881.07 1442.18,4918.79L1617.8,4975.01C1623.55,4958.74 1630.17,4942.88 1637.58,4927.48ZM5605.44,2340.64L2451.26,4851.35C2461.2,4864.82 2470.44,4878.83 2478.93,4893.32L6441.93,2694.33C6390.48,2397.71 6376.72,2203.9 6376.72,2203.9C6041.93,2678.3 5515.74,3192.29 5515.74,3192.29C5501.87,2875.19 5544.5,2584.26 5605.44,2340.64ZM1686.68,4847.03L1322.56,4557.77C1337.85,4616.64 1354.95,4674.81 1373.78,4732.2L1657.95,4889.67C1666.77,4874.92 1676.37,4860.69 1686.68,4847.03ZM4946.41,4325.79C4962.99,4361.12 4972.92,4405.72 4972.55,4462.38C4971.95,4551.24 4957.4,4645.87 4936.01,4740.23C4934.4,4736.82 4932.84,4733.89 4931.36,4731.48C4868.59,4629.53 4746.03,4699.5 4648.93,4763.07C4578.08,4809.46 4655.5,4783.58 4702.18,4820.94L4416.93,4853.49C4392.97,4714.11 4362.51,4589.24 4334.06,4501.34L4946.41,4325.79ZM4419.21,2381.13L2389,4782.15C2401.41,4793.51 2413.21,4805.5 2424.35,4818.08L5693.88,2046.48C5790.72,1771.71 5890.34,1606.08 5890.34,1606.08C5466.49,1815.99 4868.52,2136.7 4419.21,2381.13ZM1750.53,4777.83L1252.01,4190C1263.65,4282.58 1279.63,4373.81 1299.74,4463.48L1714.07,4813.96C1725.56,4801.28 1737.74,4789.22 1750.53,4777.83ZM4296.52,1143.53L2314.41,4726.2C2328.86,4734.97 2342.79,4744.49 2356.16,4754.69L4103.86,2553.43C3913.33,2657.97 3791.9,2725.4 3791.9,2725.4C4413.53,1336.54 4962.19,1181.21 4962.19,1181.21C4740.35,1192.72 4515.35,1176.82 4296.52,1143.53ZM1783.82,4750.75C1797.53,4740.59 1811.8,4731.14 1826.57,4722.47L1354.38,3872.81C1236.63,3846.94 1229.14,3682.57 1229.14,3823.28C1229.14,3905.33 1232.53,3986.6 1239.19,4066.92L1783.82,4750.75ZM5598.43,4138.86L6737.18,3812.39C6755.44,3861.88 6774.57,3911.46 6794.62,3961.03C6794.62,3961.03 6828.22,3892.08 6877.55,3772.14L7060.66,3719.65C7061.86,3754 7062.47,3788.57 7062.47,3823.28C7062.47,3938.93 7055.72,4053.01 7042.6,4165.18C6971.81,4078.02 6810.39,3996.88 6710.36,3970.9C6711.49,3910.84 6694.33,3907.59 6678.29,3964.2C6540.94,3944.4 6204.1,4027.41 6254.66,4168.75C6300.98,4155.43 6364.76,4131.91 6437.87,4171.85C6451.31,4179.19 6507.65,4148.02 6523.72,4147.75C6577.99,4146.84 6591.53,4176.47 6639.29,4191.55C6620.91,4314.39 6598.66,4470.5 6579.59,4606.25L6435.57,4606.25C6435.58,4555.05 6435.58,4497.71 6435.55,4471.94C6435.51,4444.21 6398.62,4435.19 6399.03,4384.49C6399.11,4374.69 6372.37,4379.14 6372.1,4383.44C6368.59,4438.48 6337.84,4454.92 6337.75,4471.94C6337.61,4497.98 6337.6,4555.18 6337.64,4606.25L6308.17,4606.25C6308.18,4560.17 6308.17,4512.73 6308.14,4489.95C6308.11,4462.23 6271.22,4453.21 6271.63,4402.51C6271.7,4392.71 6244.97,4397.15 6244.7,4401.45C6241.18,4456.49 6210.44,4472.93 6210.35,4489.95C6210.22,4512.97 6210.2,4560.31 6210.23,4606.25L6121.32,4606.25L6121.32,4659.02L5712.27,4705.69C5686.64,4486.25 5641.13,4277.33 5598.43,4138.86ZM3554.26,966.947C3504.12,977.329 3454.49,989 3405.38,1001.92L2230.2,4685.76C2246.16,4691.57 2261.73,4698.21 2276.85,4705.62L4121.93,1113.18C4089.44,1106.85 4057.12,1100.18 4025.02,1093.2C3997.43,1117.33 3971.17,1139 3950.34,1150.13C3847.27,1205.23 3699.44,1214.5 3658.39,1129.98C3638.51,1089.07 3651.01,1038.34 3663.43,1000.33C3626.46,989.43 3590.06,978.284 3554.26,966.947ZM1911.92,4683.15L1357.67,2959.25C1348.51,2985.6 1342.24,3003.66 1342.24,3003.66C1342.24,3003.66 1308.7,3185.07 1280.63,3279.59C1242.88,3406.68 1638.8,3779.92 1434.57,3869.37L1864.52,4702.44C1879.9,4695.19 1895.72,4688.74 1911.92,4683.15ZM2189.3,4672.95L3221.06,1057.05L3220.68,1057.18C3177.63,1071.67 3134.91,1087.13 3092.59,1103.62C3012.26,1134.9 2933.35,1169.78 2856.14,1208.11C2776.64,1247.57 2698.97,1290.68 2623.41,1337.24C2584.45,1361.25 2546.08,1386.18 2508.28,1411.97L2506.14,1413.44L2139.53,4662.63C2156.43,4665.2 2173.03,4668.66 2189.3,4672.95ZM2003.24,4661.47L1720.25,2207.79C1597.17,2391.61 1494.21,2589.99 1414.43,2799.71L1953.07,4671C1969.46,4666.96 1986.21,4663.77 2003.24,4661.47ZM2096.9,4658.09L2352.8,1525.82L2351.12,1527.14C2318.43,1552.83 2286.27,1579.17 2254.69,1606.2C2191.56,1660.24 2130.72,1716.94 2072.37,1776.1C2014,1835.29 1958.13,1896.94 1904.94,1960.82C1878.32,1992.8 1852.4,2025.35 1827.13,2058.41L1827.1,2058.45L2045.96,4657.66C2054.24,4657.29 2062.56,4657.14 2070.92,4657.2L2070.92,4657.2C2079.63,4657.27 2088.29,4657.57 2096.9,4658.09ZM6682.8,4199.4C6665.9,4318.86 6643.58,4469.23 6623.65,4601.71L6706.17,4592.29L6706.17,4535.64L6974.7,4535.64C6995.89,4451.36 7013.4,4365.63 7027.06,4278.65C6994.07,4256.29 6951.72,4234.5 6893.53,4248.52C6880.45,4251.68 6812.69,4198.35 6799.15,4193.25C6740.95,4171.32 6739.41,4202.6 6682.8,4199.4ZM7026.74,3365.84C7004.85,3433.01 6983.02,3495.89 6962,3553.73L7047.51,3526.33C7042.04,3472.38 7035.1,3418.86 7026.74,3365.84Z" style="fill:url(#_Linear1);"/>
    <path id="in-paradise" serif:id="in paradise" d="M5615.69,5925.94L5733.28,5915.18C5733.28,5915.18 5897.21,6496.11 5925.35,6595.85C5925.35,6595.85 5812.19,6606.07 5812.19,6606.07C5801.79,6569.66 5766.43,6445.74 5766.43,6445.74C5764.77,6439.95 5759.23,6436.16 5753.23,6436.73L5590.01,6452.12C5584.83,6452.61 5580.49,6456.26 5579.12,6461.28L5535.57,6621.22C5535.57,6621.22 5428.11,6630.48 5428.11,6630.48L5615.69,5925.94ZM6991.3,6502.32L7001.39,6502.32C7001.81,6502.32 7002.22,6502.3 7002.64,6502.26C7037.43,6498.74 7061.4,6486.9 7075.32,6468.35C7084.93,6455.53 7089.99,6439.34 7089.99,6419.6C7089.99,6391.08 7081.06,6371 7064.9,6358.67C7050.4,6347.6 7030.68,6338.47 7005.63,6331.55C7005.61,6331.54 7005.59,6331.54 7005.57,6331.53L6948.71,6316.14C6890.41,6300.39 6849.54,6277.33 6826.74,6245.84C6803.92,6214.33 6792.89,6171.81 6792.89,6118.48C6792.89,6079.66 6801.51,6044.46 6818.85,6012.91C6836.2,5981.37 6860.2,5955.6 6890.85,5935.58C6921.6,5915.49 6957.31,5903.7 6997.92,5900.05C6998.09,5900.03 6998.26,5900.01 6998.43,5899.99C7002.79,5899.42 7007.29,5899.14 7011.93,5899.14L7027.06,5899.14C7077.12,5899.14 7116.65,5912.61 7145.38,5940.36C7173,5967.05 7192.71,6006.98 7205.12,6059.85C7205.12,6059.85 7099.15,6102.43 7099.15,6102.43C7091.86,6074.91 7081.71,6055.13 7069.37,6042.79C7054.03,6027.44 7033.29,6019.4 7006.89,6019.4C7003.78,6019.4 7000.87,6019.61 6998.16,6020.02C6996.59,6020.26 6994.92,6020.36 6993.13,6020.36C6992.74,6020.36 6992.34,6020.38 6991.94,6020.42C6968.56,6022.65 6949.88,6031.05 6935.71,6045.18C6920.99,6059.85 6913.69,6077.24 6913.69,6097.32C6913.69,6116.41 6917.86,6132.9 6925.91,6146.86C6934.2,6161.23 6950.84,6172.94 6976.8,6180.51C6976.81,6180.51 6976.82,6180.52 6976.83,6180.52L7050.2,6201.69C7105.76,6217.64 7147.43,6239.44 7174.91,6267.66C7201.6,6295.07 7214.46,6333.96 7214.46,6384C7214.46,6456.12 7195.46,6513.69 7156.72,6556.47C7118.04,6599.18 7063.67,6623.27 6993.88,6629.37C6993.7,6629.39 6993.52,6629.41 6993.34,6629.43C6988.99,6630 6984.64,6630.29 6980.29,6630.29L6965.62,6630.29C6914.29,6630.29 6873.38,6616.13 6843.15,6587.11C6814.02,6559.14 6792.97,6517.3 6779.42,6461.88C6779.42,6461.88 6892.05,6417.17 6892.05,6417.17C6899.43,6441.83 6910.04,6461.18 6923.56,6475.36C6940.52,6493.15 6963.03,6502.32 6991.3,6502.32ZM4583.49,5925.23L4701.08,5914.46C4701.08,5914.46 4893.15,6595.13 4893.15,6595.13C4893.15,6595.13 4779.99,6605.36 4779.99,6605.36C4779.99,6605.36 4734.23,6445.03 4734.23,6445.03C4732.57,6439.24 4727.03,6435.45 4721.03,6436.01L4557.81,6451.4C4552.63,6451.89 4548.29,6455.54 4546.92,6460.57C4546.92,6460.57 4512.65,6586.43 4503.36,6620.5C4503.36,6620.5 4395.91,6629.77 4395.91,6629.77L4583.49,5925.23ZM6166.75,6612.06L5989.61,6627.24C5989.61,6627.24 5989.61,5940.4 5989.61,5940.4C5989.61,5940.4 6160.7,5925.06 6160.7,5925.06C6160.73,5925.06 6160.75,5925.06 6160.78,5925.05C6167.3,5924.43 6173.83,5923.97 6180.36,5923.65C6186.87,5923.34 6193.09,5923.19 6199.02,5923.19C6281.38,5923.19 6343.79,5949.82 6385.84,6003.97C6428.77,6059.26 6449.69,6139.86 6449.69,6245.47C6449.69,6322.92 6437.65,6388.22 6413.24,6441.31C6389.22,6493.55 6356.07,6533.88 6313.59,6562.15C6270.97,6590.52 6222.01,6607.12 6166.75,6612.06L6166.75,6612.06ZM3512.82,5921.09L3629.03,5910.01C3629.03,5910.01 3629.03,6597.74 3629.03,6597.74C3629.03,6597.74 3517.26,6608.33 3517.26,6608.33C3517.26,6608.33 3360.44,6255.78 3360.44,6255.78C3360.42,6255.75 3360.41,6255.73 3360.4,6255.7C3357.2,6247.35 3346.22,6223.67 3338.44,6206.91C3332.77,6194.69 3328.06,6191.8 3321,6192.75C3317.03,6193.28 3314.28,6199.13 3314.52,6204.63C3314.52,6204.63 3316.5,6257.98 3316.8,6278.37C3317.11,6298.97 3317.57,6318.6 3318.18,6337.27C3318.79,6355.68 3319.09,6368.69 3319.09,6376.31C3319.09,6376.31 3319.09,6616.85 3319.09,6616.85C3319.09,6616.85 3204.71,6626.32 3204.71,6626.32C3204.71,6626.32 3204.71,5939.47 3204.71,5939.47C3204.71,5939.47 3318.4,5929.67 3318.4,5929.67C3318.4,5929.67 3473.33,6266.95 3473.33,6266.95C3476.8,6274.85 3493.72,6313.69 3499,6325.61C3503.33,6335.38 3510.01,6337.04 3513.37,6336.47C3518.69,6335.57 3519.69,6330.8 3519.22,6322.75C3517.7,6296.56 3516.93,6278.64 3516.01,6261.63C3515.1,6244.7 3514.33,6228.41 3513.72,6212.76C3513.12,6197.27 3512.82,6186.05 3512.82,6179.09L3512.82,5921.09ZM4157.62,6370.59C4157.61,6370.59 4157.6,6370.59 4157.59,6370.59L4072.31,6378.29C4065.87,6378.87 4060.94,6384.27 4060.94,6390.74L4060.94,6615.97C4060.94,6615.97 3946.55,6626.23 3946.55,6626.23C3946.55,6535.53 3946.55,6021.71 3946.55,5938.44C3946.55,5938.44 4164.45,5918.32 4164.45,5918.32C4164.79,5918.29 4165.12,5918.25 4165.45,5918.19C4168.4,5917.67 4171.36,5917.41 4174.31,5917.41L4185.31,5917.41C4221.08,5917.41 4251.65,5925.73 4276.91,5942.71C4302.24,5959.72 4321.68,5983.2 4335.33,6013.05C4349.32,6043.63 4356.21,6079.43 4356.21,6120.41C4356.21,6194.66 4338.75,6253.84 4303.07,6297.71C4267.89,6340.98 4219.34,6365.14 4157.62,6370.59ZM5262.04,6310.64C5256.19,6314 5254.07,6321.41 5257.25,6327.36L5400.59,6595.51C5400.59,6595.51 5270.9,6607.44 5270.9,6607.44C5270.9,6607.44 5143.65,6362.84 5143.65,6362.84C5141.29,6358.31 5136.42,6355.67 5131.35,6356.17L5091.91,6360.02C5085.51,6360.64 5080.63,6366.03 5080.63,6372.46L5080.63,6615C5080.63,6615 4966.25,6625.27 4966.25,6625.27C4966.25,6625.27 4966.25,6027.93 4966.25,5937.49C4966.25,5937.49 5176.79,5918.32 5176.79,5918.32C5177.03,5918.3 5177.27,5918.27 5177.51,5918.24C5181.12,5917.7 5184.48,5917.41 5187.58,5917.41L5198.58,5917.41C5251.29,5917.41 5292.39,5934.16 5321.58,5968.35C5351.28,6003.13 5365.81,6048.76 5365.81,6105.02C5365.81,6153.51 5357.48,6194.98 5340.51,6229.36C5323.86,6263.1 5297.65,6290.15 5262.04,6310.64ZM7436.83,6487.9C7436.83,6491.42 7438.32,6494.78 7440.92,6497.15C7443.53,6499.52 7447.01,6500.68 7450.51,6500.35L7690.84,6477.59C7690.84,6477.59 7690.84,6590.03 7690.84,6590.03C7690.84,6590.03 7391.45,6617.92 7323.37,6624.26C7323.37,6533.43 7323.37,6019.79 7323.37,5936.52C7323.37,5936.52 7675.25,5904.19 7675.25,5904.19C7675.25,5904.19 7675.25,6017.62 7675.25,6017.62C7675.25,6017.62 7448.18,6038.7 7448.18,6038.7C7441.75,6039.29 7436.83,6044.69 7436.83,6051.14L7436.83,6184.86C7436.83,6188.39 7438.32,6191.75 7440.93,6194.12C7443.54,6196.49 7447.03,6197.64 7450.53,6197.31L7626.65,6180.35C7626.65,6180.35 7626.65,6291.84 7626.65,6291.84C7626.65,6291.84 7448.14,6309.03 7448.14,6309.03C7441.73,6309.65 7436.83,6315.03 7436.83,6321.47L7436.83,6487.9ZM6563.18,5926.86L6679.4,5915.78C6679.4,5915.78 6679.4,6602.56 6679.4,6602.56C6679.4,6602.56 6563.18,6613.65 6563.18,6613.65L6563.18,5926.86ZM2945.66,5926.86L3061.88,5915.78C3061.88,5915.78 3061.88,6602.56 3061.88,6602.56C3061.88,6602.56 2945.66,6613.65 2945.66,6613.65L2945.66,5926.86ZM6114.67,6045.41C6108.13,6045.88 6103.07,6051.32 6103.07,6057.88L6103.07,6486.94C6103.07,6490.43 6104.53,6493.76 6107.1,6496.13C6109.66,6498.49 6113.1,6499.68 6116.58,6499.4L6152.34,6496.51C6152.37,6496.51 6152.4,6496.51 6152.42,6496.51C6207.35,6491.7 6250.74,6470.41 6282.79,6433.02C6314.25,6396.31 6330.73,6338.42 6330.73,6258.94C6330.73,6203.96 6325.34,6161.26 6314.93,6130.79C6303.72,6098.01 6286.4,6075.1 6263.64,6061.56C6241.48,6048.38 6213.25,6041.53 6178.85,6041.53C6172.5,6041.53 6166.31,6041.69 6160.27,6042.03C6154.35,6042.36 6147.97,6042.84 6141.12,6043.49C6141.12,6043.49 6114.67,6045.41 6114.67,6045.41ZM5623.28,6324.11C5634.89,6284.35 5644.52,6246.51 5652.16,6210.59C5659.8,6174.68 5666.38,6138.76 5671.88,6102.85L5675.55,6102.85C5680.44,6138.12 5686.7,6172.59 5694.34,6206.26C5701.98,6239.94 5711.31,6276.01 5722.31,6314.49L5623.28,6324.11ZM4591.08,6323.4C4602.69,6283.63 4612.32,6245.79 4619.96,6209.88C4627.6,6173.96 4634.18,6138.05 4639.68,6102.13L4643.35,6102.13C4648.24,6137.4 4654.5,6171.88 4662.14,6205.55C4669.78,6239.22 4679.11,6275.29 4690.11,6313.77L4591.08,6323.4ZM4072.28,6040.62C4065.86,6041.22 4060.94,6046.61 4060.94,6053.07L4060.94,6253.17C4060.94,6256.68 4062.42,6260.04 4065.01,6262.4C4067.61,6264.77 4071.09,6265.94 4074.59,6265.61L4136.94,6259.84C4136.99,6259.84 4137.05,6259.83 4137.1,6259.83C4164.64,6256.94 4187.69,6245.7 4206.28,6226.2C4224.63,6206.94 4234.49,6177.91 4234.49,6138.69C4234.49,6100.47 4226.1,6073.89 4211.32,6058.39C4195.93,6042.24 4175.12,6033.83 4148.63,6033.83C4146.23,6033.83 4143.62,6034.03 4140.82,6034.45C4139.25,6034.69 4137.58,6034.79 4135.79,6034.79C4135.41,6034.79 4135.02,6034.81 4134.64,6034.85L4072.28,6040.62ZM5091.94,6039.66C5085.53,6040.27 5080.63,6045.66 5080.63,6052.1L5080.63,6240.66C5080.63,6244.18 5082.11,6247.54 5084.72,6249.91C5087.33,6252.28 5090.81,6253.44 5094.32,6253.1L5154.84,6247.33C5154.87,6247.33 5154.89,6247.33 5154.92,6247.32C5183.53,6244.4 5206.12,6232.71 5222.86,6212.58C5239.14,6193.02 5247.76,6165.6 5247.76,6130.03C5247.76,6094.7 5238.82,6070.2 5223.04,6055.84C5207,6041.26 5187.26,6033.83 5163.74,6033.83L5153.65,6033.83C5153.25,6033.83 5152.86,6033.85 5152.46,6033.89L5091.94,6039.66Z" style="fill:rgb(253,148,0);"/>
    <path id="weiss-simpel" serif:id="weiss simpel" d="M4547.72,7365.17C4547.72,7365.17 4349.4,7627.11 4349.4,7739.37C4349.4,7848.82 4438.26,7937.69 4547.72,7937.69C4657.18,7937.69 4746.04,7848.82 4746.04,7739.37C4746.04,7627.11 4547.72,7365.17 4547.72,7365.17ZM6465.91,6604.75C6445.49,6639.44 6421.44,6679.03 6392.54,6725.26C6299.37,6874.26 6222.2,6971.32 6108.31,6896.55C6019.93,6838.52 6047.47,6747.24 5909.47,6774.62C5836.01,6789.2 5790.83,6925.38 5742.82,6986.38C5707.7,7031.01 5668.61,7017.67 5628.03,6975.54C5512.45,6855.53 5457.97,6810.1 5296.24,6972.12C5102.59,7166.12 4930.74,6664.12 4693.18,6917.02C4660.24,6952.09 4623.13,7049.04 4558.87,7081.18C4487.15,7117.03 4405.94,6928.17 4335.02,6999.1C4237.31,7096.81 4190.53,7311.37 4170.86,7446.8C4141.78,7647 3847.01,7637.1 3805.24,7469.18C3759.51,7285.32 3712.22,7115.01 3596.31,6999.1C3517.56,6920.34 3478.09,7242.19 3290.38,7148.33C3174.76,7090.52 3217,6937.74 3118.76,6872.25C3017.64,6804.83 2903.55,6846.72 2805.37,6797.63C2744.95,6767.42 2710.46,6691.38 2648.68,6670.78C2609.37,6657.68 2550.04,6666.24 2514.37,6648.4C2462.51,6622.47 2467.68,6546.71 2417.37,6521.55C2380.96,6503.35 2293.85,6529.01 2253.21,6529.01C2190.22,6529.01 2016.86,6454.67 1997.98,6416.91C1989.03,6399.02 1966.35,6364.68 1945.75,6364.68C1918.23,6364.68 1821.98,6412.53 1796.51,6387.06C1713.09,6303.64 1657.62,6110.66 1626.09,5984.54C1623.9,5975.76 1608.8,5934.69 1618.63,5924.85C1638.77,5904.71 1774.13,5852.57 1826.18,5837.93C1829.07,5835.74 1832.1,5833.56 1835.29,5831.39C1367.45,5293.67 1084.06,4591.31 1084.06,3823.28C1084.06,3818.89 1088.65,3670.77 1081.71,3603.25C1075.26,3540.51 1060.38,3486.34 1042.41,3418.18C1026.97,3364.47 999.527,3270.33 987.343,3229.28C972.853,3184.82 922.796,3090.67 904.231,3056.31C901.291,3051.27 898.939,3046.92 897.312,3043.46C891.331,3030.72 896.557,3015.54 909.11,3009.18C921.663,3002.83 936.995,3007.6 943.721,3019.96C944.977,3022.27 947.634,3027.16 951.288,3033.99C970.798,3067.13 1016.6,3131.06 1044.45,3169.32C1068.28,3201.7 1103.67,3249.89 1141.59,3301.57C1110.98,3213.73 1065.74,3089.64 1043.1,3028.42C1032.11,3000.26 1020.62,2975.71 1008.96,2954.05C1003.21,2946.14 998.09,2938.85 993.836,2932.48C984.425,2918.39 978.968,2907.34 977.581,2901.91C975.48,2893.69 976.936,2887.46 978.603,2883.37C982.232,2874.45 990.485,2868.27 1000.06,2867.3C1009.63,2866.32 1018.96,2870.7 1024.32,2878.7C1034.15,2893.37 1044.05,2909.57 1053.84,2927.63C1084.98,2970.31 1134.29,3031.3 1160.78,3062.92C1152.45,3021.4 1136.88,2957.87 1123.62,2920.86C1111.1,2886.27 1099.47,2856.63 1088.91,2831.57C1056.73,2780.47 1031.68,2725.89 1026.84,2714.4C1024.5,2708.85 1024.16,2705.35 1024.1,2704.77C1023,2693.75 1029,2683.24 1039.05,2678.58C1049.1,2673.92 1060.99,2676.13 1068.7,2684.09C1077.69,2693.38 1101.81,2730.69 1134.27,2805.92C1151.56,2832.3 1181.37,2877.09 1205.57,2909.7C1205.02,2904.28 1204.31,2899 1203.41,2894.3C1198.01,2867.8 1099.17,2535.84 1092.62,2518.62C1092.58,2518.53 1092.55,2518.45 1092.52,2518.36C1091.67,2516.06 1090.27,2512.48 1088.33,2507.68C1083.19,2495.01 1088.75,2480.51 1101.05,2474.52C1113.35,2468.53 1128.19,2473.09 1135.01,2484.94C1164.84,2536.82 1187.39,2567.28 1204.4,2582.64C1207.29,2584.9 1213.33,2587.44 1216.03,2588.52C1225.41,2585.59 1251.95,2577.64 1275.43,2573.61C1268.19,2552.57 1255.42,2517.33 1232.24,2456.66C1230.56,2452.44 1228.88,2448.27 1227.21,2444.11C1225.38,2453.18 1218.75,2460.99 1209.28,2463.87C1195.54,2468.05 1180.99,2460.29 1176.81,2446.55C1174.66,2439.51 1173.53,2431.36 1175.06,2417.7C1175.68,2412.1 1180.68,2383.62 1187.49,2345.94C1086.22,2097.95 1051.6,2031.7 1046.05,2019.82C1040.11,2007.07 1045.37,1991.91 1057.93,1985.58C1070.48,1979.26 1085.8,1984.05 1092.51,1996.41C1114.37,2036.69 1162.88,2128.73 1211.04,2217.36C1219.24,2173 1226.56,2133.68 1230.06,2115.08C1230.07,2115.03 1230.08,2114.97 1230.09,2114.92C1238.36,2072.41 1247.67,2024.62 1248.71,2019.35C1251.49,2005.26 1265.19,1996.08 1279.28,1998.86C1293.37,2001.65 1302.55,2015.34 1299.77,2029.43C1298.73,2034.69 1289.44,2082.35 1281.19,2124.78C1276.1,2151.88 1262.8,2223.18 1250.62,2289.45C1280.61,2343.36 1307.22,2389.22 1322.87,2411.56C1340.39,2436.06 1358.64,2459.69 1367.65,2467.37C1369.88,2469.14 1372.86,2470.96 1375.36,2472.38C1376.86,2470.36 1378.14,2468.11 1378.83,2466.15C1385.97,2443.98 1407.37,2325.5 1416.42,2273.48C1420.51,2248.55 1425.69,2216.35 1426.86,2209.09C1429.14,2194.91 1442.5,2185.25 1456.68,2187.53C1470.86,2189.8 1480.52,2203.17 1478.25,2217.35C1477.07,2224.64 1471.86,2257.01 1467.76,2282.03C1467.74,2282.11 1467.73,2282.19 1467.72,2282.28C1458.31,2336.35 1435.59,2459.95 1428.24,2482.48C1428.21,2482.57 1428.18,2482.66 1428.15,2482.74C1423.29,2497.13 1407.68,2515.81 1396.73,2522.3C1396.32,2522.54 1395.89,2522.78 1395.46,2523C1389.16,2526.28 1381.05,2527.89 1371.58,2526.3C1361.31,2524.57 1347.46,2518 1334.67,2507.62C1334.56,2507.53 1334.44,2507.44 1334.33,2507.34C1324.4,2499 1303.98,2474.15 1284.24,2446.97C1318.06,2535.74 1328.72,2567.93 1332.81,2581.62C1340.54,2586.23 1347.57,2592.28 1353.85,2599.5C1374.56,2623.32 1386.32,2661.45 1386.28,2696.2C1386.23,2742.38 1364.12,2779.82 1328.93,2785.51C1314.76,2787.8 1301.39,2778.15 1299.1,2763.97C1296.8,2749.8 1306.45,2736.43 1320.63,2734.13C1324.44,2733.52 1326.55,2730.22 1328.39,2726.6C1332.59,2718.36 1334.23,2707.54 1334.24,2696.15C1334.26,2677.13 1329.48,2656.4 1319.93,2640.98C1313.51,2630.63 1304.96,2622.32 1292.85,2623.66C1260.59,2627.24 1223.2,2640.66 1220.89,2640.9C1220.67,2640.92 1220.44,2640.94 1220.22,2640.96C1209.73,2641.76 1193.52,2636.71 1180.64,2629.17C1212.1,2734.56 1251.3,2868.31 1254.48,2884.25C1254.49,2884.31 1254.5,2884.37 1254.51,2884.43C1259.59,2910.83 1261.87,2939.37 1259.78,2956.49C1257.82,2972.57 1250.76,2982.69 1244.6,2987.26C1241.51,2989.55 1237.96,2991.13 1234.19,2991.88C1223.01,2994.12 1213.81,2992.11 1206.36,2987.82C1206.24,2987.75 1206.12,2987.68 1206.01,2987.61C1203.17,2985.92 1199.22,2982.59 1194.53,2977.88C1205.6,3021.14 1214.97,3065.73 1217.67,3086.02C1217.68,3086.06 1217.68,3086.11 1217.69,3086.16C1219.54,3100.65 1217.6,3111.56 1210.31,3127.9C1204.64,3140.58 1190.02,3146.58 1177.08,3141.53C1160.28,3134.97 1150.04,3128.79 1140.24,3118.65C1140.23,3118.63 1140.21,3118.61 1140.19,3118.6C1137.81,3116.12 1132.49,3109.97 1125.17,3101.26C1164.98,3210.93 1216.35,3355.19 1222.88,3383.18C1222.91,3383.29 1222.93,3383.4 1222.96,3383.51C1225.23,3393.89 1228.4,3408.46 1231.98,3424.83L1289.32,3503.11C1289.37,3503.18 1289.42,3503.26 1289.48,3503.33C1329.41,3559.13 1367.7,3616.56 1389.66,3658.42C1389.67,3658.44 1389.68,3658.47 1389.69,3658.49C1401.11,3680.42 1416.91,3723.97 1417.29,3747.84C1417.29,3748.08 1417.29,3748.32 1417.29,3748.55C1417.02,3771.04 1408.47,3784.74 1399.02,3791.26C1398.51,3791.62 1397.98,3791.95 1397.44,3792.27C1393.08,3794.84 1385.82,3797.22 1377.34,3797.66C1368.28,3798.14 1357.68,3796.5 1350.55,3793.48C1350.37,3793.41 1350.19,3793.33 1350.01,3793.25C1334.01,3786.04 1296.64,3753.24 1280.04,3730.35C1280,3730.29 1279.96,3730.24 1279.92,3730.18C1257.69,3699.03 1224.17,3619.78 1209.01,3560.08C1208.99,3560 1208.97,3559.93 1208.95,3559.85C1203.14,3536.1 1192.44,3487.63 1183.5,3446.73C1140.96,3388.69 1092.89,3323.16 1053.36,3269.32C1066.34,3313.66 1082.14,3368.04 1092.51,3404.08C1092.56,3404.26 1092.61,3404.45 1092.66,3404.63C1111.19,3474.88 1123.72,3534.84 1133.15,3595.33C1133.16,3595.39 1133.17,3595.45 1133.18,3595.51C1138.3,3629.97 1136.14,3810.66 1136.14,3823.28C1136.14,4582.07 1417.54,5275.64 1881.62,5805.28C2259.48,5610.09 2703.91,5445.64 3070.21,5323.34C3108.21,5310.65 3149.14,5298.29 3192.82,5286.26C3170.67,5354.64 3152.04,5408.98 3167.28,5423.78C3169.62,5426.04 3172.89,5428.19 3176.96,5430.21C3164.58,5371.21 3255.53,5221.64 3257.88,5093.89C3258.44,5063.45 3254.1,5041.24 3265.29,5033.3C3284.93,5019.38 3326.75,4981.43 3348.96,5075.52C3374.51,5183.8 3403.22,5354.21 3362.33,5454.49C3421.01,5454.39 3471.34,5448.41 3477.48,5436.04C3503.99,5382.65 3509.31,5299.78 3503.88,5214.98C3571.02,5202.06 3641.61,5189.77 3715.1,5178.19C3642.85,5434.27 3540.59,5665.09 3592.71,5715.68C3593.71,5716.66 3594.78,5717.62 3595.91,5718.58C3588.83,5549.58 3800.98,5170.92 3806.73,4858.87C3808.17,4780.81 3803.32,4740.78 3832.02,4720.43C3882.41,4684.7 4001.78,4580.97 4058.74,4822.35C4124.28,5100.1 4197.93,5537.24 4093.04,5794.48C4243.56,5794.22 4372.67,5778.88 4388.43,5747.14C4465.43,5592.1 4472.75,5340.14 4449.24,5093.85C4537.42,5086.9 4627.34,5080.81 4718.61,5075.65C4737.72,5023.68 4754.62,4967.99 4755.58,4916.37C4756.14,4885.94 4746.91,4865.47 4758.1,4857.54C4777.74,4843.61 4819.56,4805.66 4841.76,4899.76C4848.96,4930.28 4859.72,4966.67 4865.74,5004.12C4856.69,5032.2 4846.52,5059.58 4836.13,5086.02C4774.34,5276.51 4723.62,5427.19 4766.12,5469C4756.03,5293.34 4994.7,4907.01 5007.41,4487.39C5010.05,4400.51 5000.68,4382.16 5032.64,4359.5C5088.74,4319.73 5221.7,4205.94 5285.11,4474.65C5358.08,4783.86 5440.07,5270.52 5323.3,5556.9C5490.86,5556.61 5634.6,5539.52 5652.14,5504.2C5708.25,5391.22 5731.13,5232 5732.89,5058.61C6118.33,5067.69 6500.21,5095.41 6849.74,5145.61C7039.75,4758.17 7148.92,4323.96 7155.18,3865.08C7155.37,3851.17 7155.47,3837.24 7155.47,3823.28C7155.47,2217.69 5895.46,904.057 4311.22,818.15C4311.22,818.15 4235.1,815.324 4203.14,816.437C4128.88,819.024 4092.28,823.234 4046.67,836.454L4046.34,836.553C4039.3,864.587 4031.93,891.469 4025.29,911.697C3976.47,1060.43 3839.76,1113.18 3782.31,1112.78C3753.86,1112.59 3738.44,1098.39 3734.33,1085.82C3725.7,1059.35 3731.35,1025.77 3750.52,990.564C3774.74,946.065 3820.56,897.531 3875.11,859.061C3905.85,837.385 3962.25,811.826 4002.56,796.646C4008.47,771.808 4013.87,747.465 4017.98,727.637C3991.98,755.44 3963.29,782.555 3936.72,802.169C3914.83,818.342 3893.95,829.496 3876.77,833.642C3859.24,837.873 3844.18,835.624 3832.27,828.275C3814.6,817.368 3804.67,795.914 3804.38,767.938C3772.87,798.134 3733.99,832.017 3718.62,840.536C3718.57,840.562 3718.53,840.587 3718.48,840.612C3691.82,855.178 3670.64,851.325 3659.65,843.054C3654.9,839.475 3651.56,834.416 3650.1,828.763C3639.05,836.806 3626.81,844.217 3616.09,849.011C3604.65,854.124 3594.22,856.298 3586.85,856.008C3586.45,855.992 3586.05,855.967 3585.65,855.933C3572.92,854.842 3552.13,843.118 3544.74,832.818C3544.5,832.484 3544.27,832.145 3544.05,831.801C3539.95,825.476 3536.39,815.249 3534.91,802.55C3534.86,802.161 3534.82,801.77 3534.78,801.377C3521.64,818.309 3505.73,837.452 3490.42,852.649C3471.93,871.004 3453.09,883.151 3439.97,885.534C3439.68,885.586 3439.39,885.634 3439.1,885.677C3428.97,887.163 3414.88,885.232 3408.26,882.557C3401.11,879.664 3396.88,875.195 3394.57,871.779C3393.94,870.837 3393.36,869.854 3392.85,868.836C3391.72,866.562 3390.39,863.018 3389.84,858.072C3380.29,869.512 3371.62,878.942 3364.81,885.095C3364.77,885.129 3364.73,885.162 3364.7,885.195C3348.4,899.746 3324.57,917.481 3306.34,927.213C3295.05,933.24 3284.94,936.326 3278.07,936.77C3253.43,938.366 3235.17,931.447 3222.06,919.953C3203.83,903.975 3194.66,877.001 3197.16,843.432C3202.05,777.823 3252.1,683.1 3324.14,631.09C3350.75,611.88 3385.09,600.432 3405.13,601.796C3425.08,603.154 3437.11,613.619 3441.49,628.566C3445.53,642.348 3437.62,656.817 3423.84,660.857C3414.55,663.579 3404.96,660.878 3398.45,654.605C3390.13,656.999 3367.3,664.119 3354.61,673.286C3295.34,716.069 3253.08,793.329 3249.06,847.297C3248,861.609 3248.59,874.006 3256.36,880.818C3260.42,884.373 3266.34,885.283 3273.84,884.874C3275.16,884.296 3282.95,880.832 3288.05,877.75C3302.05,869.293 3318.29,856.855 3330.03,846.38C3353.68,824.949 3401.55,759.681 3424.94,716.035C3424.94,716.029 3424.95,716.023 3424.95,716.016C3427.56,711.161 3434.95,695.609 3444.29,675.554C3458.27,635.86 3472.51,595.538 3481.57,570.002C3481.6,569.914 3481.64,569.826 3481.67,569.738C3503.62,509.928 3528.55,451.869 3553.9,405.964C3559.81,395.259 3572.38,390.114 3584.1,393.602C3595.82,397.09 3603.53,408.269 3602.63,420.465C3600.99,442.63 3565.46,530.888 3546.3,577.271C3546.22,577.468 3546.14,577.663 3546.05,577.858C3533.66,605.897 3510.29,657.035 3492.67,694.852L3461.51,783.42C3457.09,796.141 3453.35,808.409 3450.35,819.025C3451.48,817.954 3452.61,816.848 3453.75,815.716C3483.48,786.207 3516.31,739.916 3518.39,736.089C3519.29,734.351 3520.76,731.409 3522.74,727.209C3527.53,717.064 3538.05,711.449 3548.61,712.401C3557.64,690.789 3568.85,671.145 3579.04,656.718C3579.07,656.675 3579.1,656.633 3579.13,656.59C3591.15,639.787 3610.67,617.549 3631.13,599.34C3631.2,599.28 3631.27,599.221 3631.34,599.162C3646.88,585.616 3670.31,571.769 3687.64,564.864C3698.43,560.56 3707.79,558.914 3713.71,559.143C3713.9,559.15 3714.1,559.16 3714.29,559.172C3727.79,559.995 3740.76,566.416 3752.41,581.777C3757.49,574.082 3761.88,568.039 3765.14,564.457C3772.63,556.216 3784.53,553.654 3794.74,558.082C3804.96,562.511 3811.23,572.95 3810.33,584.049C3809.95,588.808 3808.8,596.016 3785.16,643.295C3785.13,643.355 3785.1,643.415 3785.07,643.475C3769.44,674.138 3746.47,711.525 3723.67,744.441C3718.01,758.065 3712.95,771.66 3709.09,783.885C3737.89,761.085 3787.02,714.184 3803.66,694.153C3808.66,688.113 3825.05,665.632 3842.55,641.337C3846.1,634.406 3849.79,627.689 3853.53,621.289C3869.42,594.135 3886.75,572.687 3900.25,562.754C3907.45,557.456 3913.74,557.554 3917.04,557.728C3924.81,558.136 3930.68,561.409 3935.14,566.449C3938.45,570.184 3942.03,575.874 3941.68,584.753C3941.64,585.493 3942.12,590.693 3937.55,597.814C3937.39,598.05 3936.43,599.466 3934.75,601.838C3927.94,611.472 3906.43,641.642 3885.85,670.175C3876.36,689.607 3867.99,710.814 3862.47,730.578C3858.15,746.039 3855.56,760.582 3856.38,772.553C3856.7,777.167 3856.36,781.507 3859.14,783.662C3859.78,783.664 3861.55,783.641 3862.64,783.451C3864.78,783.081 3867.03,782.429 3869.38,781.583C3880.32,777.647 3892.68,769.998 3905.81,760.304C3954.29,724.504 4010.48,661.434 4039.57,620.425C4041.93,617.09 4044.27,613.485 4046.39,610.03C4053.06,586.181 4059.66,565.682 4064.97,554.87C4068.97,546.729 4076.92,541.259 4085.95,540.431C4094.98,539.604 4103.8,543.539 4109.21,550.817C4113.12,556.084 4115.04,562.035 4114.51,569.163C4114.32,571.734 4113.74,574.713 4112.4,578.035C4111.49,580.286 4104.26,615.737 4094.15,632.278L4093.63,633.113C4084.85,665.795 4076.11,704.271 4070.54,730.441C4067.65,744.661 4063.98,761.735 4059.84,779.971C4084.79,774.562 4146.32,766.069 4210.41,764.668C4284.2,763.055 4359.75,768.974 4359.75,768.974C5950.02,879.004 7207.55,2205.45 7207.55,3823.28C7207.55,3838.83 7207.43,3854.34 7207.2,3869.83C7200.33,4329.98 7091.74,4765.66 6902.9,5155.43C6926.37,5162.61 6949.27,5173.55 6949.27,5173.55C6923.19,5374.86 6841.93,5666.3 6763.05,5909.84L6706.88,5880.38C6704.73,5879.25 6702.29,5878.77 6699.87,5879L6540.31,5894.4C6533.9,5895.02 6529.01,5900.4 6529.01,5906.84L6529.01,6067.19C6518.87,6048.92 6507.02,6032.29 6493.49,6017.28C6465.6,5986.36 6429.53,5960.19 6385.18,5938.91C6352.76,5922.56 6322.97,5910.15 6295.83,5901.65C6268.14,5892.96 6236.79,5888.57 6201.77,5888.57C6195.49,5888.57 6188.58,5888.73 6181.05,5889.06C6173.57,5889.39 6165.77,5889.88 6157.67,5890.53C6157.62,5890.53 6157.58,5890.54 6157.54,5890.54L5966.81,5907.86C5960.37,5908.44 5955.44,5913.84 5955.44,5920.31L5955.44,6296.84L5853.55,5935.91C5852.62,5932.6 5850.37,5929.83 5847.33,5928.23L5755.63,5880.13C5753.5,5879.02 5751.1,5878.54 5748.71,5878.75L5597.41,5892.22C5592.18,5892.68 5587.8,5896.37 5586.44,5901.44L5435.88,6464.77L5389.19,6377.53C5457.18,6330 5491.68,6255.36 5491.68,6153.12C5491.68,6110.68 5483.57,6072.81 5467.52,6039.47C5451.47,6006.12 5429.63,5977.67 5402.02,5954.09C5374.55,5930.64 5343.57,5912.87 5309.08,5900.81C5274.74,5888.8 5239.13,5882.79 5202.25,5882.79L5188.95,5882.79C5183.92,5882.79 5178.71,5883.14 5173.35,5883.83C5173.36,5883.83 4943.43,5904.97 4943.43,5904.97C4937,5905.57 4932.08,5910.96 4932.08,5917.42L4932.08,6327.44L4821.35,5935.19C4820.42,5931.89 4818.17,5929.11 4815.13,5927.52L4723.43,5879.41C4721.3,5878.3 4718.9,5877.82 4716.51,5878.03L4565.21,5891.5C4559.98,5891.97 4555.6,5895.65 4554.24,5900.73L4482.07,6170.74C4482.07,6170.01 4482.08,6169.26 4482.08,6168.51C4482.08,6106.64 4468.95,6056.45 4443.31,6017.78C4417.68,5979.12 4380.29,5948.23 4330.96,5925.36C4305.44,5912.96 4281.15,5902.85 4258.11,5895.01C4234.2,5886.87 4209.32,5882.79 4183.48,5882.79L4172.93,5882.79C4169.04,5882.79 4164.98,5883.14 4160.74,5883.86C4160.75,5883.86 3923.72,5905.94 3923.72,5905.94C3917.3,5906.54 3912.38,5911.93 3912.38,5918.38L3912.38,6649.52C3912.38,6654.17 3914.96,6658.43 3919.08,6660.59L4010.78,6708.69C4012.91,6709.81 4015.32,6710.29 4017.72,6710.07L4175.44,6695.64C4181.88,6695.05 4186.81,6689.65 4186.81,6683.19L4186.81,6458.95C4186.81,6458.95 4252.42,6453.21 4252.42,6453.21C4323.31,6447.13 4379.29,6418.9 4420.53,6368.86C4425.26,6363.13 4429.72,6357.17 4433.9,6350.98L4353.42,6652.07C4351.91,6657.71 4354.52,6663.65 4359.69,6666.36L4451.39,6714.46C4453.53,6715.59 4455.94,6716.06 4458.35,6715.84L4614.24,6701.41C4619.45,6700.93 4623.81,6697.25 4625.16,6692.19L4667.85,6532.25C4667.85,6532.25 4721.39,6527.27 4721.39,6527.27C4721.39,6527.27 4752.4,6631.91 4752.4,6631.91C4753.36,6635.15 4755.59,6637.86 4758.58,6639.43L4850.28,6687.53C4852.39,6688.63 4854.78,6689.11 4857.15,6688.91L4975.35,6678.82L5030.47,6707.73C5032.6,6708.85 5035.02,6709.33 5037.41,6709.11L5195.14,6694.68C5201.57,6694.09 5206.5,6688.69 5206.5,6682.23L5206.5,6557.53C5206.5,6557.53 5248.05,6636.12 5248.05,6636.12C5249.23,6638.36 5251.06,6640.18 5253.3,6641.35L5345,6689.45C5347.11,6690.56 5349.51,6691.04 5351.89,6690.83L5425.05,6684.47L5483.59,6715.18C5485.73,6716.3 5488.14,6716.78 5490.55,6716.56L5646.44,6702.13C5651.65,6701.65 5656.01,6697.96 5657.36,6692.9C5657.36,6692.9 5690.95,6567.04 5700.05,6532.97C5700.05,6532.97 5753.59,6527.99 5753.59,6527.99C5753.59,6527.99 5784.6,6632.62 5784.6,6632.62C5785.56,6635.86 5787.79,6638.57 5790.78,6640.14L5882.48,6688.24C5884.59,6689.35 5886.98,6689.83 5889.35,6689.63L5996.4,6680.49L6053.83,6710.61C6055.96,6711.73 6058.37,6712.21 6060.77,6711.99L6261.59,6693.72C6261.62,6693.71 6261.64,6693.71 6261.67,6693.71C6323.12,6687.73 6377.26,6669.22 6424.14,6638.31C6439.06,6628.47 6452.99,6617.29 6465.91,6604.75ZM2536.57,6893.26C2536.57,6893.26 2417.9,7141.07 2417.9,7247.28C2417.9,7312.78 2471.07,7365.95 2536.57,7365.95C2602.06,7365.95 2655.23,7312.78 2655.23,7247.28C2655.23,7141.07 2536.57,6893.26 2536.57,6893.26ZM5700.21,7127.81C5751.09,7127.81 5792.4,7171.15 5792.4,7224.53C5792.4,7277.91 5751.09,7321.24 5700.21,7321.24C5649.33,7321.24 5608.02,7277.91 5608.02,7224.53C5608.02,7171.15 5649.33,7127.81 5700.21,7127.81ZM2274.82,6703.95C2317.09,6703.95 2351.41,6738.27 2351.41,6780.54C2351.41,6822.81 2317.09,6857.13 2274.82,6857.13C2232.55,6857.13 2198.23,6822.81 2198.23,6780.54C2198.23,6738.27 2232.55,6703.95 2274.82,6703.95ZM3170.54,5922.96L3089.35,5880.38C3087.2,5879.25 3084.76,5878.77 3082.35,5879L2922.79,5894.4C2916.38,5895.02 2911.49,5900.4 2911.49,5906.84L2911.49,6637.98C2911.49,6642.66 2914.11,6646.95 2918.28,6649.09L3009.97,6696.23C3012.08,6697.32 3014.45,6697.78 3016.82,6697.57L3176.37,6683.13C3182.81,6682.55 3187.74,6677.15 3187.74,6670.69L3187.74,6667.07L3268.93,6709.65C3271.07,6710.77 3273.48,6711.25 3275.88,6711.03L3433.6,6696.6C3440.03,6696.01 3444.96,6690.62 3444.96,6684.15L3444.96,6530.3C3444.96,6530.3 3489.72,6636.11 3489.72,6636.11C3490.85,6638.78 3492.87,6640.97 3495.43,6642.31L3587.13,6690.41C3589.26,6691.53 3591.66,6692.01 3594.06,6691.79L3743.53,6678.32C3749.97,6677.74 3754.9,6672.34 3754.9,6665.88L3754.9,5933.78C3754.9,5929.13 3752.33,5924.86 3748.21,5922.71L3656.51,5874.61C3654.36,5873.48 3651.92,5873 3649.5,5873.23L3489.95,5888.62C3483.54,5889.24 3478.65,5894.63 3478.65,5901.07L3478.65,6048.56C3478.65,6048.56 3434.73,5948.94 3434.73,5948.94C3433.59,5946.35 3431.6,5944.22 3429.1,5942.91L3337.4,5894.81C3335.27,5893.69 3332.86,5893.21 3330.46,5893.43L3181.91,5906.9C3175.47,5907.48 3170.54,5912.88 3170.54,5919.35L3170.54,5922.96ZM6216.44,6457.12C6247.62,6443.01 6270.85,6420.08 6286.13,6388.33C6301.42,6356.58 6309.06,6313.45 6309.06,6258.94C6309.06,6190.96 6299.89,6142.21 6281.55,6112.71C6279.1,6112.07 6276.66,6111.75 6274.21,6111.75L6266.88,6111.75C6261.37,6111.75 6256.03,6111.91 6250.83,6112.23C6245.63,6112.55 6240.28,6113.03 6234.78,6113.67L6216.44,6114.64L6216.44,6457.12ZM4174.31,6225.27C4186.53,6216.29 4196.01,6205.07 4202.73,6191.6C4209.46,6178.13 4212.82,6160.49 4212.82,6138.69C4212.82,6125.22 4211.9,6114.64 4210.07,6106.94L4174.31,6109.83L4174.31,6225.27ZM5194,6210.84C5215.39,6194.8 5226.09,6167.87 5226.09,6130.03C5226.09,6125.54 5225.94,6121.37 5225.63,6117.52C5225.33,6113.67 5224.87,6109.83 5224.26,6105.98L5194,6108.86L5194,6210.84ZM2296.57,5494.41C2257.56,5519.28 2214.28,5537.98 2168.08,5549.17L1966.66,5549.17C1920.43,5537.98 1877.14,5519.27 1838.15,5494.41L2296.57,5494.41ZM2427.65,5363.47C2415.27,5382.84 2401.37,5401.15 2386.13,5418.22L1748.6,5418.22C1733.36,5401.14 1719.46,5382.83 1707.09,5363.47L2427.65,5363.47ZM2483.11,5232.52C2478.67,5251.28 2472.99,5269.57 2466.18,5287.27L1668.56,5287.27C1661.73,5269.55 1656.06,5251.27 1651.62,5232.52L2483.11,5232.52ZM1640.74,5156.32C1640.3,5147.85 1640.11,5139.32 1640.18,5130.74C1641.94,4894.97 1834.78,4704.98 2070.55,4706.74C2306.33,4708.5 2496.31,4901.35 2494.55,5137.12C2494.51,5143.56 2494.32,5149.96 2493.99,5156.32L1640.74,5156.32ZM1260.98,3553.09C1275.12,3605.77 1303.02,3672.91 1322.24,3699.89C1332.18,3713.56 1351.76,3732.77 1364.63,3741.75C1361.95,3723.49 1351.03,3696.94 1343.54,3682.53C1324.97,3647.16 1294.21,3600.31 1260.98,3553.09ZM822.282,2744.36C821.315,2742.01 820.58,2739.45 820.067,2736.53C816.466,2714.69 816.497,2671.59 817.653,2648.35C818.499,2633.19 821.782,2593.14 822.361,2585.67C823.472,2571.35 812.749,2558.82 798.431,2557.71C784.112,2556.6 771.585,2567.33 770.474,2581.64C769.884,2589.26 766.541,2630.15 765.688,2645.51C765.685,2645.56 765.682,2645.61 765.68,2645.65C764.371,2671.84 764.664,2720.55 768.73,2745.08C768.74,2745.14 768.75,2745.2 768.76,2745.26C771.699,2762.25 777.758,2774.28 787.124,2785.94C793.992,2794.49 805.486,2797.82 815.861,2794.26L820.219,2792.76C833.803,2788.1 841.045,2773.28 836.382,2759.7C833.933,2752.57 828.684,2747.18 822.282,2744.36ZM2851.91,820.77L2851.76,820.126C2851.77,820.155 2851.83,820.371 2851.91,820.77L2852.4,822.954C2848.7,800.992 2832.45,780.18 2816.76,773.905C2816.41,773.764 2816.05,773.63 2815.69,773.505C2808.07,770.836 2795.68,769.727 2784.8,771.115C2775.76,772.269 2767.81,775.215 2762.84,778.49C2762.72,778.571 2762.6,778.653 2762.48,778.736C2757.2,782.344 2749.06,789.524 2742.95,797.375C2737.25,804.699 2733.42,812.732 2732.14,819.559C2724.94,858.027 2731.65,972.627 2717.06,1060.31C2712.76,1086.12 2706.72,1109.4 2697.07,1126.56C2691.77,1136 2685.65,1143.53 2677.09,1146.34C2670.93,1142.42 2655.27,1132.34 2646.12,1125.45C2654.41,1111.86 2661.35,1099.33 2665.9,1089.39C2677.32,1078.24 2686.91,1060.82 2693.23,1039.17C2707.36,990.88 2707.13,920.119 2694.97,876.163C2689.17,855.22 2680.06,839.619 2670.22,831.226C2658.58,821.288 2645.27,818.067 2630.62,822.204C2618.56,825.613 2595.24,839.262 2583.7,862.45C2583.65,862.54 2583.61,862.629 2583.56,862.719C2566.74,897.515 2555.95,973.826 2557.51,1006.7C2557.52,1006.75 2557.52,1006.81 2557.52,1006.87C2558.49,1024.66 2561.86,1051.39 2567.26,1075.96C2567.28,1076.04 2567.3,1076.11 2567.31,1076.18C2570.59,1090.51 2577.6,1109.29 2585,1125.41C2568.4,1150.26 2549.53,1175.36 2535.39,1190.44C2533.84,1180.19 2532.26,1168.04 2531.46,1157.22C2527.41,1102.64 2523.17,1032.9 2503.27,992.752C2494.07,974.204 2481.58,960.915 2466.35,953.845C2456.28,949.167 2444.73,946.884 2431.48,948.283C2444.41,901.372 2456.62,851.428 2457.03,808.808C2457.04,808.374 2457.03,807.939 2457.01,807.505C2455.6,772.68 2447.32,753.066 2439.15,743.934C2431.61,735.495 2422.85,731.75 2413.77,731.048C2403.77,730.277 2391.99,733.674 2380.59,743.6C2368.58,754.06 2355.17,774.082 2344.49,799.221C2329.77,833.874 2319.68,878.335 2322.52,916.223C2324.05,936.581 2326.86,1054.96 2331.69,1160.43C2327.5,1180.65 2323.78,1197.08 2321.43,1205.98C2310.99,1245.16 2275.55,1312.21 2261.69,1367.17C2258.07,1381.57 2252.31,1393.82 2245.69,1402.51C2245.49,1400.94 2245.37,1399.34 2245.34,1397.8C2244.79,1368.33 2240.54,1189.7 2238,1045.48C2238.61,1040.25 2239.17,1035.11 2239.69,1030.1C2264.4,1002.57 2291.83,972.343 2299.99,963.383C2309.66,952.763 2308.88,936.291 2298.26,926.624C2287.64,916.956 2271.17,917.73 2261.5,928.351C2257.98,932.225 2250.89,940.026 2241.99,949.86C2240.45,920.001 2237.42,888.395 2236.28,879.524C2235.36,872.296 2233.18,868.454 2232.85,867.851C2227.1,857.511 2215.1,852.346 2203.64,855.28C2192.18,858.214 2184.15,868.508 2184.08,880.337C2183.92,907.996 2184.48,956.301 2185.4,1012.74C2174.4,1025.07 2165.11,1035.61 2159.98,1041.67C2159.98,1041.67 2159.98,1041.67 2159.97,1041.68C2138.9,1066.61 2102.5,1114.83 2088.43,1140.28C2082.32,1151.33 2079.9,1160.39 2079.69,1165.27C2079.07,1179.62 2090.21,1191.77 2104.56,1192.4C2117.81,1192.97 2129.19,1183.51 2131.34,1170.75C2132.67,1168.77 2156.31,1133.55 2177.31,1104.59C2174.5,1121.82 2171.59,1137.27 2168.97,1148.49C2160.34,1184.63 2138.48,1251.82 2122.97,1290.03C2122.55,1289.14 2122.12,1288.27 2121.69,1287.4C2111.21,1266.46 2096.87,1251 2079.37,1242.26C2073.05,1239.1 2065.71,1238.65 2059.05,1241.01C2052.39,1243.38 2046.97,1248.35 2044.05,1254.78C2041.36,1260.71 2039.78,1273.23 2042.02,1288.75L2042.27,1290.38C2040.8,1290.72 2039.26,1291.17 2037.65,1291.77C2035.48,1292.56 2029.89,1294.76 2027.81,1295.58C2018.01,1293.66 2008.05,1295.63 1998.39,1302.3C1990.41,1307.81 1981.87,1318.01 1974.55,1332.43C1953.9,1373.1 1938.46,1453.75 1942.52,1505.62C1944.31,1528.58 1945.03,1577.13 1956.95,1609.47C1958.26,1612.99 1959.69,1616.35 1961.26,1619.54C1956.29,1632 1948.9,1649.44 1941.09,1664.95C1939.41,1668.29 1937.79,1671.55 1936.2,1674.61C1932.11,1656.66 1927.98,1632.48 1924.73,1604.95C1915.35,1520.28 1901.45,1451.06 1885.23,1419.77C1881.84,1413.24 1875.84,1408.44 1868.71,1406.58L1861.75,1404.76C1853.35,1402.56 1844.41,1404.69 1837.91,1410.45C1832.09,1415.61 1820.41,1432.7 1809.6,1467.97C1809.58,1468.02 1809.57,1468.08 1809.55,1468.13C1804.8,1483.98 1799.17,1506.69 1794.08,1531.27C1788.27,1519.2 1779.35,1511.22 1764.05,1503.7C1756.73,1500.1 1748.14,1500.15 1740.86,1503.82C1733.57,1507.5 1728.43,1514.37 1726.97,1522.4C1725.41,1530.99 1724.51,1536.67 1724.15,1539.51C1724.15,1539.54 1724.14,1539.57 1724.14,1539.61C1720.55,1569.23 1735.04,1813.43 1729.58,1900.19C1723.38,1881.58 1717.02,1858.24 1712.02,1830.33C1712.01,1818.12 1711.9,1805.48 1711.73,1792.32C1711.73,1792.19 1711.73,1792.07 1711.73,1791.94C1709.67,1717.06 1703.22,1669.02 1697.95,1652.03C1694.14,1639.78 1681.98,1632.13 1669.29,1634.01C1656.61,1635.88 1647.17,1646.72 1647.07,1659.54C1646.99,1670.38 1647.35,1684.53 1648.04,1700.23C1638.31,1698.68 1628.96,1698.71 1621.65,1700.51C1621.41,1700.57 1621.17,1700.64 1620.93,1700.7C1600.11,1706.48 1571.33,1734.63 1560.92,1754.48C1560.87,1754.59 1560.82,1754.69 1560.76,1754.79C1546.02,1783.87 1528.08,1872.54 1528.22,1916.92C1528.22,1916.97 1528.22,1917.03 1528.22,1917.08C1528.44,1940.59 1534.39,1981.46 1540.16,1998.77C1540.2,1998.9 1540.24,1999.02 1540.29,1999.14C1544.93,2012.41 1556.78,2031.99 1570.54,2047C1581.43,2058.88 1593.72,2067.72 1604.3,2071.24C1604.5,2071.31 1604.7,2071.37 1604.9,2071.43C1619.28,2075.84 1646.43,2072.97 1658.18,2066.46C1658.57,2066.25 1658.95,2066.02 1659.32,2065.79C1666.22,2061.5 1673.9,2053.4 1680.55,2042.31C1691.71,2023.7 1701.31,1995.54 1704.13,1975.43L1704.16,1975.21C1707.8,1981.2 1710.93,1985.36 1713.27,1988.06C1721.6,1997.71 1730.2,2000.23 1735.95,2000.66L1734.93,2000.71C1742.85,2001.46 1753.64,1999.49 1762.18,1987.22C1767.97,1978.91 1775.89,1954.16 1780.24,1918.57C1780.25,1918.47 1780.26,1918.37 1780.27,1918.28C1784.09,1883.92 1782.45,1805.77 1780.06,1729.64C1787.01,1772.43 1793.18,1810.88 1796.73,1828.85L1797.19,1831.33C1797.43,1832.4 1797.66,1833.48 1797.89,1834.55L1798.21,1835.79L1798.28,1836.1L1798.29,1836.1L1798.56,1837.12C1802.5,1850.73 1816.6,1858.68 1830.28,1855.02C1843.97,1851.35 1852.2,1837.41 1848.82,1823.66C1848.06,1820.57 1847.05,1815.54 1845.84,1808.96C1839.42,1768.33 1830.92,1666.08 1831.61,1636.4C1832.67,1597.49 1845.33,1534.9 1855.66,1496.35C1862.44,1527.29 1868.14,1566.78 1873.02,1610.78C1873.03,1610.84 1873.03,1610.9 1873.04,1610.96C1879.06,1662.04 1888.33,1702.72 1894.94,1718.38C1900.45,1731.43 1908.7,1736.79 1913.02,1738.6C1913.47,1738.79 1913.92,1738.97 1914.38,1739.13C1919.24,1740.86 1927.88,1741.76 1936.48,1740.35C1944.52,1739.02 1952.23,1735.78 1956.49,1732.69C1956.77,1732.49 1957.05,1732.28 1957.33,1732.06C1964.25,1726.61 1972.96,1715.22 1981.07,1700.66C1988.81,1686.77 1996.62,1669.75 2002.93,1654.93C2020.54,1658.42 2045.52,1653.22 2077.2,1625.87C2094.77,1610.71 2110.8,1582.89 2122.31,1547.91C2137.83,1500.8 2146.12,1440.28 2143.62,1386.18C2143.22,1377.59 2142.54,1369.15 2141.56,1360.95C2146.79,1354.9 2151.74,1348.31 2155.93,1341.68C2155.99,1341.58 2156.05,1341.48 2156.11,1341.38C2163.63,1329.1 2177.2,1294.46 2190.2,1256.89C2191.73,1327.43 2193.02,1383.39 2193.31,1398.78C2194.23,1447.81 2219.2,1462.75 2238.99,1462.84C2248.79,1462.88 2260.01,1459.29 2270.87,1450.81C2286.8,1438.36 2303.79,1413.1 2312.16,1379.89C2318.62,1354.24 2329.83,1325.95 2340.98,1299.12C2342.32,1310.72 2343.74,1319.85 2345.25,1325.74C2348.68,1339.11 2361.95,1347.48 2375.5,1344.8C2389.04,1342.13 2398.14,1329.34 2396.22,1315.67C2388.9,1263.37 2391.18,1131.9 2409.01,1051.51C2412.47,1035.88 2416.45,1022.33 2421.28,1012.12C2423.03,1008.4 2426.49,1003.61 2427.31,1002.48C2433.88,1000 2439.26,998.999 2443.82,1000.78C2452.64,1004.24 2456.85,1014.58 2461.11,1026.58C2478.6,1075.8 2477.2,1155.85 2483.43,1201.21C2486.08,1220.47 2490.74,1234.99 2496.15,1242.93C2502.23,1251.85 2509.91,1256.47 2517.99,1258.23C2528.2,1260.46 2544.96,1258.1 2562.56,1236.69C2576.62,1223.84 2597.6,1197.41 2617.42,1169.15C2629.57,1178.47 2645.74,1189.42 2656.07,1194.39C2665.37,1198.87 2673.19,1199.58 2677.38,1199.16C2716.07,1195.22 2743.5,1163 2758.44,1113.07C2784.77,1025.08 2775.09,878.197 2782.98,830.935C2784.08,829.649 2787.82,825.319 2790.37,822.946L2792.99,822.584C2794.54,822.437 2794.43,822.441 2796.07,822.367L2796.66,822.388C2797.71,823.979 2799.88,827.478 2800.76,830.328L2800.77,831.363C2801,853.665 2802,965.832 2807.83,1012.79C2807.84,1012.83 2807.84,1012.88 2807.85,1012.92C2814.13,1061.56 2813.97,1092.58 2814.31,1093.93C2817.25,1105.7 2827.94,1113.88 2840.07,1113.63C2852.2,1113.39 2862.56,1104.8 2865.03,1092.93L2921,824.302C2924.51,827.218 2928.62,829.994 2932.72,832.071C2939.41,835.456 2946.07,836.962 2950.39,837.097C2950.77,837.109 2951.16,837.112 2951.54,837.107C2957.55,837.029 2965.55,835.127 2974.26,830.688C2986.34,824.531 3001.59,812.775 3013.56,801.074C3013.63,801.005 3013.7,800.935 3013.77,800.865C3052.27,762.37 3136.79,637.01 3162.19,597.984C3162.23,597.915 3162.28,597.846 3162.32,597.776C3174.61,578.49 3184.31,561.502 3187.09,556.273C3193.84,543.597 3189.03,527.825 3176.35,521.075C3163.68,514.325 3147.9,519.137 3141.15,531.813C3138.61,536.593 3129.72,552.081 3118.5,569.703C3094.14,607.125 3013.97,726.975 2977.1,763.933C2971.25,769.628 2961.57,776.516 2955.09,780.91C2950.89,766.586 2942.29,737.128 2938.93,724.592C2935.81,712.953 2925.1,704.98 2913.06,705.321C2901.01,705.663 2890.78,714.228 2888.32,726.024L2853.7,892.172C2853.1,863.883 2852.9,839.828 2852.81,830.845C2852.76,825.552 2852.18,822.118 2851.91,820.77ZM1651.35,1754.8C1650.07,1754.33 1648.74,1753.88 1647.41,1753.45C1642.82,1751.94 1638.02,1750.27 1634.46,1750.97C1631.38,1751.96 1628.2,1754.66 1624.89,1757.5C1617.54,1763.8 1610.56,1771.97 1607.09,1778.51C1594.54,1803.47 1580.16,1878.89 1580.26,1916.7C1580.45,1935.53 1584.86,1968.12 1589.48,1982.15C1592.46,1990.51 1600.3,2002.45 1608.9,2011.83C1612.86,2016.15 1616.59,2020.31 1620.42,2021.75C1623.2,2022.43 1629.13,2021.46 1632.02,2020.91C1633.59,2018.73 1637.07,2013.73 1639,2009.92C1645.5,1997.06 1650.86,1980.52 1652.6,1968.19C1658.27,1927.57 1659.96,1885.12 1659.98,1834.93L1659.8,1833.87C1656.72,1815.62 1653.68,1785.77 1651.35,1754.8ZM1739.38,1948.87L1738.15,1948.8L1738.07,1948.79L1739.38,1948.87ZM1736.22,1948.81L1736.11,1948.81L1737.8,1948.79L1736.22,1948.81ZM2014.39,1604.24C2016.12,1604.29 2018.12,1603.03 2020.69,1601.89C2027.27,1598.97 2034.64,1593.86 2043.2,1586.47C2055.36,1575.98 2064.91,1555.85 2072.88,1531.63C2086.22,1491.12 2093.44,1439.4 2091.79,1392.59C2090.77,1392.61 2089.79,1392.57 2088.87,1392.49C2082.88,1391.95 2077.25,1389.36 2072.96,1385.14C2067.23,1379.53 2062.01,1371.86 2057.37,1354.9C2057.35,1354.85 2057.34,1354.81 2057.33,1354.76C2056.45,1351.49 2055.23,1347.02 2053.85,1341.81C2053.1,1341.89 2052.35,1341.94 2051.6,1341.96C2046.12,1343.71 2035.75,1346.65 2026.7,1347.17C2024.3,1350.86 2019.48,1358.6 2016.73,1365.26C2008.77,1384.59 2002.2,1410.54 1998.15,1436.6C1994.57,1459.67 1992.94,1482.85 1994.4,1501.56C1995.68,1517.96 1995.87,1549.03 2001.39,1575.56C2002.86,1582.6 2004.67,1589.28 2007.2,1594.99C2010.3,1597.51 2012.75,1600.69 2014.39,1604.24ZM2032.27,1334.11L2032.37,1334.21L2032.09,1333.92L2032.27,1334.11ZM2031.09,1332.82L2031.3,1333.04L2030.97,1332.67L2031.09,1332.82ZM2638.88,875.479C2635.77,877.803 2632.51,881.243 2630.33,885.548C2616.52,914.293 2608.22,977.032 2609.49,1004.17C2610.36,1019.78 2613.35,1043.16 2618.07,1064.7L2618.74,1067.45C2619.25,1066.3 2619.72,1065.18 2620.14,1064.12C2621.91,1059.63 2624.91,1055.72 2628.78,1052.84C2638.91,1045.28 2643.6,1027.37 2647.41,1007.05C2654.58,968.874 2653.45,921.287 2644.81,890.038C2643.43,885.058 2640.83,879.365 2638.88,875.479ZM3986.67,859.014C3956.84,871.822 3924.99,887.569 3905.1,901.594C3857.66,935.047 3817.29,976.748 3796.23,1015.45C3787.38,1031.71 3781.54,1046.97 3782.14,1060.23C3787.12,1060.25 3794.25,1060.03 3800.14,1058.93C3853.04,1049 3941.11,1001.3 3975.84,895.467C3979.31,884.91 3982.97,872.479 3986.67,859.014ZM2403.76,796.82C2399.82,803.277 2396.01,811.062 2392.39,819.573C2380.7,847.076 2372.16,882.262 2374.42,912.332C2374.89,918.603 2375.45,934.384 2376.14,956.276C2390.08,907.461 2404.41,854.081 2404.98,808.97C2404.79,804.865 2404.33,800.702 2403.76,796.82ZM3710.21,612.54C3701.55,616.575 3676.99,628.455 3665.62,638.317C3648.28,653.763 3631.71,672.554 3621.49,686.824C3611.1,701.554 3599.46,722.914 3591.55,745.787C3587.27,758.722 3585.47,776.058 3586.11,790.163C3586.28,794.126 3587.22,799.445 3587.77,802.286L3589.66,803.332C3592.31,802.365 3597.12,800.515 3600.45,798.753C3612.74,792.257 3626.45,782.381 3634.91,773.816C3646.96,761.3 3662.19,741.784 3677.76,719.568C3680.26,713.567 3682.87,707.604 3685.56,701.757C3685.57,701.737 3685.58,701.716 3685.59,701.696C3694.03,683.513 3708.3,656.435 3722.8,630.866C3720.37,628.719 3718.31,626.074 3716.78,622.992C3714.92,619.239 3712.02,615.023 3710.21,612.54Z" style="fill:white;"/>
    <path id="weiss-augen" serif:id="weiss augen" d="M4547.72,7365.17C4547.72,7365.17 4349.4,7627.11 4349.4,7739.37C4349.4,7848.82 4438.26,7937.69 4547.72,7937.69C4657.18,7937.69 4746.04,7848.82 4746.04,7739.37C4746.04,7627.11 4547.72,7365.17 4547.72,7365.17ZM5324.64,5556.89C5491.64,5556.51 5634.65,5539.43 5652.14,5504.2C5708.25,5391.22 5731.13,5232 5732.89,5058.61C6118.33,5067.69 6500.21,5095.41 6849.74,5145.61C7039.75,4758.17 7148.92,4323.96 7155.18,3865.08C7155.37,3851.17 7155.47,3837.24 7155.47,3823.28C7155.47,2217.69 5895.46,904.057 4311.22,818.15C4311.22,818.15 4235.1,815.324 4203.14,816.437C4128.88,819.024 4092.28,823.234 4046.67,836.454L4046.34,836.553C4039.3,864.587 4031.93,891.469 4025.29,911.697C3976.47,1060.43 3839.76,1113.18 3782.31,1112.78C3753.86,1112.59 3738.44,1098.39 3734.33,1085.82C3725.7,1059.35 3731.35,1025.77 3750.52,990.564C3774.74,946.065 3820.56,897.531 3875.11,859.061C3905.85,837.385 3962.25,811.826 4002.56,796.646C4008.47,771.808 4013.87,747.465 4017.98,727.637C3991.98,755.44 3963.29,782.555 3936.72,802.169C3914.83,818.342 3893.95,829.496 3876.77,833.642C3859.24,837.873 3844.18,835.624 3832.27,828.275C3814.6,817.368 3804.67,795.914 3804.38,767.938C3772.87,798.134 3733.99,832.017 3718.62,840.536C3718.57,840.562 3718.53,840.587 3718.48,840.612C3691.82,855.178 3670.64,851.325 3659.65,843.054C3654.9,839.475 3651.56,834.416 3650.1,828.763C3639.05,836.806 3626.81,844.217 3616.09,849.011C3604.65,854.124 3594.22,856.298 3586.85,856.008C3586.45,855.992 3586.05,855.967 3585.65,855.933C3572.92,854.842 3552.13,843.118 3544.74,832.818C3544.5,832.484 3544.27,832.145 3544.05,831.801C3539.95,825.476 3536.39,815.249 3534.91,802.55C3534.86,802.161 3534.82,801.77 3534.78,801.377C3521.64,818.309 3505.73,837.452 3490.42,852.649C3471.93,871.004 3453.09,883.151 3439.97,885.534C3439.68,885.586 3439.39,885.634 3439.1,885.677C3428.97,887.163 3414.88,885.232 3408.26,882.557C3401.11,879.664 3396.88,875.195 3394.57,871.779C3393.94,870.837 3393.36,869.854 3392.85,868.836C3391.72,866.562 3390.39,863.018 3389.84,858.072C3380.29,869.512 3371.62,878.942 3364.81,885.095C3364.77,885.129 3364.73,885.162 3364.7,885.195C3348.4,899.746 3324.57,917.481 3306.34,927.213C3295.05,933.24 3284.94,936.326 3278.07,936.77C3253.43,938.366 3235.17,931.447 3222.06,919.953C3203.83,903.975 3194.66,877.001 3197.16,843.432C3202.05,777.823 3252.1,683.1 3324.14,631.09C3350.75,611.88 3385.09,600.432 3405.13,601.796C3425.08,603.154 3437.11,613.619 3441.49,628.566C3445.53,642.348 3437.62,656.817 3423.84,660.857C3414.55,663.579 3404.96,660.878 3398.45,654.605C3390.13,656.999 3367.3,664.119 3354.61,673.286C3295.34,716.069 3253.08,793.329 3249.06,847.297C3248,861.609 3248.59,874.006 3256.36,880.818C3260.42,884.373 3266.34,885.283 3273.84,884.874C3275.16,884.296 3282.95,880.832 3288.05,877.75C3302.05,869.293 3318.29,856.855 3330.03,846.38C3353.68,824.949 3401.55,759.681 3424.94,716.035C3424.94,716.029 3424.95,716.023 3424.95,716.016C3427.56,711.161 3434.95,695.609 3444.29,675.554C3458.27,635.86 3472.51,595.538 3481.57,570.002C3481.6,569.914 3481.64,569.826 3481.67,569.738C3503.62,509.928 3528.55,451.869 3553.9,405.964C3559.81,395.259 3572.38,390.114 3584.1,393.602C3595.82,397.09 3603.53,408.269 3602.63,420.465C3600.99,442.63 3565.46,530.888 3546.3,577.271C3546.22,577.468 3546.14,577.663 3546.05,577.858C3533.66,605.897 3510.29,657.035 3492.67,694.852L3461.51,783.42C3457.09,796.141 3453.35,808.409 3450.35,819.025C3451.48,817.954 3452.61,816.848 3453.75,815.716C3483.48,786.207 3516.31,739.916 3518.39,736.089C3519.29,734.351 3520.76,731.409 3522.74,727.209C3527.53,717.064 3538.05,711.449 3548.61,712.401C3557.64,690.789 3568.85,671.145 3579.04,656.718C3579.07,656.675 3579.1,656.633 3579.13,656.59C3591.15,639.787 3610.67,617.549 3631.13,599.34C3631.2,599.28 3631.27,599.221 3631.34,599.162C3646.88,585.616 3670.31,571.769 3687.64,564.864C3698.43,560.56 3707.79,558.914 3713.71,559.143C3713.9,559.15 3714.1,559.16 3714.29,559.172C3727.79,559.995 3740.76,566.416 3752.41,581.777C3757.49,574.082 3761.88,568.039 3765.14,564.457C3772.63,556.216 3784.53,553.654 3794.74,558.082C3804.96,562.511 3811.23,572.95 3810.33,584.049C3809.95,588.808 3808.8,596.016 3785.16,643.295C3785.13,643.355 3785.1,643.415 3785.07,643.475C3769.44,674.138 3746.47,711.525 3723.67,744.441C3718.01,758.065 3712.95,771.66 3709.09,783.885C3737.89,761.085 3787.02,714.184 3803.66,694.153C3808.66,688.113 3825.05,665.632 3842.55,641.337C3846.1,634.406 3849.79,627.689 3853.53,621.289C3869.42,594.135 3886.75,572.687 3900.25,562.754C3907.45,557.456 3913.74,557.554 3917.04,557.728C3924.81,558.136 3930.68,561.409 3935.14,566.449C3938.45,570.184 3942.03,575.874 3941.68,584.753C3941.64,585.493 3942.12,590.693 3937.55,597.814C3937.39,598.05 3936.43,599.466 3934.75,601.838C3927.94,611.472 3906.43,641.642 3885.85,670.175C3876.36,689.607 3867.99,710.814 3862.47,730.578C3858.15,746.039 3855.56,760.582 3856.38,772.553C3856.7,777.167 3856.36,781.507 3859.14,783.662C3859.78,783.664 3861.55,783.641 3862.64,783.451C3864.78,783.081 3867.03,782.429 3869.38,781.583C3880.32,777.647 3892.68,769.998 3905.81,760.304C3954.29,724.504 4010.48,661.434 4039.57,620.425C4041.93,617.09 4044.27,613.485 4046.39,610.03C4053.06,586.181 4059.66,565.682 4064.97,554.87C4068.97,546.729 4076.92,541.259 4085.95,540.431C4094.98,539.604 4103.8,543.539 4109.21,550.817C4113.12,556.084 4115.04,562.035 4114.51,569.163C4114.32,571.734 4113.74,574.713 4112.4,578.035C4111.49,580.286 4104.26,615.737 4094.15,632.278L4093.63,633.113C4084.85,665.795 4076.11,704.271 4070.54,730.441C4067.65,744.661 4063.98,761.735 4059.84,779.971C4084.79,774.562 4146.32,766.069 4210.41,764.668C4284.2,763.055 4359.75,768.974 4359.75,768.974C5950.02,879.004 7207.55,2205.45 7207.55,3823.28C7207.55,3838.83 7207.43,3854.34 7207.2,3869.83C7200.33,4329.98 7091.74,4765.66 6902.9,5155.43C6926.37,5162.61 6949.27,5173.55 6949.27,5173.55C6923.19,5374.86 6841.93,5666.3 6763.05,5909.84L6706.88,5880.38C6704.73,5879.25 6702.29,5878.77 6699.87,5879L6540.31,5894.4C6533.9,5895.02 6529.01,5900.4 6529.01,5906.84L6529.01,6067.19C6518.87,6048.92 6507.02,6032.29 6493.49,6017.28C6465.6,5986.36 6429.53,5960.19 6385.18,5938.91C6352.76,5922.56 6322.97,5910.15 6295.83,5901.65C6268.14,5892.96 6236.79,5888.57 6201.77,5888.57C6195.49,5888.57 6188.58,5888.73 6181.05,5889.06C6173.57,5889.39 6165.77,5889.88 6157.67,5890.53C6157.62,5890.53 6157.58,5890.54 6157.54,5890.54L5966.81,5907.86C5960.37,5908.44 5955.44,5913.84 5955.44,5920.31L5955.44,6296.84L5853.55,5935.91C5852.62,5932.6 5850.37,5929.83 5847.33,5928.23L5755.63,5880.13C5753.5,5879.02 5751.1,5878.54 5748.71,5878.75L5597.41,5892.22C5592.18,5892.68 5587.8,5896.37 5586.44,5901.44L5435.88,6464.77L5389.19,6377.53C5457.18,6330 5491.68,6255.36 5491.68,6153.12C5491.68,6110.68 5483.57,6072.81 5467.52,6039.47C5451.47,6006.12 5429.63,5977.67 5402.02,5954.09C5374.55,5930.64 5343.57,5912.87 5309.08,5900.81C5274.74,5888.8 5239.13,5882.79 5202.25,5882.79L5188.95,5882.79C5183.92,5882.79 5178.71,5883.14 5173.35,5883.83C5173.36,5883.83 4943.43,5904.97 4943.43,5904.97C4937,5905.57 4932.08,5910.96 4932.08,5917.42L4932.08,6327.44L4821.35,5935.19C4820.42,5931.89 4818.17,5929.11 4815.13,5927.52L4723.43,5879.41C4721.3,5878.3 4718.9,5877.82 4716.51,5878.03L4565.21,5891.5C4559.98,5891.97 4555.6,5895.65 4554.24,5900.73L4482.07,6170.74C4482.07,6170.01 4482.08,6169.26 4482.08,6168.51C4482.08,6106.64 4468.95,6056.45 4443.31,6017.78C4417.68,5979.12 4380.29,5948.23 4330.96,5925.36C4305.44,5912.96 4281.15,5902.85 4258.11,5895.01C4234.2,5886.87 4209.32,5882.79 4183.48,5882.79L4172.93,5882.79C4169.04,5882.79 4164.98,5883.14 4160.74,5883.86C4160.75,5883.86 3923.72,5905.94 3923.72,5905.94C3917.3,5906.54 3912.38,5911.93 3912.38,5918.38L3912.38,6649.52C3912.38,6654.17 3914.96,6658.43 3919.08,6660.59L4010.78,6708.69C4012.91,6709.81 4015.32,6710.29 4017.72,6710.07L4175.44,6695.64C4181.88,6695.05 4186.81,6689.65 4186.81,6683.19L4186.81,6458.95C4186.81,6458.95 4252.42,6453.21 4252.42,6453.21C4323.31,6447.13 4379.29,6418.9 4420.53,6368.86C4425.26,6363.13 4429.72,6357.17 4433.9,6350.98L4353.42,6652.07C4351.91,6657.71 4354.52,6663.65 4359.69,6666.36L4451.39,6714.46C4453.53,6715.59 4455.94,6716.06 4458.35,6715.84L4614.24,6701.41C4619.45,6700.93 4623.81,6697.25 4625.16,6692.19L4667.85,6532.25C4667.85,6532.25 4721.39,6527.27 4721.39,6527.27C4721.39,6527.27 4752.4,6631.91 4752.4,6631.91C4753.36,6635.15 4755.59,6637.86 4758.58,6639.43L4850.28,6687.53C4852.39,6688.63 4854.78,6689.11 4857.15,6688.91L4975.35,6678.82L5030.47,6707.73C5032.6,6708.85 5035.02,6709.33 5037.41,6709.11L5195.14,6694.68C5201.57,6694.09 5206.5,6688.69 5206.5,6682.23L5206.5,6557.53C5206.5,6557.53 5248.05,6636.12 5248.05,6636.12C5249.23,6638.36 5251.06,6640.18 5253.3,6641.35L5345,6689.45C5347.11,6690.56 5349.51,6691.04 5351.89,6690.83L5425.05,6684.47L5483.59,6715.18C5485.73,6716.3 5488.14,6716.78 5490.55,6716.56L5646.44,6702.13C5651.65,6701.65 5656.01,6697.96 5657.36,6692.9C5657.36,6692.9 5690.95,6567.04 5700.05,6532.97C5700.05,6532.97 5753.59,6527.99 5753.59,6527.99C5753.59,6527.99 5784.6,6632.62 5784.6,6632.62C5785.56,6635.86 5787.79,6638.57 5790.78,6640.14L5882.48,6688.24C5884.59,6689.35 5886.98,6689.83 5889.35,6689.63L5996.4,6680.49L6053.83,6710.61C6055.96,6711.73 6058.37,6712.21 6060.77,6711.99L6261.59,6693.72C6261.62,6693.71 6261.64,6693.71 6261.67,6693.71C6323.12,6687.73 6377.26,6669.22 6424.14,6638.31C6439.06,6628.47 6452.99,6617.29 6465.91,6604.75C6445.49,6639.44 6421.44,6679.03 6392.54,6725.26C6299.37,6874.26 6222.2,6971.32 6108.31,6896.55C6019.93,6838.52 6047.47,6747.24 5909.47,6774.62C5836.01,6789.2 5790.83,6925.38 5742.82,6986.38C5707.7,7031.01 5668.61,7017.67 5628.03,6975.54C5512.45,6855.53 5457.97,6810.1 5296.24,6972.12C5102.59,7166.12 4930.74,6664.12 4693.18,6917.02C4660.24,6952.09 4623.13,7049.04 4558.87,7081.18C4487.15,7117.03 4405.94,6928.17 4335.02,6999.1C4237.31,7096.81 4190.53,7311.37 4170.86,7446.8C4141.78,7647 3847.01,7637.1 3805.24,7469.18C3759.51,7285.32 3712.22,7115.01 3596.31,6999.1C3517.56,6920.34 3478.09,7242.19 3290.38,7148.33C3174.76,7090.52 3217,6937.74 3118.76,6872.25C3017.64,6804.83 2903.55,6846.72 2805.37,6797.63C2744.95,6767.42 2710.46,6691.38 2648.68,6670.78C2609.37,6657.68 2550.04,6666.24 2514.37,6648.4C2462.51,6622.47 2467.68,6546.71 2417.37,6521.55C2380.96,6503.35 2293.85,6529.01 2253.21,6529.01C2190.22,6529.01 2016.86,6454.67 1997.98,6416.91C1989.03,6399.02 1966.35,6364.68 1945.75,6364.68C1918.23,6364.68 1821.98,6412.53 1796.51,6387.06C1713.09,6303.64 1657.62,6110.66 1626.09,5984.54C1623.9,5975.76 1608.8,5934.69 1618.63,5924.85C1638.77,5904.71 1774.13,5852.57 1826.18,5837.93C1829.07,5835.74 1832.1,5833.56 1835.29,5831.39C1367.45,5293.67 1084.06,4591.31 1084.06,3823.28C1084.06,3818.89 1088.65,3670.77 1081.71,3603.25C1075.26,3540.51 1060.38,3486.34 1042.41,3418.18C1026.97,3364.47 999.527,3270.33 987.343,3229.28C972.853,3184.82 922.796,3090.67 904.231,3056.31C901.291,3051.27 898.939,3046.92 897.312,3043.46C891.331,3030.72 896.557,3015.54 909.11,3009.18C921.663,3002.83 936.995,3007.6 943.721,3019.96C944.977,3022.27 947.634,3027.16 951.288,3033.99C970.798,3067.13 1016.6,3131.06 1044.45,3169.32C1068.28,3201.7 1103.67,3249.89 1141.59,3301.57C1110.98,3213.73 1065.74,3089.64 1043.1,3028.42C1032.11,3000.26 1020.62,2975.71 1008.96,2954.05C1003.21,2946.14 998.09,2938.85 993.836,2932.48C984.425,2918.39 978.968,2907.34 977.581,2901.91C975.48,2893.69 976.936,2887.46 978.603,2883.37C982.232,2874.45 990.485,2868.27 1000.06,2867.3C1009.63,2866.32 1018.96,2870.7 1024.32,2878.7C1034.15,2893.37 1044.05,2909.57 1053.84,2927.63C1084.98,2970.31 1134.29,3031.3 1160.78,3062.92C1152.45,3021.4 1136.88,2957.87 1123.62,2920.86C1111.1,2886.27 1099.47,2856.63 1088.91,2831.57C1056.73,2780.47 1031.68,2725.89 1026.84,2714.4C1024.5,2708.85 1024.16,2705.35 1024.1,2704.77C1023,2693.75 1029,2683.24 1039.05,2678.58C1049.1,2673.92 1060.99,2676.13 1068.7,2684.09C1077.69,2693.38 1101.81,2730.69 1134.27,2805.92C1151.56,2832.3 1181.37,2877.09 1205.57,2909.7C1205.02,2904.28 1204.31,2899 1203.41,2894.3C1198.01,2867.8 1099.17,2535.84 1092.62,2518.62C1092.58,2518.53 1092.55,2518.45 1092.52,2518.36C1091.67,2516.06 1090.27,2512.48 1088.33,2507.68C1083.19,2495.01 1088.75,2480.51 1101.05,2474.52C1113.35,2468.53 1128.19,2473.09 1135.01,2484.94C1164.84,2536.82 1187.39,2567.28 1204.4,2582.64C1207.29,2584.9 1213.33,2587.44 1216.03,2588.52C1225.41,2585.59 1251.95,2577.64 1275.43,2573.61C1268.19,2552.57 1255.42,2517.33 1232.24,2456.66C1230.56,2452.44 1228.88,2448.27 1227.21,2444.11C1225.38,2453.18 1218.75,2460.99 1209.28,2463.87C1195.54,2468.05 1180.99,2460.29 1176.81,2446.55C1174.66,2439.51 1173.53,2431.36 1175.06,2417.7C1175.68,2412.1 1180.68,2383.62 1187.49,2345.94C1086.22,2097.95 1051.6,2031.7 1046.05,2019.82C1040.11,2007.07 1045.37,1991.91 1057.93,1985.58C1070.48,1979.26 1085.8,1984.05 1092.51,1996.41C1114.37,2036.69 1162.88,2128.73 1211.04,2217.36C1219.24,2173 1226.56,2133.68 1230.06,2115.08C1230.07,2115.03 1230.08,2114.97 1230.09,2114.92C1238.36,2072.41 1247.67,2024.62 1248.71,2019.35C1251.49,2005.26 1265.19,1996.08 1279.28,1998.86C1293.37,2001.65 1302.55,2015.34 1299.77,2029.43C1298.73,2034.69 1289.44,2082.35 1281.19,2124.78C1276.1,2151.88 1262.8,2223.18 1250.62,2289.45C1280.61,2343.36 1307.22,2389.22 1322.87,2411.56C1340.39,2436.06 1358.64,2459.69 1367.65,2467.37C1369.88,2469.14 1372.86,2470.96 1375.36,2472.38C1376.86,2470.36 1378.14,2468.11 1378.83,2466.15C1385.97,2443.98 1407.37,2325.5 1416.42,2273.48C1420.51,2248.55 1425.69,2216.35 1426.86,2209.09C1429.14,2194.91 1442.5,2185.25 1456.68,2187.53C1470.86,2189.8 1480.52,2203.17 1478.25,2217.35C1477.07,2224.64 1471.86,2257.01 1467.76,2282.03C1467.74,2282.11 1467.73,2282.19 1467.72,2282.28C1458.31,2336.35 1435.59,2459.95 1428.24,2482.48C1428.21,2482.57 1428.18,2482.66 1428.15,2482.74C1423.29,2497.13 1407.68,2515.81 1396.73,2522.3C1396.32,2522.54 1395.89,2522.78 1395.46,2523C1389.16,2526.28 1381.05,2527.89 1371.58,2526.3C1361.31,2524.57 1347.46,2518 1334.67,2507.62C1334.56,2507.53 1334.44,2507.44 1334.33,2507.34C1324.4,2499 1303.98,2474.15 1284.24,2446.97C1318.06,2535.74 1328.72,2567.93 1332.81,2581.62C1340.54,2586.23 1347.57,2592.28 1353.85,2599.5C1374.56,2623.32 1386.32,2661.45 1386.28,2696.2C1386.23,2742.38 1364.12,2779.82 1328.93,2785.51C1314.76,2787.8 1301.39,2778.15 1299.1,2763.97C1296.8,2749.8 1306.45,2736.43 1320.63,2734.13C1324.44,2733.52 1326.55,2730.22 1328.39,2726.6C1332.59,2718.36 1334.23,2707.54 1334.24,2696.15C1334.26,2677.13 1329.48,2656.4 1319.93,2640.98C1313.51,2630.63 1304.96,2622.32 1292.85,2623.66C1260.59,2627.24 1223.2,2640.66 1220.89,2640.9C1220.67,2640.92 1220.44,2640.94 1220.22,2640.96C1209.73,2641.76 1193.52,2636.71 1180.64,2629.17C1212.1,2734.56 1251.3,2868.31 1254.48,2884.25C1254.49,2884.31 1254.5,2884.37 1254.51,2884.43C1259.59,2910.83 1261.87,2939.37 1259.78,2956.49C1257.82,2972.57 1250.76,2982.69 1244.6,2987.26C1241.51,2989.55 1237.96,2991.13 1234.19,2991.88C1223.01,2994.12 1213.81,2992.11 1206.36,2987.82C1206.24,2987.75 1206.12,2987.68 1206.01,2987.61C1203.17,2985.92 1199.22,2982.59 1194.53,2977.88C1205.6,3021.14 1214.97,3065.73 1217.67,3086.02C1217.68,3086.06 1217.68,3086.11 1217.69,3086.16C1219.54,3100.65 1217.6,3111.56 1210.31,3127.9C1204.64,3140.58 1190.02,3146.58 1177.08,3141.53C1160.28,3134.97 1150.04,3128.79 1140.24,3118.65C1140.23,3118.63 1140.21,3118.61 1140.19,3118.6C1137.81,3116.12 1132.49,3109.97 1125.17,3101.26C1164.98,3210.93 1216.35,3355.19 1222.88,3383.18C1222.91,3383.29 1222.93,3383.4 1222.96,3383.51C1225.23,3393.89 1228.4,3408.46 1231.98,3424.83L1289.32,3503.11C1289.37,3503.18 1289.42,3503.26 1289.48,3503.33C1329.41,3559.13 1367.7,3616.56 1389.66,3658.42C1389.67,3658.44 1389.68,3658.47 1389.69,3658.49C1401.11,3680.42 1416.91,3723.97 1417.29,3747.84C1417.29,3748.08 1417.29,3748.32 1417.29,3748.55C1417.02,3771.04 1408.47,3784.74 1399.02,3791.26C1398.51,3791.62 1397.98,3791.95 1397.44,3792.27C1393.08,3794.84 1385.82,3797.22 1377.34,3797.66C1368.28,3798.14 1357.68,3796.5 1350.55,3793.48C1350.37,3793.41 1350.19,3793.33 1350.01,3793.25C1334.01,3786.04 1296.64,3753.24 1280.04,3730.35C1280,3730.29 1279.96,3730.24 1279.92,3730.18C1257.69,3699.03 1224.17,3619.78 1209.01,3560.08C1208.99,3560 1208.97,3559.93 1208.95,3559.85C1203.14,3536.1 1192.44,3487.63 1183.5,3446.73C1140.96,3388.69 1092.89,3323.16 1053.36,3269.32C1066.34,3313.66 1082.14,3368.04 1092.51,3404.08C1092.56,3404.26 1092.61,3404.45 1092.66,3404.63C1111.19,3474.88 1123.72,3534.84 1133.15,3595.33C1133.16,3595.39 1133.17,3595.45 1133.18,3595.51C1138.3,3629.97 1136.14,3810.66 1136.14,3823.28C1136.14,4582.07 1417.54,5275.64 1881.62,5805.28C2259.48,5610.09 2703.91,5445.64 3070.21,5323.34C3108.21,5310.65 3149.14,5298.29 3192.82,5286.26C3170.67,5354.64 3152.04,5408.98 3167.28,5423.78C3168.11,5424.57 3169.04,5425.36 3170.09,5426.13C3167.85,5394.32 3190.68,5341.92 3214.07,5281.68C3234.92,5222.44 3254.8,5155.55 3257.88,5093.89C3261.07,5030.1 3244.51,4998.35 3263.51,4985.77C3268.05,4982.76 3225.88,4978.28 3247.95,4916.48C3258.65,4886.52 3299.8,4884.21 3320.82,4888.8C3343.35,4893.72 3396.29,4900.82 3341.77,4997.32C3331.54,5015.44 3349.39,5013.61 3359.11,5048.75C3393.2,5172.03 3403.81,5353.85 3362.34,5454.49C3421.01,5454.39 3471.34,5448.41 3477.48,5436.04C3503.99,5382.65 3509.31,5299.78 3503.88,5214.98C3571.02,5202.06 3641.61,5189.77 3715.1,5178.19C3647.51,5417.76 3553.66,5635.21 3584.5,5703.69C3590.43,5605.61 3661.39,5449.77 3723.55,5261.43C3766.52,5128.94 3800.47,4988.06 3806.73,4858.87C3817.04,4646.32 3751.11,4624.66 3772.96,4607.74C3793.93,4591.49 3815.4,4576.25 3825.96,4573.76C3793.03,4519.45 3771.52,4477.83 3784.8,4432.95C3802.9,4371.79 3864.5,4324.16 3946.84,4334.26C4093.21,4352.22 4106.39,4467.96 4047.67,4590.66C4027.84,4632.11 4075.59,4767.51 4089.31,4825.63C4154.85,5103.39 4198.89,5537.35 4093.06,5794.48C4243.58,5794.22 4372.67,5778.87 4388.43,5747.14C4465.43,5592.1 4472.75,5340.14 4449.24,5093.85C4537.42,5086.9 4627.34,5080.81 4718.61,5075.65C4737.72,5023.68 4756,4973.41 4760.66,4921.98C4767.41,4847.66 4736.06,4829.16 4766.86,4814.49C4773.81,4811.19 4732.73,4788.15 4749.96,4744.76C4761.24,4716.36 4811.08,4701.15 4829.8,4705.09C4848.51,4709.03 4872.69,4719.93 4873.06,4754.64C4873.34,4781.02 4865.05,4793.6 4855.95,4810.25C4848.73,4823.45 4833.77,4846.43 4842.73,4846.92C4895.15,4849.82 4886.88,4948.53 4874.17,4986.1C4859.55,5029.32 4848.16,5063.93 4829.32,5122.2C4786.7,5254.01 4731.91,5409.4 4758.79,5459.12C4762.56,5400.31 4787.68,5322.13 4820.94,5230.93C4889.57,5033.23 4997.65,4767.7 5007.41,4487.39C5013.55,4311.36 4982.65,4309.98 4935.62,4243.78C4896.55,4188.78 5013.95,4172.93 5032.73,4178.19C5018.38,4162.59 4978.68,4029.36 5081.62,3959.69C5181.14,3892.34 5361.07,3905.04 5389.12,4006.79C5402.68,4055.98 5398.6,4137.99 5338.1,4236.82C5280.05,4331.66 5300.19,4436.8 5305.23,4469.98C5352.88,4784.28 5474.66,5258.49 5324.64,5556.89ZM2536.57,6893.26C2536.57,6893.26 2417.9,7141.07 2417.9,7247.28C2417.9,7312.78 2471.07,7365.95 2536.57,7365.95C2602.06,7365.95 2655.23,7312.78 2655.23,7247.28C2655.23,7141.07 2536.57,6893.26 2536.57,6893.26ZM5700.21,7127.81C5751.09,7127.81 5792.4,7171.15 5792.4,7224.53C5792.4,7277.91 5751.09,7321.24 5700.21,7321.24C5649.33,7321.24 5608.02,7277.91 5608.02,7224.53C5608.02,7171.15 5649.33,7127.81 5700.21,7127.81ZM2274.82,6703.95C2317.09,6703.95 2351.41,6738.27 2351.41,6780.54C2351.41,6822.81 2317.09,6857.13 2274.82,6857.13C2232.55,6857.13 2198.23,6822.81 2198.23,6780.54C2198.23,6738.27 2232.55,6703.95 2274.82,6703.95ZM3170.54,5922.96L3089.35,5880.38C3087.2,5879.25 3084.76,5878.77 3082.35,5879L2922.79,5894.4C2916.38,5895.02 2911.49,5900.4 2911.49,5906.84L2911.49,6637.98C2911.49,6642.66 2914.11,6646.95 2918.28,6649.09L3009.97,6696.23C3012.08,6697.32 3014.45,6697.78 3016.82,6697.57L3176.37,6683.13C3182.81,6682.55 3187.74,6677.15 3187.74,6670.69L3187.74,6667.07L3268.93,6709.65C3271.07,6710.77 3273.48,6711.25 3275.88,6711.03L3433.6,6696.6C3440.03,6696.01 3444.96,6690.62 3444.96,6684.15L3444.96,6530.3C3444.96,6530.3 3489.72,6636.11 3489.72,6636.11C3490.85,6638.78 3492.87,6640.97 3495.43,6642.31L3587.13,6690.41C3589.26,6691.53 3591.66,6692.01 3594.06,6691.79L3743.53,6678.32C3749.97,6677.74 3754.9,6672.34 3754.9,6665.88L3754.9,5933.78C3754.9,5929.13 3752.33,5924.86 3748.21,5922.71L3656.51,5874.61C3654.36,5873.48 3651.92,5873 3649.5,5873.23L3489.95,5888.62C3483.54,5889.24 3478.65,5894.63 3478.65,5901.07L3478.65,6048.56C3478.65,6048.56 3434.73,5948.94 3434.73,5948.94C3433.59,5946.35 3431.6,5944.22 3429.1,5942.91L3337.4,5894.81C3335.27,5893.69 3332.86,5893.21 3330.46,5893.43L3181.91,5906.9C3175.47,5907.48 3170.54,5912.88 3170.54,5919.35L3170.54,5922.96ZM6216.44,6457.12C6247.62,6443.01 6270.85,6420.08 6286.13,6388.33C6301.42,6356.58 6309.06,6313.45 6309.06,6258.94C6309.06,6190.96 6299.89,6142.21 6281.55,6112.71C6279.1,6112.07 6276.66,6111.75 6274.21,6111.75L6266.88,6111.75C6261.37,6111.75 6256.03,6111.91 6250.83,6112.23C6245.63,6112.55 6240.28,6113.03 6234.78,6113.67L6216.44,6114.64L6216.44,6457.12ZM4174.31,6225.27C4186.53,6216.29 4196.01,6205.07 4202.73,6191.6C4209.46,6178.13 4212.82,6160.49 4212.82,6138.69C4212.82,6125.22 4211.9,6114.64 4210.07,6106.94L4174.31,6109.83L4174.31,6225.27ZM5194,6210.84C5215.39,6194.8 5226.09,6167.87 5226.09,6130.03C5226.09,6125.54 5225.94,6121.37 5225.63,6117.52C5225.33,6113.67 5224.87,6109.83 5224.26,6105.98L5194,6108.86L5194,6210.84ZM2296.57,5494.41C2257.56,5519.28 2214.28,5537.98 2168.08,5549.17L1966.66,5549.17C1920.43,5537.98 1877.14,5519.27 1838.15,5494.41L2296.57,5494.41ZM2427.65,5363.47C2415.27,5382.84 2401.37,5401.15 2386.13,5418.22L1748.6,5418.22C1733.36,5401.14 1719.46,5382.83 1707.09,5363.47L2427.65,5363.47ZM2483.11,5232.52C2478.67,5251.28 2472.99,5269.57 2466.18,5287.27L1668.56,5287.27C1661.73,5269.55 1656.06,5251.27 1651.62,5232.52L2483.11,5232.52ZM1640.74,5156.32C1640.3,5147.85 1640.11,5139.32 1640.18,5130.74C1641.94,4894.97 1834.78,4704.98 2070.55,4706.74C2306.33,4708.5 2496.31,4901.35 2494.55,5137.12C2494.51,5143.56 2494.32,5149.96 2493.99,5156.32L1640.74,5156.32ZM3286.8,4905.94C3297.83,4905.94 3302.74,4908.64 3306.39,4922.11C3311.86,4942.27 3305.05,4948.71 3294.03,4948.71C3283,4948.71 3274.37,4944.43 3274.37,4930.45C3274.37,4916.46 3275.77,4905.94 3286.8,4905.94ZM4791.99,4725.91C4802.22,4725.91 4809.2,4734.71 4809.2,4748.48C4809.2,4762.25 4805.07,4769.51 4794.84,4769.51C4784.61,4769.51 4778.11,4762.76 4778.11,4748.99C4778.11,4735.22 4781.75,4725.91 4791.99,4725.91ZM3901.48,4379.94C3920.53,4375.42 3936.67,4390.64 3934.19,4419.28C3932.11,4443.39 3932.17,4467.89 3915.99,4472.76C3885.33,4481.98 3869.39,4458.23 3869.39,4434.03C3869.39,4409.83 3885.09,4383.83 3901.48,4379.94ZM5136.18,3976.89C5178.16,3974.15 5180.55,4006.85 5178.01,4037.95C5175.95,4063.24 5165.92,4086.43 5142.4,4086.43C5118.88,4086.43 5098.56,4085.44 5097.67,4061.21C5095.94,4014.36 5112.7,3978.42 5136.18,3976.89ZM1260.98,3553.09C1275.12,3605.77 1303.02,3672.91 1322.24,3699.89C1332.18,3713.56 1351.76,3732.77 1364.63,3741.75C1361.95,3723.49 1351.03,3696.94 1343.54,3682.53C1324.97,3647.16 1294.21,3600.31 1260.98,3553.09ZM822.282,2744.36C821.315,2742.01 820.58,2739.45 820.067,2736.53C816.466,2714.69 816.497,2671.59 817.653,2648.35C818.499,2633.19 821.782,2593.14 822.361,2585.67C823.472,2571.35 812.749,2558.82 798.431,2557.71C784.112,2556.6 771.585,2567.33 770.474,2581.64C769.884,2589.26 766.541,2630.15 765.688,2645.51C765.685,2645.56 765.682,2645.61 765.68,2645.65C764.371,2671.84 764.664,2720.55 768.73,2745.08C768.74,2745.14 768.75,2745.2 768.76,2745.26C771.699,2762.25 777.758,2774.28 787.124,2785.94C793.992,2794.49 805.486,2797.82 815.861,2794.26L820.219,2792.76C833.803,2788.1 841.045,2773.28 836.382,2759.7C833.933,2752.57 828.684,2747.18 822.282,2744.36ZM2851.91,820.77L2851.76,820.126C2851.77,820.155 2851.83,820.371 2851.91,820.77L2852.4,822.954C2848.7,800.992 2832.45,780.18 2816.76,773.905C2816.41,773.764 2816.05,773.63 2815.69,773.505C2808.07,770.836 2795.68,769.727 2784.8,771.115C2775.76,772.269 2767.81,775.215 2762.84,778.49C2762.72,778.571 2762.6,778.653 2762.48,778.736C2757.2,782.344 2749.06,789.524 2742.95,797.375C2737.25,804.699 2733.42,812.732 2732.14,819.559C2724.94,858.027 2731.65,972.627 2717.06,1060.31C2712.76,1086.12 2706.72,1109.4 2697.07,1126.56C2691.77,1136 2685.65,1143.53 2677.09,1146.34C2670.93,1142.42 2655.27,1132.34 2646.12,1125.45C2654.41,1111.86 2661.35,1099.33 2665.9,1089.39C2677.32,1078.24 2686.91,1060.82 2693.23,1039.17C2707.36,990.88 2707.13,920.119 2694.97,876.163C2689.17,855.22 2680.06,839.619 2670.22,831.226C2658.58,821.288 2645.27,818.067 2630.62,822.204C2618.56,825.613 2595.24,839.262 2583.7,862.45C2583.65,862.54 2583.61,862.629 2583.56,862.719C2566.74,897.515 2555.95,973.826 2557.51,1006.7C2557.52,1006.75 2557.52,1006.81 2557.52,1006.87C2558.49,1024.66 2561.86,1051.39 2567.26,1075.96C2567.28,1076.04 2567.3,1076.11 2567.31,1076.18C2570.59,1090.51 2577.6,1109.29 2585,1125.41C2568.4,1150.26 2549.53,1175.36 2535.39,1190.44C2533.84,1180.19 2532.26,1168.04 2531.46,1157.22C2527.41,1102.64 2523.17,1032.9 2503.27,992.752C2494.07,974.204 2481.58,960.915 2466.35,953.845C2456.28,949.167 2444.73,946.884 2431.48,948.283C2444.41,901.372 2456.62,851.428 2457.03,808.808C2457.04,808.374 2457.03,807.939 2457.01,807.505C2455.6,772.68 2447.32,753.066 2439.15,743.934C2431.61,735.495 2422.85,731.75 2413.77,731.048C2403.77,730.277 2391.99,733.674 2380.59,743.6C2368.58,754.06 2355.17,774.082 2344.49,799.221C2329.77,833.874 2319.68,878.335 2322.52,916.223C2324.05,936.581 2326.86,1054.96 2331.69,1160.43C2327.5,1180.65 2323.78,1197.08 2321.43,1205.98C2310.99,1245.16 2275.55,1312.21 2261.69,1367.17C2258.07,1381.57 2252.31,1393.82 2245.69,1402.51C2245.49,1400.94 2245.37,1399.34 2245.34,1397.8C2244.79,1368.33 2240.54,1189.7 2238,1045.48C2238.61,1040.25 2239.17,1035.11 2239.69,1030.1C2264.4,1002.57 2291.83,972.343 2299.99,963.383C2309.66,952.763 2308.88,936.291 2298.26,926.624C2287.64,916.956 2271.17,917.73 2261.5,928.351C2257.98,932.225 2250.89,940.026 2241.99,949.86C2240.45,920.001 2237.42,888.395 2236.28,879.524C2235.36,872.296 2233.18,868.454 2232.85,867.851C2227.1,857.511 2215.1,852.346 2203.64,855.28C2192.18,858.214 2184.15,868.508 2184.08,880.337C2183.92,907.996 2184.48,956.301 2185.4,1012.74C2174.4,1025.07 2165.11,1035.61 2159.98,1041.67C2159.98,1041.67 2159.98,1041.67 2159.97,1041.68C2138.9,1066.61 2102.5,1114.83 2088.43,1140.28C2082.32,1151.33 2079.9,1160.39 2079.69,1165.27C2079.07,1179.62 2090.21,1191.77 2104.56,1192.4C2117.81,1192.97 2129.19,1183.51 2131.34,1170.75C2132.67,1168.77 2156.31,1133.55 2177.31,1104.59C2174.5,1121.82 2171.59,1137.27 2168.97,1148.49C2160.34,1184.63 2138.48,1251.82 2122.97,1290.03C2122.55,1289.14 2122.12,1288.27 2121.69,1287.4C2111.21,1266.46 2096.87,1251 2079.37,1242.26C2073.05,1239.1 2065.71,1238.65 2059.05,1241.01C2052.39,1243.38 2046.97,1248.35 2044.05,1254.78C2041.36,1260.71 2039.78,1273.23 2042.02,1288.75L2042.27,1290.38C2040.8,1290.72 2039.26,1291.17 2037.65,1291.77C2035.48,1292.56 2029.89,1294.76 2027.81,1295.58C2018.01,1293.66 2008.05,1295.63 1998.39,1302.3C1990.41,1307.81 1981.87,1318.01 1974.55,1332.43C1953.9,1373.1 1938.46,1453.75 1942.52,1505.62C1944.31,1528.58 1945.03,1577.13 1956.95,1609.47C1958.26,1612.99 1959.69,1616.35 1961.26,1619.54C1956.29,1632 1948.9,1649.44 1941.09,1664.95C1939.41,1668.29 1937.79,1671.55 1936.2,1674.61C1932.11,1656.66 1927.98,1632.48 1924.73,1604.95C1915.35,1520.28 1901.45,1451.06 1885.23,1419.77C1881.84,1413.24 1875.84,1408.44 1868.71,1406.58L1861.75,1404.76C1853.35,1402.56 1844.41,1404.69 1837.91,1410.45C1832.09,1415.61 1820.41,1432.7 1809.6,1467.97C1809.58,1468.02 1809.57,1468.08 1809.55,1468.13C1804.8,1483.98 1799.17,1506.69 1794.08,1531.27C1788.27,1519.2 1779.35,1511.22 1764.05,1503.7C1756.73,1500.1 1748.14,1500.15 1740.86,1503.82C1733.57,1507.5 1728.43,1514.37 1726.97,1522.4C1725.41,1530.99 1724.51,1536.67 1724.15,1539.51C1724.15,1539.54 1724.14,1539.57 1724.14,1539.61C1720.55,1569.23 1735.04,1813.43 1729.58,1900.19C1723.38,1881.58 1717.02,1858.24 1712.02,1830.33C1712.01,1818.12 1711.9,1805.48 1711.73,1792.32C1711.73,1792.19 1711.73,1792.07 1711.73,1791.94C1709.67,1717.06 1703.22,1669.02 1697.95,1652.03C1694.14,1639.78 1681.98,1632.13 1669.29,1634.01C1656.61,1635.88 1647.17,1646.72 1647.07,1659.54C1646.99,1670.38 1647.35,1684.53 1648.04,1700.23C1638.31,1698.68 1628.96,1698.71 1621.65,1700.51C1621.41,1700.57 1621.17,1700.64 1620.93,1700.7C1600.11,1706.48 1571.33,1734.63 1560.92,1754.48C1560.87,1754.59 1560.82,1754.69 1560.76,1754.79C1546.02,1783.87 1528.08,1872.54 1528.22,1916.92C1528.22,1916.97 1528.22,1917.03 1528.22,1917.08C1528.44,1940.59 1534.39,1981.46 1540.16,1998.77C1540.2,1998.9 1540.24,1999.02 1540.29,1999.14C1544.93,2012.41 1556.78,2031.99 1570.54,2047C1581.43,2058.88 1593.72,2067.72 1604.3,2071.24C1604.5,2071.31 1604.7,2071.37 1604.9,2071.43C1619.28,2075.84 1646.43,2072.97 1658.18,2066.46C1658.57,2066.25 1658.95,2066.02 1659.32,2065.79C1666.22,2061.5 1673.9,2053.4 1680.55,2042.31C1691.71,2023.7 1701.31,1995.54 1704.13,1975.43L1704.16,1975.21C1707.8,1981.2 1710.93,1985.36 1713.27,1988.06C1721.6,1997.71 1730.2,2000.23 1735.95,2000.66L1734.93,2000.71C1742.85,2001.46 1753.64,1999.49 1762.18,1987.22C1767.97,1978.91 1775.89,1954.16 1780.24,1918.57C1780.25,1918.47 1780.26,1918.37 1780.27,1918.28C1784.09,1883.92 1782.45,1805.77 1780.06,1729.64C1787.01,1772.43 1793.18,1810.88 1796.73,1828.85L1797.19,1831.33C1797.43,1832.4 1797.66,1833.48 1797.89,1834.55L1798.21,1835.79L1798.28,1836.1L1798.29,1836.1L1798.56,1837.12C1802.5,1850.73 1816.6,1858.68 1830.28,1855.02C1843.97,1851.35 1852.2,1837.41 1848.82,1823.66C1848.06,1820.57 1847.05,1815.54 1845.84,1808.96C1839.42,1768.33 1830.92,1666.08 1831.61,1636.4C1832.67,1597.49 1845.33,1534.9 1855.66,1496.35C1862.44,1527.29 1868.14,1566.78 1873.02,1610.78C1873.03,1610.84 1873.03,1610.9 1873.04,1610.96C1879.06,1662.04 1888.33,1702.72 1894.94,1718.38C1900.45,1731.43 1908.7,1736.79 1913.02,1738.6C1913.47,1738.79 1913.92,1738.97 1914.38,1739.13C1919.24,1740.86 1927.88,1741.76 1936.48,1740.35C1944.52,1739.02 1952.23,1735.78 1956.49,1732.69C1956.77,1732.49 1957.05,1732.28 1957.33,1732.06C1964.25,1726.61 1972.96,1715.22 1981.07,1700.66C1988.81,1686.77 1996.62,1669.75 2002.93,1654.93C2020.54,1658.42 2045.52,1653.22 2077.2,1625.87C2094.77,1610.71 2110.8,1582.89 2122.31,1547.91C2137.83,1500.8 2146.12,1440.28 2143.62,1386.18C2143.22,1377.59 2142.54,1369.15 2141.56,1360.95C2146.79,1354.9 2151.74,1348.31 2155.93,1341.68C2155.99,1341.58 2156.05,1341.48 2156.11,1341.38C2163.63,1329.1 2177.2,1294.46 2190.2,1256.89C2191.73,1327.43 2193.02,1383.39 2193.31,1398.78C2194.23,1447.81 2219.2,1462.75 2238.99,1462.84C2248.79,1462.88 2260.01,1459.29 2270.87,1450.81C2286.8,1438.36 2303.79,1413.1 2312.16,1379.89C2318.62,1354.24 2329.83,1325.95 2340.98,1299.12C2342.32,1310.72 2343.74,1319.85 2345.25,1325.74C2348.68,1339.11 2361.95,1347.48 2375.5,1344.8C2389.04,1342.13 2398.14,1329.34 2396.22,1315.67C2388.9,1263.37 2391.18,1131.9 2409.01,1051.51C2412.47,1035.88 2416.45,1022.33 2421.28,1012.12C2423.03,1008.4 2426.49,1003.61 2427.31,1002.48C2433.88,1000 2439.26,998.999 2443.82,1000.78C2452.64,1004.24 2456.85,1014.58 2461.11,1026.58C2478.6,1075.8 2477.2,1155.85 2483.43,1201.21C2486.08,1220.47 2490.74,1234.99 2496.15,1242.93C2502.23,1251.85 2509.91,1256.47 2517.99,1258.23C2528.2,1260.46 2544.96,1258.1 2562.56,1236.69C2576.62,1223.84 2597.6,1197.41 2617.42,1169.15C2629.57,1178.47 2645.74,1189.42 2656.07,1194.39C2665.37,1198.87 2673.19,1199.58 2677.38,1199.16C2716.07,1195.22 2743.5,1163 2758.44,1113.07C2784.77,1025.08 2775.09,878.197 2782.98,830.935C2784.08,829.649 2787.82,825.319 2790.37,822.946L2792.99,822.584C2794.54,822.437 2794.43,822.441 2796.07,822.367L2796.66,822.388C2797.71,823.979 2799.88,827.478 2800.76,830.328L2800.77,831.363C2801,853.665 2802,965.832 2807.83,1012.79C2807.84,1012.83 2807.84,1012.88 2807.85,1012.92C2814.13,1061.56 2813.97,1092.58 2814.31,1093.93C2817.25,1105.7 2827.94,1113.88 2840.07,1113.63C2852.2,1113.39 2862.56,1104.8 2865.03,1092.93L2921,824.302C2924.51,827.218 2928.62,829.994 2932.72,832.071C2939.41,835.456 2946.07,836.962 2950.39,837.097C2950.77,837.109 2951.16,837.112 2951.54,837.107C2957.55,837.029 2965.55,835.127 2974.26,830.688C2986.34,824.531 3001.59,812.775 3013.56,801.074C3013.63,801.005 3013.7,800.935 3013.77,800.865C3052.27,762.37 3136.79,637.01 3162.19,597.984C3162.23,597.915 3162.28,597.846 3162.32,597.776C3174.61,578.49 3184.31,561.502 3187.09,556.273C3193.84,543.597 3189.03,527.825 3176.35,521.075C3163.68,514.325 3147.9,519.137 3141.15,531.813C3138.61,536.593 3129.72,552.081 3118.5,569.703C3094.14,607.125 3013.97,726.975 2977.1,763.933C2971.25,769.628 2961.57,776.516 2955.09,780.91C2950.89,766.586 2942.29,737.128 2938.93,724.592C2935.81,712.953 2925.1,704.98 2913.06,705.321C2901.01,705.663 2890.78,714.228 2888.32,726.024L2853.7,892.172C2853.1,863.883 2852.9,839.828 2852.81,830.845C2852.76,825.552 2852.18,822.118 2851.91,820.77ZM1651.35,1754.8C1650.07,1754.33 1648.74,1753.88 1647.41,1753.45C1642.82,1751.94 1638.02,1750.27 1634.46,1750.97C1631.38,1751.96 1628.2,1754.66 1624.89,1757.5C1617.54,1763.8 1610.56,1771.97 1607.09,1778.51C1594.54,1803.47 1580.16,1878.89 1580.26,1916.7C1580.45,1935.53 1584.86,1968.12 1589.48,1982.15C1592.46,1990.51 1600.3,2002.45 1608.9,2011.83C1612.86,2016.15 1616.59,2020.31 1620.42,2021.75C1623.2,2022.43 1629.13,2021.46 1632.02,2020.91C1633.59,2018.73 1637.07,2013.73 1639,2009.92C1645.5,1997.06 1650.86,1980.52 1652.6,1968.19C1658.27,1927.57 1659.96,1885.12 1659.98,1834.93L1659.8,1833.87C1656.72,1815.62 1653.68,1785.77 1651.35,1754.8ZM1739.38,1948.87L1738.15,1948.8L1738.07,1948.79L1739.38,1948.87ZM1736.22,1948.81L1736.11,1948.81L1737.8,1948.79L1736.22,1948.81ZM2014.39,1604.24C2016.12,1604.29 2018.12,1603.03 2020.69,1601.89C2027.27,1598.97 2034.64,1593.86 2043.2,1586.47C2055.36,1575.98 2064.91,1555.85 2072.88,1531.63C2086.22,1491.12 2093.44,1439.4 2091.79,1392.59C2090.77,1392.61 2089.79,1392.57 2088.87,1392.49C2082.88,1391.95 2077.25,1389.36 2072.96,1385.14C2067.23,1379.53 2062.01,1371.86 2057.37,1354.9C2057.35,1354.85 2057.34,1354.81 2057.33,1354.76C2056.45,1351.49 2055.23,1347.02 2053.85,1341.81C2053.1,1341.89 2052.35,1341.94 2051.6,1341.96C2046.12,1343.71 2035.75,1346.65 2026.7,1347.17C2024.3,1350.86 2019.48,1358.6 2016.73,1365.26C2008.77,1384.59 2002.2,1410.54 1998.15,1436.6C1994.57,1459.67 1992.94,1482.85 1994.4,1501.56C1995.68,1517.96 1995.87,1549.03 2001.39,1575.56C2002.86,1582.6 2004.67,1589.28 2007.2,1594.99C2010.3,1597.51 2012.75,1600.69 2014.39,1604.24ZM2032.27,1334.11L2032.37,1334.21L2032.09,1333.92L2032.27,1334.11ZM2031.09,1332.82L2031.3,1333.04L2030.97,1332.67L2031.09,1332.82ZM2638.88,875.479C2635.77,877.803 2632.51,881.243 2630.33,885.548C2616.52,914.293 2608.22,977.032 2609.49,1004.17C2610.36,1019.78 2613.35,1043.16 2618.07,1064.7L2618.74,1067.45C2619.25,1066.3 2619.72,1065.18 2620.14,1064.12C2621.91,1059.63 2624.91,1055.72 2628.78,1052.84C2638.91,1045.28 2643.6,1027.37 2647.41,1007.05C2654.58,968.874 2653.45,921.287 2644.81,890.038C2643.43,885.058 2640.83,879.365 2638.88,875.479ZM3986.67,859.014C3956.84,871.822 3924.99,887.569 3905.1,901.594C3857.66,935.047 3817.29,976.748 3796.23,1015.45C3787.38,1031.71 3781.54,1046.97 3782.14,1060.23C3787.12,1060.25 3794.25,1060.03 3800.14,1058.93C3853.04,1049 3941.11,1001.3 3975.84,895.467C3979.31,884.91 3982.97,872.479 3986.67,859.014ZM2403.76,796.82C2399.82,803.277 2396.01,811.062 2392.39,819.573C2380.7,847.076 2372.16,882.262 2374.42,912.332C2374.89,918.603 2375.45,934.384 2376.14,956.276C2390.08,907.461 2404.41,854.081 2404.98,808.97C2404.79,804.865 2404.33,800.702 2403.76,796.82ZM3710.21,612.54C3701.55,616.575 3676.99,628.455 3665.62,638.317C3648.28,653.763 3631.71,672.554 3621.49,686.824C3611.1,701.554 3599.46,722.914 3591.55,745.787C3587.27,758.722 3585.47,776.058 3586.11,790.163C3586.28,794.126 3587.22,799.445 3587.77,802.286L3589.66,803.332C3592.31,802.365 3597.12,800.515 3600.45,798.753C3612.74,792.257 3626.45,782.381 3634.91,773.816C3646.96,761.3 3662.19,741.784 3677.76,719.568C3680.26,713.567 3682.87,707.604 3685.56,701.757C3685.57,701.737 3685.58,701.716 3685.59,701.696C3694.03,683.513 3708.3,656.435 3722.8,630.866C3720.37,628.719 3718.31,626.074 3716.78,622.992C3714.92,619.239 3712.02,615.023 3710.21,612.54Z" style="fill:white;"/>
    <defs>
        <linearGradient id="_Linear1" x1="0" y1="0" x2="1" y2="0" gradientUnits="userSpaceOnUse" gradientTransform="matrix(3087.1,-2530.35,2530.35,3087.1,2046.57,5153.73)"><stop offset="0" style="stop-color:rgb(255,242,0);stop-opacity:1"/><stop offset="0.43" style="stop-color:rgb(254,201,5);stop-opacity:1"/><stop offset="1" style="stop-color:rgb(253,148,0);stop-opacity:1"/></linearGradient>
    </defs>
</svg>